<?xml version="1.0" encoding="UTF-8"?>
<svg id="katman_2" xmlns="http://www.w3.org/2000/svg" viewBox="0 0 554.14 312.41">
  <defs>
    <style>
      .cls-1 {
        letter-spacing: -.03em;
      }

      .cls-1, .cls-2, .cls-3, .cls-4, .cls-5, .cls-6, .cls-7, .cls-8, .cls-9 {
        font-family: NexaText-ExtraBold, NexaText;
        font-size: 73.13px;
      }

      .cls-10, .cls-11 {
        fill: #fff;
      }

      .cls-3 {
        letter-spacing: -.02em;
      }

      .cls-4 {
        letter-spacing: -.03em;
      }

      .cls-12, .cls-13, .cls-14 {
        font-family: NexaText-Bold, NexaText;
        font-size: 47.48px;
      }

      .cls-5 {
        letter-spacing: -.02em;
      }

      .cls-6 {
        letter-spacing: -.02em;
      }

      .cls-13 {
        letter-spacing: -.02em;
      }

      .cls-7 {
        letter-spacing: -.03em;
      }

      .cls-8 {
        letter-spacing: -.02em;
      }

      .cls-9 {
        letter-spacing: -.02em;
      }

      .cls-11 {
        font-weight: 700;
      }

      .cls-14 {
        letter-spacing: 0em;
      }
    </style>
  </defs>
  <g id="katman_1">
    <g>
      <g>
        <polygon class="cls-10" points="336.07 69.52 336.07 95.02 312.39 95.02 312.39 107.74 336.07 107.74 336.07 107.75 348.79 107.75 348.79 69.52 336.07 69.52"/>
        <polygon class="cls-10" points="336.07 148 312.39 148 312.39 160.72 336.07 160.72 336.07 160.73 348.79 160.73 348.79 122.5 336.07 122.5 336.07 148"/>
        <path class="cls-10" d="M325.8,118.86h-12.61v9.68h-48.66v44.71h-43.99s-4.45-8.19,2.27-43.66h-12.72c-5.66,19.48-6.57,39.45-1.91,56.38h69.06v-44.71h48.56v-22.41Z"/>
        <rect class="cls-10" x="287.07" y="147.24" width="13.49" height="13.49"/>
        <rect class="cls-10" x="272.63" y="95.03" width="12.72" height="12.72"/>
        <rect class="cls-10" x="289.94" y="95.03" width="12.72" height="12.72"/>
        <path class="cls-10" d="M263.46,86.85h64.46V0c-2.96,1.21-7.33,3.14-12.72,5.84v68.29h-19.5V16.86c-4.1,2.57-8.37,5.44-12.73,8.61v48.66h-19.5v-32.77c-4.3,3.95-8.57,8.21-12.72,12.77v57.67h-25.2l4.53-30.26c-4.78,7.8-9.08,16.22-12.72,25.32l-5.86,17.67h51.96v-37.67Z"/>
        <rect class="cls-10" x="224.5" y="191.44" width="12.72" height="12.72"/>
        <rect class="cls-10" x="241.81" y="191.44" width="12.72" height="12.72"/>
      </g>
      <text class="cls-11" transform="translate(0 292.23)"><tspan class="cls-5" x="0" y="0">G</tspan><tspan class="cls-9" x="53.51" y="0">U</tspan><tspan class="cls-4" x="107.49" y="0">I</tspan><tspan class="cls-3" x="128.26" y="0">D</tspan><tspan class="cls-2" x="182.11" y="0">E</tspan><tspan class="cls-12" x="229.13" y="-7.91"> </tspan><tspan class="cls-13" x="240.86" y="-7.91">O</tspan><tspan class="cls-14" x="278.82" y="-7.91">F </tspan><tspan class="cls-6" x="319.22" y="0">D</tspan><tspan class="cls-7" x="373.09" y="0">U</tspan><tspan class="cls-1" x="427.01" y="0">B</tspan><tspan class="cls-8" x="476.21" y="0">A</tspan><tspan class="cls-2" x="531.18" y="0">I</tspan></text>
    </g>
  </g>
</svg>