<?xml version="1.0" encoding="UTF-8"?>
<svg id="katman_2" xmlns="http://www.w3.org/2000/svg" version="1.1" viewBox="0 0 476.4 192.3">
  <!-- Generator: Adobe Illustrator 29.0.1, SVG Export Plug-In . SVG Version: 2.1.0 Build 192)  -->
  <defs>
    <style>
      .st0 {
        fill: #fff;
      }

      .st1 {
        isolation: isolate;
      }
    </style>
  </defs>
  <g id="katman_1">
    <g>
      <g>
        <polygon class="st0" points="123.2 65.5 123.2 89.5 101 89.5 101 101.5 123.2 101.5 123.2 101.5 135.2 101.5 135.2 65.5 123.2 65.5"/>
        <polygon class="st0" points="123.2 139.4 101 139.4 101 151.4 123.2 151.4 123.2 151.4 135.2 151.4 135.2 115.4 123.2 115.4 123.2 139.4"/>
        <path class="st0" d="M113.6,111.9h-11.9v9.1h-45.8v42.1H14.4s-4.2-7.7,2.1-41.1H4.6c-5.3,18.4-6.2,37.1-1.8,53.1h65v-42.1h45.7v-21.1h0Z"/>
        <rect class="st0" x="77.1" y="138.7" width="12.7" height="12.7"/>
        <rect class="st0" x="63.5" y="89.5" width="12" height="12"/>
        <rect class="st0" x="79.8" y="89.5" width="12" height="12"/>
        <path class="st0" d="M54.9,81.8h60.7V0c-2.8,1.1-6.9,3-12,5.5v64.3h-18.4V15.9c-3.9,2.4-7.9,5.1-12,8.1v45.8h-18.4v-30.9c-4,3.7-8.1,7.7-12,12v54.3h-23.7l4.3-28.5c-4.5,7.3-8.6,15.3-12,23.8l-5.5,16.6h48.9v-35.5h0Z"/>
        <rect class="st0" x="18.2" y="180.3" width="12" height="12"/>
        <rect class="st0" x="34.5" y="180.3" width="12" height="12"/>
      </g>
      <g>
        <g class="st1">
          <g class="st1">
            <path class="st0" d="M208.8,65.7v-11.8h30.6v28c-3,2.9-7.3,5.4-12.9,7.6-5.6,2.2-11.3,3.3-17.1,3.3s-13.7-1.5-19.2-4.6c-5.5-3.1-9.6-7.5-12.3-13.2-2.7-5.7-4.1-12-4.1-18.7s1.5-13.8,4.6-19.5,7.6-10,13.5-13.1c4.5-2.3,10.1-3.5,16.8-3.5s15.5,1.8,20.4,5.5c4.9,3.7,8.1,8.7,9.5,15.2l-14.1,2.6c-1-3.4-2.9-6.2-5.6-8.2-2.7-2-6.1-3-10.2-3-6.2,0-11.1,2-14.8,5.9-3.7,3.9-5.5,9.8-5.5,17.5s1.9,14.6,5.6,18.8c3.7,4.2,8.6,6.3,14.6,6.3s5.9-.6,8.9-1.7c3-1.2,5.5-2.6,7.7-4.2v-8.9h-16.2Z"/>
          </g>
          <g class="st1">
            <path class="st0" d="M247.8,21.3h14.2v38c0,6,.2,9.9.5,11.7.6,2.9,2.1,5.2,4.3,6.9,2.3,1.7,5.4,2.6,9.4,2.6s7.1-.8,9.1-2.5c2-1.6,3.3-3.7,3.7-6.1.4-2.4.6-6.4.6-11.9V21.3h14.2v36.9c0,8.4-.4,14.4-1.2,17.9-.8,3.5-2.2,6.4-4.2,8.8-2.1,2.4-4.8,4.3-8.3,5.7-3.4,1.4-8,2.1-13.5,2.1s-11.8-.8-15.3-2.3-6.2-3.6-8.2-6c-2-2.5-3.3-5.1-4-7.8-.9-4-1.4-10-1.4-17.8V21.3Z"/>
          </g>
          <g class="st1">
            <path class="st0" d="M319.9,91.5V21.3h14.2v70.2h-14.2Z"/>
          </g>
          <g class="st1">
            <path class="st0" d="M348.1,21.3h25.9c5.8,0,10.3.4,13.4,1.3,4.1,1.2,7.6,3.4,10.6,6.5,2.9,3.1,5.2,6.9,6.7,11.4,1.5,4.5,2.3,10,2.3,16.6s-.7,10.8-2.2,14.9c-1.8,5.1-4.3,9.2-7.5,12.4-2.5,2.4-5.8,4.3-10,5.6-3.1,1-7.3,1.5-12.6,1.5h-26.7V21.3ZM362.3,33.2v46.5h10.6c4,0,6.8-.2,8.6-.7,2.3-.6,4.2-1.5,5.7-2.9,1.5-1.4,2.8-3.6,3.7-6.8,1-3.1,1.4-7.4,1.4-12.9s-.5-9.6-1.4-12.5c-1-2.9-2.3-5.2-4-6.8-1.7-1.6-3.9-2.7-6.6-3.3-2-.4-5.9-.7-11.6-.7h-6.4Z"/>
          </g>
          <g class="st1">
            <path class="st0" d="M420.4,91.5V21.3h52.1v11.9h-37.9v15.6h35.3v11.8h-35.3v19.1h39.2v11.8h-53.4Z"/>
          </g>
        </g>
        <g class="st1">
          <g class="st1">
            <path class="st0" d="M172.9,137.2c0-3.4.5-6.2,1.5-8.5.8-1.7,1.8-3.2,3.1-4.5,1.3-1.3,2.7-2.3,4.3-3,2.1-.9,4.4-1.3,7.1-1.3,4.9,0,8.8,1.5,11.7,4.5s4.4,7.2,4.4,12.6-1.5,9.5-4.3,12.5c-2.9,3-6.8,4.5-11.6,4.5s-8.8-1.5-11.7-4.5-4.3-7.1-4.3-12.4ZM179.8,137c0,3.7.9,6.6,2.6,8.5s3.9,2.9,6.6,2.9,4.8-1,6.5-2.9c1.7-1.9,2.6-4.8,2.6-8.6s-.8-6.6-2.5-8.5c-1.7-1.9-3.9-2.8-6.6-2.8s-5,.9-6.6,2.8c-1.7,1.9-2.5,4.7-2.5,8.5Z"/>
          </g>
          <g class="st1">
            <path class="st0" d="M211.2,153.5v-33h22.6v5.6h-16v7.8h13.8v5.6h-13.8v14h-6.7Z"/>
          </g>
          <g class="st1">
            <path class="st0" d="M252.2,110.3h18.8c4.2,0,7.5.3,9.7,1,3,.9,5.5,2.4,7.7,4.7,2.1,2.2,3.7,5,4.9,8.2,1.1,3.3,1.7,7.3,1.7,12s-.5,7.8-1.6,10.8c-1.3,3.7-3.1,6.7-5.4,9-1.8,1.7-4.2,3.1-7.2,4.1-2.3.7-5.3,1.1-9.1,1.1h-19.3v-50.9ZM262.5,118.9v33.7h7.7c2.9,0,4.9-.2,6.2-.5,1.7-.4,3-1.1,4.1-2.1,1.1-1,2-2.6,2.7-4.9.7-2.3,1-5.4,1-9.3s-.3-7-1-9.1-1.7-3.7-2.9-4.9c-1.2-1.2-2.8-2-4.8-2.4-1.4-.3-4.2-.5-8.4-.5h-4.6Z"/>
          </g>
          <g class="st1">
            <path class="st0" d="M304.6,110.3h10.3v27.6c0,4.4.1,7.2.4,8.5.4,2.1,1.5,3.8,3.1,5,1.7,1.3,3.9,1.9,6.8,1.9s5.1-.6,6.6-1.8,2.4-2.7,2.7-4.4.5-4.6.5-8.6v-28.1h10.3v26.7c0,6.1-.3,10.4-.8,12.9-.6,2.5-1.6,4.7-3.1,6.4-1.5,1.7-3.5,3.1-6,4.1s-5.8,1.5-9.8,1.5-8.5-.6-11.1-1.7-4.5-2.6-6-4.4-2.4-3.7-2.9-5.6c-.7-2.9-1-7.2-1-12.9v-27.1Z"/>
          </g>
          <g class="st1">
            <path class="st0" d="M357.1,110.3h20.3c4,0,7,.2,9,.5,2,.3,3.7,1,5.3,2.1s2.9,2.5,3.9,4.3c1,1.8,1.6,3.8,1.6,6s-.6,4.6-1.9,6.6-3,3.5-5.2,4.5c3.1.9,5.5,2.4,7.1,4.6,1.7,2.2,2.5,4.7,2.5,7.7s-.5,4.6-1.6,6.8c-1.1,2.2-2.5,3.9-4.4,5.2-1.9,1.3-4.2,2.1-6.9,2.4-1.7.2-5.8.3-12.4.3h-17.3v-50.9ZM367.4,118.8v11.8h6.7c4,0,6.5,0,7.5-.2,1.8-.2,3.1-.8,4.1-1.8,1-1,1.5-2.3,1.5-4s-.4-2.9-1.3-3.8c-.9-1-2.2-1.6-3.9-1.8-1-.1-3.9-.2-8.8-.2h-5.9ZM367.4,139v13.6h9.5c3.7,0,6.1-.1,7-.3,1.5-.3,2.8-1,3.7-2,1-1.1,1.4-2.5,1.4-4.3s-.4-2.8-1.1-3.9c-.7-1.1-1.8-1.8-3.2-2.3-1.4-.5-4.4-.7-9.1-.7h-8.3Z"/>
          </g>
          <g class="st1">
            <path class="st0" d="M450.8,161.2h-11.2l-4.4-11.6h-20.3l-4.2,11.6h-10.9l19.8-50.9h10.9l20.4,50.9ZM431.9,141.1l-7-18.9-6.9,18.9h13.9Z"/>
          </g>
          <g class="st1">
            <path class="st0" d="M458,161.2v-50.9h10.3v50.9h-10.3Z"/>
          </g>
        </g>
      </g>
    </g>
  </g>
</svg>