<?xml version="1.0" encoding="UTF-8"?>
<svg id="Layer_1" xmlns="http://www.w3.org/2000/svg" version="1.1" viewBox="0 0 24 24">
  <!-- Generator: Adobe Illustrator 29.0.1, SVG Export Plug-In . SVG Version: 2.1.0 Build 192)  -->
  <defs>
    <style>
      .st0 {
        fill: #090909;
      }
    </style>
  </defs>
  <path class="st0" d="M11.7.2v1.4c0,0,.3-.3.3-.3v3.5c0,0,.2,0,.2,0v1.6c0,0,.1.2.1.2v1.4s.2,0,.2,0v2.2s.2,0,.2,0v4.1c0,0,.4,0,.4,0v3.3h.5v2.5s.2.1.1.2v1.6c0,.1.3.3.3.3s0,.2,0,.2h.6s0,0,0,0v.6h1.1c0,0,0,.4,0,.4h-7.6c0,0,0-.3,0-.4h1v-.7h.5v-.5h.4v-2.6s.2,0,.2,0v-2.9h.4v-3.5s.2,0,.2,0v-4.5s.1,0,.2,0v-1.8c0,0,.3,0,.3,0V2c0,0,.2-.2.2-.2V.2c0,0,.1,0,.2,0ZM11.7,5.3v-2.1s0,0-.1,0v4.1h-.3v1h.7v-1.3s-.1-.1-.1-.1v-1.5s-.2,0-.2,0ZM12.2,8.5h-.9c0,.2,0,.3.2.3v.9h.7v-1.1ZM11.4,9h0c0,.2,0,.1-.2.1v4.2h.2v-4.3ZM12.2,10h-.7v3.3s.2,0,.2,0v3.5s.1,0,.1,0v1.9c0,.1,0,.1.2.1v-8.3s.2,0,.2,0v-.5ZM12.2,10.7v3.9h.2v-3.8c0,0-.2,0-.2-.1h0ZM11.6,16.8v-3.3s0,0,0,0h-.4s0,.2,0,.2-.1,0-.2,0v3.2h.6ZM12.2,14.8v4.1c0,0,.3,0,.3,0v-1s.3,0,.3,0v-2.9h-.4v-.2s-.2,0-.2,0ZM11.7,17h-.7s0,.2,0,.2c0,0-.4,0-.4,0v1.5s0,0,0,0h1.1v-1.7ZM12.6,18.1v.9h.6v-.8h-.5s0-.2,0-.2h0ZM11.7,19h-1.1v.7s0,0,0,0h.8v1.7h.3v-2.4ZM12,19.1h-.2v2.4h.2v-2.4ZM12.2,19.2v2.3c0,0,.3,0,.3,0,0-.3,0-2.2,0-2.3s-.2,0-.3,0ZM13.2,19.4h-.6v2.3h.3v-1.2s.3,0,.3,0v-1.2ZM11.2,19.9h-.7s0,0,0,.1-.1,0-.1,0v1.4h.8v-1.5ZM13.4,21.9v-1.2c0,0-.2,0-.2,0v1.2c0,0,.2,0,.2,0ZM11.2,21.7h-.8s0,0,0,0v.8h-.4v.5h-.5v.4h1.7v-1.8ZM11.7,21.7h-.3v1.7c0,0,.2,0,.3,0v-1.8ZM12,21.9h-.2v1.6h.2v-1.6ZM12.5,21.9h-.3v1.6c0,0,.3,0,.3,0v-1.5ZM13,22h-.3v1.5h.3v-1.5ZM13.1,22.2v1.2s0,0,0,0h1.2v-.3h-.6c0,0,0-.3,0-.4s-.3-.2-.3-.3,0-.2,0-.2-.2,0-.2,0Z"/>
</svg>