<?xml version="1.0" encoding="UTF-8"?>
<svg id="Layer_1" xmlns="http://www.w3.org/2000/svg" version="1.1" xmlns:xlink="http://www.w3.org/1999/xlink" viewBox="0 0 24 24">
  <!-- Generator: Adobe Illustrator 29.0.1, SVG Export Plug-In . SVG Version: 2.1.0 Build 192)  -->
  <defs>
    <style>
      .st0 {
        fill: none;
      }

      .st1 {
        clip-path: url(#clippath);
      }
    </style>
    <clipPath id="clippath">
      <rect class="st0" x="9.8" width="4.3" height="24"/>
    </clipPath>
  </defs>
  <g class="st1">
    <path d="M14.1,20.6h-.4v-2.3s0,0,0,0h-.5v-3.1s0,0,0,0h-.5v-3s0,0,0,0h-.5V1.2s0,0,0,0h0V0s0,0,0,0,0,0,0,0v1h0s0,0,0,0v2.2h-.2s0,0,0,0v4.8h-.3s0,0,0,0v4.8h-.3s0,0,0,0v3.1h-.2s0,0,0,0v2.7h-.3s0,0,0,0v4.2h.2v-4.1h.5v4.6h.2v-4.7s0,0,0,0h-.2v-2.6h.4v7.4h.2v-7.5s0,0,0,0h-.2v-3h.6v10.6h.2v-10.7s0,0,0,0c0,0,0,0,0,0h-.3v-4.7h.5v15.5h.2v-15.6s0,0,0,0h-.2V3.5h.5v20.3h0c0,0,0,0,0,0h0v-11.8h.4v11.7h0c0,0,0,0,0,0h0v-8.7h.4v8.6h0c0,0,0,0,0,0h0v-5.6h.4v5.5h0c0,0,0,0,0,0h0s0,0,0,0h.4s0,0,0,0v-3.3s0,0,0,0M11.7,1.3h.2v2.1h-.2V1.3ZM13.7,20.7h.3v3.1h-.3v-3.1Z"/>
  </g>
</svg>