<?xml version="1.0" encoding="UTF-8"?>
<svg id="Layer_1" xmlns="http://www.w3.org/2000/svg" version="1.1" viewBox="0 0 24 24">
  <!-- Generator: Adobe Illustrator 29.0.1, SVG Export Plug-In . SVG Version: 2.1.0 Build 192)  -->
  <path d="M16,16.2c-.4,1.5-.7,3.3-1.8,4.4,1.1-.5,1.5-1.6,2-2.7.3-.9.7-1.7,1.4-2.5-.6.2-1.1.4-1.6.8Z"/>
  <path d="M6.8,15.5c.7.7,1,1.6,1.4,2.4.6,1.5,1.1,2.8,3.2,3-.5-.6-.8-1.3-1.2-2-.7-1.4-1.4-2.9-3.4-3.5Z"/>
  <path d="M15.5,11.7c.1.3.4.5.7.7-.3-.9.2-2,.7-2.7.4-.6,1-1.1,1.7-1.4-.3-.8-.7-1.4-1.3-2-.3.8-.8,1.5-1.2,2.3-.6,1.4-.9,2.3-.7,3.1h0Z"/>
  <path d="M9.8,4.3s0,0,0,0c0,0,0,0,0,0,0,.8,0,1.7,0,2.5-.1,1.8-.2,3.7.7,4.6.4.4.9.6,1.6.6-.9-.9-1-2.4-.7-3.5.2-.9.6-1.8,1.2-2.5-.7-.8-1.7-1.3-2.7-1.7,0,0,0,0,0,0h0Z"/>
  <path d="M5.3,9.6c.7.4,1.3.8,1.7,1.4.6.7,1,1.8.7,2.7.6-.4.9-.9.8-1.5,0-.6-.1-1.3-.8-2.2-.1-.2-.2-.4-.4-.7-.3-.6-.7-1.2-.9-1.8-.6.6-1,1.3-1.3,2h0Z"/>
  <g>
    <path d="M11.6,20.4c0-.5-.1-1-.2-1.6,0-1.5-.2-3-1.8-4.1.2.7.4,1.4.4,2l-2.2-3.3c.1-.3.2-.6.1-1-.1-.8-.7-1.5-1.4-2.2-.6-.5-1.7-1.1-3.3-1.2,0,.2.1.4.2.6.5,1.4,1.2,3.7,2.5,4.3.6.3,1.2.2,1.6-.2l2.8,4.2c.4.8.8,1.7,1.3,2.4Z"/>
    <path d="M17.4,9c-.8.6-1.8,1.9-1.4,3l-1.6,3.9c-.6.8-.8,1.6-1.1,2.6-.2.7-.5,1.5-.9,2.4,1.9-.2,2.4-2.1,3-4.3.2-.6.3-1.3.5-2-.2.1-.4.3-.6.4l1-2.5c.4.4,1,.5,1.6.2,1.3-.6,2.1-2.9,2.5-4.3,0-.2.1-.4.2-.6-1.6,0-2.7.7-3.3,1.2h0Z"/>
    <path d="M14.2,11.5c1.2-1.4.8-4.4.6-6.3,0-.3,0-.6,0-.8,0,0,0,0,0,0,0,0,0,0,0,0-1.8.9-2.8,2.2-3.2,3.1-.6,1.1-.7,2.3-.5,3.3.1.5.4.9.8,1.1,0,0,0,0,0,0v8.8c0,.1.1.2.2.2s.2-.1.2-.2v-8.6c.7.2,1.4,0,2-.6h0Z"/>
  </g>
</svg>