<?xml version="1.0" encoding="UTF-8"?>
<svg id="Layer_1" xmlns="http://www.w3.org/2000/svg" version="1.1" viewBox="0 0 24 24">
  <!-- Generator: Adobe Illustrator 29.0.1, SVG Export Plug-In . SVG Version: 2.1.0 Build 192)  -->
  <path d="M20.4,7s0-.1,0-.2c0-.6-.9-.8-1-.8,0,0,0,0,0,0-.6,0-.9,0-1.1,0,0,0-.3,0-.3,0-.1-.3-.3-.6-.7-.7,0,0-.2,0-.2,0,0,0-.3.3-.2.8-.2.3-.6,1.1-1.2,2.5-.2.5-.6.4-1.2.2,0,0-.1,0-.2,0-.1,0-.2-.2-.4-.4-.3-.4-.7-.9-1.5-1.3-.6-.2-.9-.3-1.2-.3-.3,0-.5,0-.8-.5-.3-.5-.9-.8-1.5-.8-.5,0-1,0-1.3.3-.2.1-.4.3-.6.6-.5.5-1.3,1.2-1.6,1.3-.5.2-1.3.8-1.7,1.8-.3.8.1,2.5.4,3.7,0,.1,0,.3,0,.4.1.6,0,1.2,0,1.7,0,.3-.1.5,0,.6,0,.2.7,1.6.8,1.9,0,.2,0,.6,0,.7,0,.1.1.2.2.3,0,0,1.6.3,2.3,0,.2,0,.2-.2.2-.2,0-.4-.3-.7-.6-.8,0,0-.4-.4-.7-1.3-.3-.8,0-2.2.2-2.6.6-.5.7-1.3.7-1.8,1.3.4,3,.3,3.6.3-.2.9-.5,2.7-.4,3.1.1.3,0,1,0,1.5,0,0,0,.8,0,.9,0,0,0,0,0,0,0,.2,0,.4,0,.5,0,.2.6.3,1,.3.3,0,.5,0,.8-.1.4,0,.4-.3.4-.3,0-.4-.3-.7-.5-.8,0-.2,0-.3,0-.6,0-.3.2-.7.3-1.7l1-2.2c.7-.5,1-1.3,1.1-1.5.9-.1,1.6-.4,2.2-.9,1-.9,1.2-2.1,1.3-2.5.4,0,.9-.4,1.2-.5.2.1.5.3.7.3.1,0,.2,0,.2-.2.1-.2,0-.5,0-.6h.1ZM6.2,13.5s0,0,0,.1c0,0-.6,1.8-.2,2.9.4,1,.8,1.4.8,1.4,0,0,0,0,0,0,0,0,.3.2.4.3-.1,0-.2,0-.3,0,0,0-.2,0-.3,0,0,0,0,0,0,0h0c0,0-.3-.2-.6-.3-.3-.8-.7-2.1-.7-2.3,0-1.1.2-1.9.3-2.1.5-.6.6-1.4.7-1.8.2,0,.3.2.5.3,0,.2,0,1.2-.5,1.6h0ZM13.3,12.7s0,0,0,0l-1.1,2.3s0,0,0,0c0,.9-.2,1.3-.3,1.6,0,.3-.1.5,0,.8,0,0,0,.1.1.2.1,0,.4.3.4.4,0,0-.1.1-.3.2,0,0,0,0,0,0,0-.1,0-.2,0-.3-.1-.2-.4-.3-.5-.3,0-.1,0-.2,0-.3.1-.1.2-.8.2-2,.3-.7.8-2.4.9-2.8.7-.3.9-.8,1-1.1.3,0,.5,0,.8,0-.1.3-.4.8-.9,1.2h0ZM19.8,7.2s.2.1.2.2c-.1,0-.3-.2-.5-.3,0,0-.2,0-.2,0-.3.2-.9.5-1.3.5s-.2,0-.2.2c0,0,0,1.5-1.2,2.4-.8.7-1.9,1-3.3.8-.1,0-.2,0-.2.2,0,0-.1.6-1,1,0,0,0,0-.1.1,0,0-.6,2.2-.9,2.8,0,0,0,0,0,.1,0,.8,0,1.7,0,1.8-.2.3,0,.7,0,.8,0,0,0,0,.1,0,.2,0,.3,0,.4.1-.1,0-.6,0-.8,0,0,0,0-.1,0-.2,0-.1,0-.2,0-.3,0,0,0-.7,0-.7.1-.7.2-1.3,0-1.7,0-.2.2-1.8.4-3.1,0,0,0-.1,0-.2,0,0-.1,0-.2,0,0,0-3.8.2-4.8-.8,0,0-.1,0-.2,0,0,0-.1.1-.1.2s0,1.2-.6,2c0,0,0,0,0,0,0,0-.4,1-.3,2.3,0,.4.7,2.2.8,2.5,0,0,0,0,.1.1,0,0,.2,0,.3.1h-.7c0-.3,0-.8,0-.8-.2-.5-.7-1.7-.8-1.9,0,0,0-.3,0-.4,0-.5.2-1.2,0-1.9,0-.1,0-.2,0-.4-.3-.9-.7-2.7-.5-3.4.3-.8,1-1.4,1.4-1.6.3-.1.9-.6,1.7-1.4.2-.2.5-.4.6-.6.2-.2.6-.2,1-.2.5,0,1,.3,1.2.7.4.5.6.6,1,.7.2,0,.6,0,1.1.3.7.3,1.1.8,1.3,1.1.2.3.4.5.6.6,0,0,.1,0,.2,0,.5.1,1.3.4,1.7-.4.4-1,.7-1.7.9-2.1,0,0,0,.1,0,.2,0,0,.1.1.2.1s0,0,.1,0c0,0,.1-.2,0-.3-.3-.5-.2-.8-.1-1,.4.2.4.8.4.8,0,.1.1.2.2.2.1,0,.2-.1.2-.2,0,0,0,0,0-.1,0,0,0,0,.1,0,.2,0,.6.1,1.2,0,.2,0,.5.2.6.4l-.2.2s0,0,0,.2c0,0,0,.1,0,.2h0Z"/>
  <path d="M8.6,6.3c-.8.1-1.3,1-1.4,1,0,0,0,.2,0,.3,0,0,0,0,.1,0,0,0,.1,0,.2,0,0,0,.5-.7,1.1-.8.2,0,.5,0,.7.2,0,0,.2,0,.3,0s0-.2,0-.3c-.3-.3-.6-.4-1-.3h0Z"/>
</svg>