<?xml version="1.0" encoding="UTF-8"?>
<svg xmlns="http://www.w3.org/2000/svg" version="1.1" viewBox="0 0 24 24">
  <defs>
    <style>
      .cls-1 {
        fill: none;
        stroke: #000;
        stroke-linecap: round;
        stroke-linejoin: round;
      }
    </style>
  </defs>
  <!-- Generator: Adobe Illustrator 28.7.2, SVG Export Plug-In . SVG Version: 1.2.0 Build 154)  -->
  <g>
    <g id="Layer_1">
      <circle class="cls-1" cx="12" cy="12" r="10"/>
      <g>
        <path d="M19.39,8.44s.06-.08.06-.13c-.05-.49-.75-.67-.83-.68-.02,0-.04,0-.06,0-.49.06-.77.01-.96-.02-.06-.01-.28-.04-.28-.04-.11-.23-.29-.48-.61-.56-.06-.02-.13,0-.17.06-.01.01-.21.27-.19.68-.19.26-.49.9-.99,2.11-.16.39-.51.32-1,.17-.06-.02-.11-.03-.17-.05-.11-.03-.21-.17-.34-.34-.23-.32-.55-.77-1.26-1.07-.47-.2-.76-.25-.97-.29-.29-.05-.38-.06-.65-.43-.28-.39-.74-.64-1.26-.71-.43-.05-.83.03-1.08.24-.14.12-.34.29-.55.48-.45.4-1.12,1.01-1.35,1.09-.38.13-1.1.7-1.4,1.51-.27.71.11,2.15.37,3.1.03.11.06.22.08.31.12.47.01,1.01-.07,1.41-.05.27-.09.43-.05.54.06.19.57,1.39.66,1.58,0,.13.04.49.04.63.02.11.09.19.18.22,0,0,1.38.21,1.96-.02.16-.06.18-.14.17-.21-.03-.32-.27-.56-.47-.66-.07-.07-.35-.38-.61-1.07-.27-.69.06-1.9.14-2.15.52-.43.57-1.13.55-1.49,1.08.3,2.51.29,3.06.27-.14.74-.42,2.31-.32,2.61.08.24,0,.81-.08,1.27,0,0-.03.68,0,.78,0,.01,0,.03.01.02-.07.17,0,.3.06.45.05.14.47.29.84.25.22-.02.44-.08.66-.08.33,0,.37-.21.37-.24.07-.34-.25-.59-.41-.7-.01-.19.02-.29.07-.48.07-.25.17-.62.24-1.41l.86-1.85c.58-.41.87-1.06.95-1.28.74-.09,1.36-.35,1.85-.79.83-.74,1.03-1.74,1.07-2.12.35-.06.78-.31.98-.43.15.12.41.29.61.26.09-.01.16-.06.21-.13.12-.19.05-.39-.06-.53l.1-.09ZM7.48,13.89s-.05.05-.06.08c-.02.06-.49,1.54-.15,2.43.34.87.7,1.2.72,1.21.01.01.03.02.04.03.08.04.26.15.3.29-.09.02-.19.04-.24.04-.05,0-.13,0-.22,0-.03-.04-.06-.07-.06-.07h0c-.07-.07-.22-.16-.51-.29-.24-.69-.61-1.77-.61-1.96-.04-.89.19-1.63.24-1.78.4-.5.53-1.15.58-1.55.13.08.28.15.44.22.02.21.07.98-.45,1.36h0ZM13.43,13.29s-.05.04-.06.07l-.9,1.91s-.01.04-.02.06c-.07.78-.17,1.14-.24,1.38-.06.24-.11.39-.07.7,0,.05.04.1.09.13.13.07.35.24.32.37-.02.08-.12.12-.23.14,0-.01,0-.02.01-.03.03-.1.01-.19-.04-.27-.1-.16-.33-.24-.46-.27-.04-.09-.07-.19-.06-.22.09-.13.14-.7.14-1.71.28-.57.69-2,.79-2.36.56-.27.79-.67.88-.89.23.02.44.01.65,0-.12.26-.38.7-.8.99h0ZM18.93,8.65s.13.12.13.19c-.08-.02-.27-.13-.41-.26-.06-.05-.14-.05-.2-.01-.27.18-.8.46-1.06.46-.09,0-.17.07-.17.16,0,.01-.06,1.22-.98,2.03-.65.58-1.58.82-2.76.72-.09,0-.16.05-.18.14,0,0-.12.52-.8.83-.05.02-.08.06-.1.11,0,.02-.5,1.82-.8,2.4,0,.03-.01.06-.02.09,0,.66-.03,1.44-.08,1.55-.16.23.03.59.08.66.03.04.07.07.12.08.13.02.27.08.31.12-.12.06-.51.07-.69-.05-.04-.03-.05-.08-.04-.13.04-.11.02-.19,0-.25-.03-.07,0-.62,0-.62.09-.55.18-1.12.06-1.44-.05-.19.15-1.49.37-2.65.01-.05,0-.11-.04-.15-.03-.04-.09-.06-.14-.06-.03,0-3.22.19-4.07-.71-.05-.05-.12-.07-.19-.04-.07.03-.11.09-.11.16,0,.01,0,1.04-.54,1.69-.01.02-.02.03-.03.05-.01.04-.32.87-.27,1.94.01.31.55,1.83.66,2.13.02.05.05.08.09.1.08.03.15.07.22.1l-.6-.05c0-.21-.05-.64-.05-.66-.16-.39-.6-1.42-.66-1.58,0-.05.03-.23.06-.37.08-.4.2-1.02.06-1.56-.02-.09-.05-.2-.08-.31-.21-.8-.62-2.28-.38-2.89.26-.68.86-1.2,1.19-1.31.27-.09.78-.53,1.47-1.15.21-.19.4-.36.53-.47.18-.15.48-.21.82-.17.42.05.81.27,1.03.57.33.46.52.51.87.56.21.04.47.08.9.26.62.27.9.65,1.12.96.16.22.3.42.53.48.05.01.1.03.16.04.42.12,1.13.33,1.41-.37.35-.85.61-1.43.78-1.77.02.05.05.1.08.15.03.06.09.09.15.09.03,0,.06,0,.08-.02.08-.05.11-.15.07-.23-.21-.38-.15-.67-.09-.81.3.18.36.67.36.68.01.09.1.16.19.15.09-.01.16-.1.15-.19,0,0,0-.04-.02-.1.03,0,.06,0,.11.02.19.03.51.08,1.03.03.15.04.42.15.51.3l-.15.13s-.06.08-.06.13c0,.05.03.1.06.13h0Z"/>
        <path d="M9.46,7.86c-.65.09-1.13.81-1.15.84-.05.08-.03.19.05.24.03.02.06.03.09.03.06,0,.11-.03.14-.08,0,0,.41-.62.91-.69.2-.03.39.04.57.2.07.06.18.05.24-.02s.05-.18-.02-.24c-.26-.23-.54-.32-.84-.28h0Z"/>
      </g>
    </g>
  </g>
</svg>