<?xml version="1.0" encoding="UTF-8"?>
<svg id="Layer_1" xmlns="http://www.w3.org/2000/svg" version="1.1" viewBox="0 0 24 24">
  <!-- Generator: Adobe Illustrator 29.0.1, SVG Export Plug-In . SVG Version: 2.1.0 Build 192)  -->
  <defs>
    <style>
      .st0 {
        fill: #fff;
      }
    </style>
  </defs>
  <path d="M20.6,12.9c-1.3,0-2.4,1.1-2.4,2.4s1.1,2.4,2.4,2.4,2.4-1.1,2.4-2.4-1.1-2.4-2.4-2.4ZM20.6,17.4c-1.1,0-2.1-.9-2.1-2.1s.9-2.1,2.1-2.1,2.1.9,2.1,2.1-.9,2.1-2.1,2.1Z"/>
  <path d="M23.4,12c0-.2-.1-.3-.3-.4h-.1c0,0,0,0,0,0v-.7c0-.3-.3-.6-.6-.6l-6.2-.5c0,0-.2,0-.2-.1l-1.6-3c-.1-.2-.3-.3-.6-.3H2.4c-.4,0-.6.3-.6.6v2.8h-.5c-.4,0-.6.3-.6.6v2.3c0,.4.3.6.6.6h.5v.8h-.3c-.1,0-.2,0-.2.2v.7c0,.4.3.6.6.6h1.3s0,0,0,0c0,1.3,1.1,2.3,2.4,2.3s2.3-1,2.4-2.2h9c0,0,.1,0,.2,0l1.7-2.8c0,0,.1-.1.2-.1h3.1c0,0,.1,0,.1,0h0c.3.2.6.2.8,0,.1-.1.2-.3.1-.5h0ZM14,6.7l1.6,3c.1.2.3.3.5.3l4.2.4,2,.2c.1,0,.2.1.2.3v.6h-3.8c-.2,0-.4.1-.5.3l-2.2,3.4h-5.3l-1.6-2.6v-6s0,0,0,0h4.6c0,0,.2,0,.2.1h0ZM1.2,12.8c-.1,0-.3-.1-.3-.3v-2.3c0-.1.1-.3.3-.3h.5v2.8h-.5ZM2.1,6.8c0-.1.1-.3.3-.3h6.5s0,0,0,0v6s0,0,0,0l1.5,2.4h-1l-1.7-2.7c-.1-.2-.3-.3-.5-.3h-2.9c-.2,0-.4.1-.5.3l-.9,1.4c0,0-.1.1-.2.1h-.5v-7.2h0ZM5.6,17.4c-1.1,0-2.1-.9-2.1-2.1s.9-2.1,2.1-2.1,2.1.9,2.1,2.1-.9,2.1-2.1,2.1ZM8.1,15.2c0-1.3-1.1-2.2-2.4-2.2s-2.3,1-2.4,2.2c0,0,0,0,0,0h-1.3c-.1,0-.3-.1-.3-.3v-.5h1c.2,0,.4-.1.5-.3l.9-1.4c0,0,.1-.1.2-.1h2.9c0,0,.2,0,.2.1l1.9,2.9h-1.2s0-.4,0-.4Z"/>
  <circle cx="5.6" cy="15.4" r="2.2"/>
  <path class="st0" d="M5.6,14.2c-.7,0-1.2.5-1.2,1.2s.5,1.2,1.2,1.2,1.2-.5,1.2-1.2-.5-1.2-1.2-1.2ZM5.6,16.2c-.4,0-.8-.4-.8-.8s.4-.8.8-.8.8.4.8.8-.4.8-.8.8Z"/>
  <circle cx="20.6" cy="15.4" r="2.2"/>
  <path class="st0" d="M20.6,14.2c-.7,0-1.2.5-1.2,1.2s.5,1.2,1.2,1.2,1.2-.5,1.2-1.2-.5-1.2-1.2-1.2ZM20.6,16.2c-.4,0-.8-.4-.8-.8s.4-.8.8-.8.8.4.8.8-.4.8-.8.8Z"/>
  <path d="M9.2,6.6v6l1.6,2.6h5.3l2.2-3.5s0-.2.7-.2h3.7c0,0,0-.7,0-.7,0,0,0-.3-.3-.3s-6-.4-6-.4c0,0-.5,0-.7-.3l-1.6-3s0-.2-.4-.2h-4.4Z"/>
  <path class="st0" d="M10,10.3h4.8c.3,0,.6-.4.4-.7l-1.4-2.5c0-.1-.2-.2-.4-.2h-3.4c-.2,0-.4.2-.4.4v2.5c0,.3.2.4.5.4h0ZM9.9,7.4s0,0,0,0h3.4s0,0,0,0c0,0,0,0,0,0l1.4,2.5s0,0,0,0,0,0,0,0h-4.8s0,0,0,0,0,0,0,0v-2.5Z"/>
  <path d="M2.1,7s-.3-.5.6-.4h6.1s0,6.2,0,6.2l1.5,2.4h-1l-1.7-2.7s-.1-.4-.9-.3h-2.6s-.4,0-.5.5l-.7,1.2s0,.3-.5.2h-.3v-7Z"/>
  <path class="st0" d="M2.9,10.3h5.1c.2,0,.4-.2.4-.5v-2.5c0-.3-.2-.5-.4-.5H2.9c-.2,0-.4.2-.4.5v2.5c0,.3.2.5.4.5ZM2.8,7.4s0,0,0,0h5.1s0,0,0,0v2.5s0,0,0,0c0,0,0,0,0,0H2.9s0,0,0,0v-2.5Z"/>
  <rect class="st0" x="8.1" y="15.6" width="1.2" height="0"/>
  <rect class="st0" x="2.6" y="7.2" width="5.5" height="2.9"/>
  <rect class="st0" x="9.8" y="7.3" width="3.6" height="2.7"/>
  <rect class="st0" x="12.8" y="7.3" width="1.3" height="2.7" transform="translate(-2.5 7.9) rotate(-30)"/>
  <rect class="st0" x="13.2" y="9.3" width="1.6" height=".9" transform="translate(28.7 18.6) rotate(176.7)"/>
  <circle class="st0" cx="20.7" cy="15.4" r=".9"/>
  <circle class="st0" cx="5.6" cy="15.4" r=".9"/>
  <rect x=".8" y="10" width=".9" height="2.9"/>
</svg>