<?xml version="1.0" encoding="UTF-8"?>
<svg id="Layer_1" xmlns="http://www.w3.org/2000/svg" version="1.1" viewBox="0 0 24 24">
  <!-- Generator: Adobe Illustrator 29.0.1, SVG Export Plug-In . SVG Version: 2.1.0 Build 192)  -->
  <path d="M17.1,19.9h-.6c2.1-6.3,0-13.1-6.3-15-.1,0-.3,0-.4.2,0,.1,0,.3.2.4,6.1,1.9,7.9,8.5,5.8,14.5h-1c1.7-5.1.4-10.8-4.3-13.1-.2,0-.4,0-.4.3v3.3c0,.2.1.3.3.3h1.9c.2,0,.3-.1.3-.3s-.1-.3-.3-.3h-1.6v-2.6c3.9,2.2,5.4,7.2,3.6,12.4h-3.6v-1.8h2.8c.2,0,.3-.1.3-.3s-.1-.3-.3-.3h-2.8v-1.9h2.8c.2,0,.3-.1.3-.3s-.1-.3-.3-.3h-2.8v-1.9h2.5c.2,0,.3-.1.3-.3s-.1-.3-.3-.3h-2.5v-.6c0-.2-.1-.3-.3-.3s-.3.1-.3.3v7.9h-1v-11.1c0-.2-.1-.3-.3-.3h-.8c-.2,0-.3.1-.3.3s.1.3.3.3h.5v10.8h-1.7c-.2,0-.3.1-.3.3s.1.3.3.3h10.3c.2,0,.3-.1.3-.3s-.1-.3-.3-.3h0Z"/>
  <path d="M8.9,7.7c.2,0,.3-.1.3-.3v-3.7c0-.2-.1-.3-.3-.3s-.3.1-.3.3v3.7c0,.2.1.3.3.3Z"/>
</svg>