<?xml version="1.0" encoding="UTF-8"?>
<svg xmlns="http://www.w3.org/2000/svg" version="1.1" viewBox="0 0 24 24">
  <defs>
    <style>
      .cls-1 {
        stroke-width: .1px;
      }

      .cls-1, .cls-2 {
        fill: none;
        stroke: #000;
        stroke-linejoin: round;
      }

      .cls-2 {
        stroke-linecap: round;
      }
    </style>
  </defs>
  <!-- Generator: Adobe Illustrator 28.7.2, SVG Export Plug-In . SVG Version: 1.2.0 Build 154)  -->
  <g>
    <g id="Layer_1">
      <circle class="cls-2" cx="12" cy="12" r="10"/>
      <g>
        <g>
          <polyline class="cls-1" points="7.91 17.47 7.52 17.47 7.52 18.64 10.16 18.64 10.16 17.47 9.79 17.47"/>
          <path class="cls-1" d="M10.16,18.64c-2.27-6.33-2.27-14.09-2.27-14.09,0,0-1.08,7.76.23,14.08"/>
          <path class="cls-1" d="M9.79,5.72s.87,6.23,0,11.8"/>
          <line class="cls-1" x1="9.85" y1="6.15" x2="9.27" y2="6.15"/>
          <line class="cls-1" x1="9.92" y1="6.79" x2="8.82" y2="6.79"/>
          <line class="cls-1" x1="9.98" y1="7.43" x2="9.27" y2="7.43"/>
          <line class="cls-1" x1="10.03" y1="8.07" x2="8.95" y2="8.07"/>
          <line class="cls-1" x1="10.11" y1="8.71" x2="9.27" y2="8.71"/>
          <line class="cls-1" x1="10.11" y1="9.35" x2="8.89" y2="9.35"/>
          <line class="cls-1" x1="10.14" y1="9.99" x2="9.27" y2="9.99"/>
          <line class="cls-1" x1="10.16" y1="10.63" x2="9.72" y2="10.63"/>
          <line class="cls-1" x1="10.16" y1="11.27" x2="9.27" y2="11.27"/>
          <line class="cls-1" x1="10.16" y1="11.91" x2="9.56" y2="11.91"/>
          <line class="cls-1" x1="10.17" y1="12.55" x2="9.27" y2="12.55"/>
          <line class="cls-1" x1="10.14" y1="13.19" x2="9.51" y2="13.19"/>
          <line class="cls-1" x1="10.14" y1="13.83" x2="9.27" y2="13.83"/>
          <line class="cls-1" x1="10.11" y1="14.47" x2="9.46" y2="14.47"/>
          <line class="cls-1" x1="10.06" y1="15.11" x2="9.46" y2="15.11"/>
          <line class="cls-1" x1="9.98" y1="15.75" x2="9.27" y2="15.75"/>
          <path class="cls-1" d="M7.77,11.44c.07,1.75.24,4.68,1.11,7.19"/>
          <line class="cls-1" x1="7.52" y1="5.72" x2="9.98" y2="5.72"/>
          <polyline class="cls-1" points="9.79 5.72 9.79 4.55 7.89 4.55 7.89 5.72"/>
          <path class="cls-1" d="M7.94,9.47c0,1.72.53,6.93,1.53,9.17"/>
          <path class="cls-1" d="M8.82,15.11c.13.84.57,2.55,1.02,3.51"/>
          <path class="cls-1" d="M7.95,15.87c.04.54.31,1.94.56,2.74"/>
          <path class="cls-1" d="M8.58,16.63c.11.66.46,1.73.58,2.01"/>
          <line class="cls-1" x1="9.79" y1="5.47" x2="8.47" y2="5.47"/>
          <line class="cls-1" x1="9.79" y1="5.25" x2="9.13" y2="5.25"/>
          <line class="cls-1" x1="9.79" y1="5.05" x2="9.42" y2="5.05"/>
          <line class="cls-1" x1="9.77" y1="4.75" x2="7.85" y2="4.75"/>
          <line class="cls-1" x1="9.87" y1="6.31" x2="8.75" y2="6.31"/>
          <line class="cls-1" x1="9.92" y1="6.97" x2="8.7" y2="6.97"/>
          <line class="cls-1" x1="9.96" y1="7.6" x2="9.6" y2="7.6"/>
          <line class="cls-1" x1="10.03" y1="8.29" x2="8.75" y2="8.29"/>
          <line class="cls-1" x1="10.09" y1="8.93" x2="9.42" y2="8.93"/>
          <line class="cls-1" x1="10.12" y1="9.52" x2="9.31" y2="9.52"/>
          <line class="cls-1" x1="10.11" y1="10.21" x2="9.04" y2="10.21"/>
          <line class="cls-1" x1="10.18" y1="10.81" x2="9.78" y2="10.81"/>
          <line class="cls-1" x1="10.14" y1="11.44" x2="9.15" y2="11.44"/>
          <line class="cls-1" x1="10.18" y1="12.17" x2="9.46" y2="12.17"/>
          <line class="cls-1" x1="10.16" y1="12.79" x2="9.46" y2="12.79"/>
          <line class="cls-1" x1="10.15" y1="13.42" x2="9.78" y2="13.42"/>
          <line class="cls-1" x1="10.11" y1="14.04" x2="9.83" y2="14.04"/>
          <line class="cls-1" x1="10.06" y1="14.7" x2="9.81" y2="14.7"/>
          <line class="cls-1" x1="9.98" y1="15.32" x2="9.81" y2="15.32"/>
          <line class="cls-1" x1="9.98" y1="16.02" x2="9.72" y2="16.02"/>
        </g>
        <g>
          <rect class="cls-1" x="10.53" y="9.15" width="6.71" height="9.46"/>
          <rect class="cls-1" x="11.29" y="9.86" width="5.2" height="8.04"/>
          <line class="cls-1" x1="16.49" y1="17.15" x2="16.73" y2="17.15"/>
          <line class="cls-1" x1="17.01" y1="16.46" x2="17.24" y2="16.46"/>
          <line class="cls-1" x1="16.53" y1="16.67" x2="16.88" y2="16.67"/>
          <line class="cls-1" x1="16.49" y1="15.69" x2="16.82" y2="15.69"/>
          <line class="cls-1" x1="16.49" y1="15.39" x2="16.77" y2="15.39"/>
          <line class="cls-1" x1="17.24" y1="15.06" x2="16.94" y2="15.06"/>
          <line class="cls-1" x1="17.24" y1="14.79" x2="17.13" y2="14.79"/>
          <line class="cls-1" x1="16.49" y1="14.25" x2="16.73" y2="14.25"/>
          <line class="cls-1" x1="16.49" y1="14.01" x2="16.82" y2="14.01"/>
          <line class="cls-1" x1="17.24" y1="13.43" x2="16.94" y2="13.43"/>
          <line class="cls-1" x1="17.24" y1="13.13" x2="17.01" y2="13.13"/>
          <line class="cls-1" x1="16.49" y1="12.56" x2="16.82" y2="12.56"/>
          <line class="cls-1" x1="16.53" y1="12.28" x2="16.73" y2="12.28"/>
          <line class="cls-1" x1="17.24" y1="11.62" x2="17.09" y2="11.62"/>
          <line class="cls-1" x1="16.73" y1="11.02" x2="16.94" y2="11.02"/>
          <line class="cls-1" x1="16.49" y1="10.74" x2="16.77" y2="10.74"/>
          <line class="cls-1" x1="17.01" y1="10.3" x2="17.24" y2="10.3"/>
          <line class="cls-1" x1="16.49" y1="9.98" x2="16.87" y2="9.98"/>
          <line class="cls-1" x1="17.01" y1="9.69" x2="17.24" y2="9.69"/>
          <line class="cls-1" x1="16.38" y1="9.5" x2="16.61" y2="9.5"/>
          <line class="cls-1" x1="15.42" y1="9.63" x2="15.69" y2="9.63"/>
          <line class="cls-1" x1="15.83" y1="9.32" x2="15.99" y2="9.32"/>
          <line class="cls-1" x1="14.26" y1="9.56" x2="14.51" y2="9.56"/>
          <line class="cls-1" x1="14.9" y1="9.42" x2="15.07" y2="9.42"/>
          <line class="cls-1" x1="13.2" y1="9.69" x2="13.45" y2="9.69"/>
          <line class="cls-1" x1="13.54" y1="9.5" x2="13.84" y2="9.5"/>
          <line class="cls-1" x1="12.65" y1="9.32" x2="12.91" y2="9.32"/>
          <line class="cls-1" x1="12.32" y1="9.56" x2="12.59" y2="9.56"/>
          <line class="cls-1" x1="10.84" y1="9.38" x2="10.53" y2="9.38"/>
          <line class="cls-1" x1="10.69" y1="9.63" x2="10.53" y2="9.63"/>
          <line class="cls-1" x1="10.97" y1="10.08" x2="11.29" y2="10.08"/>
          <line class="cls-1" x1="11.47" y1="9.42" x2="11.57" y2="9.42"/>
          <line class="cls-1" x1="10.76" y1="10.49" x2="10.53" y2="10.49"/>
          <line class="cls-1" x1="10.97" y1="10.71" x2="10.53" y2="10.71"/>
          <line class="cls-1" x1="10.97" y1="11.1" x2="11.29" y2="11.1"/>
          <line class="cls-1" x1="11.09" y1="11.4" x2="11.29" y2="11.4"/>
          <line class="cls-1" x1="10.89" y1="11.72" x2="10.53" y2="11.72"/>
          <line class="cls-1" x1="10.85" y1="12.28" x2="11.04" y2="12.28"/>
          <line class="cls-1" x1="11" y1="12.56" x2="11.29" y2="12.56"/>
          <line class="cls-1" x1="10.85" y1="13.06" x2="10.53" y2="13.06"/>
          <line class="cls-1" x1="11.04" y1="13.55" x2="11.29" y2="13.55"/>
          <line class="cls-1" x1="10.89" y1="13.94" x2="10.53" y2="13.94"/>
          <line class="cls-1" x1="11" y1="14.25" x2="11.29" y2="14.25"/>
          <line class="cls-1" x1="10.85" y1="14.98" x2="11" y2="14.98"/>
          <line class="cls-1" x1="10.93" y1="15.24" x2="11.29" y2="15.24"/>
          <line class="cls-1" x1="10.85" y1="15.69" x2="10.53" y2="15.69"/>
          <line class="cls-1" x1="11.04" y1="16.13" x2="11.29" y2="16.13"/>
          <line class="cls-1" x1="10.85" y1="16.49" x2="11.04" y2="16.49"/>
          <line class="cls-1" x1="10.85" y1="16.81" x2="10.53" y2="16.81"/>
          <line class="cls-1" x1="11.04" y1="17.17" x2="11.29" y2="17.17"/>
          <line class="cls-1" x1="10.85" y1="17.56" x2="10.53" y2="17.56"/>
          <line class="cls-1" x1="10.75" y1="18.27" x2="10.53" y2="18.27"/>
          <line class="cls-1" x1="11.29" y1="18.22" x2="11.67" y2="18.22"/>
          <line class="cls-1" x1="12.75" y1="18.13" x2="12.93" y2="18.13"/>
          <line class="cls-1" x1="12.5" y1="18.36" x2="12.71" y2="18.36"/>
          <line class="cls-1" x1="14.43" y1="18.18" x2="14.62" y2="18.18"/>
          <line class="cls-1" x1="14.18" y1="18.36" x2="14.32" y2="18.36"/>
          <line class="cls-1" x1="13.63" y1="18.18" x2="13.84" y2="18.18"/>
          <line class="cls-1" x1="15.63" y1="18.13" x2="15.88" y2="18.13"/>
          <line class="cls-1" x1="15.44" y1="18.36" x2="15.67" y2="18.36"/>
          <line class="cls-1" x1="16.53" y1="18.3" x2="16.73" y2="18.3"/>
          <line class="cls-1" x1="16.94" y1="17.99" x2="17.24" y2="17.99"/>
          <line class="cls-1" x1="16.66" y1="17.56" x2="16.49" y2="17.56"/>
          <line class="cls-1" x1="17.01" y1="14.25" x2="17.19" y2="14.25"/>
          <line class="cls-1" x1="16.5" y1="14.67" x2="16.71" y2="14.67"/>
          <line class="cls-1" x1="17.01" y1="15.52" x2="17.19" y2="15.52"/>
          <line class="cls-1" x1="17.09" y1="15.65" x2="17.24" y2="15.65"/>
          <line class="cls-1" x1="16.53" y1="16.15" x2="16.77" y2="16.15"/>
          <line class="cls-1" x1="16.71" y1="16.36" x2="16.82" y2="16.36"/>
          <line class="cls-1" x1="17.09" y1="16.69" x2="17.19" y2="16.69"/>
          <line class="cls-1" x1="17.09" y1="16.93" x2="17.24" y2="16.93"/>
          <line class="cls-1" x1="17.01" y1="17.07" x2="17.24" y2="17.07"/>
          <line class="cls-1" x1="16.73" y1="16.93" x2="16.88" y2="16.93"/>
          <line class="cls-1" x1="16.83" y1="17.44" x2="17.09" y2="17.44"/>
          <line class="cls-1" x1="17.01" y1="17.58" x2="17.31" y2="17.58"/>
          <line class="cls-1" x1="16.56" y1="17.81" x2="16.81" y2="17.81"/>
          <line class="cls-1" x1="16.53" y1="18.06" x2="16.66" y2="18.06"/>
          <line class="cls-1" x1="17.01" y1="18.3" x2="17.24" y2="18.3"/>
          <line class="cls-1" x1="15.04" y1="18.36" x2="15.22" y2="18.36"/>
          <line class="cls-1" x1="15.17" y1="18.23" x2="15.44" y2="18.23"/>
          <line class="cls-1" x1="16.04" y1="18.36" x2="16.29" y2="18.36"/>
          <line class="cls-1" x1="14.78" y1="18.2" x2="14.9" y2="18.2"/>
          <line class="cls-1" x1="13.73" y1="18.37" x2="13.89" y2="18.37"/>
          <line class="cls-1" x1="14.02" y1="18.2" x2="14.07" y2="18.2"/>
          <line class="cls-1" x1="13.27" y1="18.15" x2="13.42" y2="18.15"/>
          <line class="cls-1" x1="12.99" y1="18.36" x2="13.22" y2="18.36"/>
          <line class="cls-1" x1="11.86" y1="18.43" x2="12.08" y2="18.43"/>
          <line class="cls-1" x1="12.2" y1="18.25" x2="12.32" y2="18.25"/>
          <line class="cls-1" x1="11.86" y1="18.11" x2="11.98" y2="18.11"/>
          <line class="cls-1" x1="11" y1="18.36" x2="11.16" y2="18.36"/>
          <line class="cls-1" x1="10.59" y1="18.11" x2="10.83" y2="18.11"/>
          <line class="cls-1" x1="10.79" y1="17.83" x2="10.94" y2="17.83"/>
          <line class="cls-1" x1="11.08" y1="17.38" x2="11.29" y2="17.38"/>
          <line class="cls-1" x1="10.75" y1="17.02" x2="10.59" y2="17.02"/>
          <line class="cls-1" x1="10.75" y1="16.3" x2="10.93" y2="16.3"/>
          <line class="cls-1" x1="11.08" y1="15.71" x2="11.29" y2="15.71"/>
          <line class="cls-1" x1="10.75" y1="14.98" x2="10.53" y2="14.98"/>
          <line class="cls-1" x1="10.75" y1="14.78" x2="10.53" y2="14.78"/>
          <line class="cls-1" x1="11.09" y1="14.44" x2="11.23" y2="14.44"/>
          <line class="cls-1" x1="10.84" y1="14.44" x2="10.75" y2="14.44"/>
          <line class="cls-1" x1="10.75" y1="13.77" x2="10.53" y2="13.77"/>
          <line class="cls-1" x1="11.06" y1="13.23" x2="11.29" y2="13.23"/>
          <line class="cls-1" x1="10.75" y1="12.76" x2="10.59" y2="12.76"/>
          <line class="cls-1" x1="11" y1="12.76" x2="11.11" y2="12.76"/>
          <line class="cls-1" x1="10.84" y1="11.94" x2="11.29" y2="11.94"/>
          <line class="cls-1" x1="11.13" y1="11.78" x2="11.32" y2="11.78"/>
          <line class="cls-1" x1="10.8" y1="11.1" x2="10.53" y2="11.1"/>
          <line class="cls-1" x1="10.75" y1="11.24" x2="10.53" y2="11.24"/>
          <line class="cls-1" x1="11.11" y1="10.71" x2="11.23" y2="10.71"/>
          <line class="cls-1" x1="10.75" y1="10.07" x2="10.53" y2="10.07"/>
          <line class="cls-1" x1="10.53" y1="9.93" x2="10.85" y2="9.93"/>
          <line class="cls-1" x1="11.16" y1="9.63" x2="11.32" y2="9.63"/>
          <line class="cls-1" x1="11.15" y1="9.4" x2="11.29" y2="9.4"/>
          <line class="cls-1" x1="11.76" y1="9.56" x2="11.96" y2="9.56"/>
          <line class="cls-1" x1="11.92" y1="9.42" x2="12.08" y2="9.42"/>
          <line class="cls-1" x1="13" y1="9.44" x2="13.26" y2="9.44"/>
          <line class="cls-1" x1="12.88" y1="9.56" x2="13.06" y2="9.56"/>
          <line class="cls-1" x1="13.88" y1="9.35" x2="14.11" y2="9.35"/>
          <line class="cls-1" x1="13.84" y1="9.68" x2="13.99" y2="9.68"/>
          <line class="cls-1" x1="14.77" y1="9.63" x2="14.98" y2="9.63"/>
          <line class="cls-1" x1="14.69" y1="9.44" x2="14.77" y2="9.44"/>
          <line class="cls-1" x1="15.27" y1="9.4" x2="15.49" y2="9.4"/>
          <line class="cls-1" x1="15.91" y1="9.62" x2="16.11" y2="9.62"/>
          <line class="cls-1" x1="16.2" y1="9.35" x2="16.28" y2="9.35"/>
          <line class="cls-1" x1="16.83" y1="9.43" x2="17.01" y2="9.43"/>
          <line class="cls-1" x1="17.01" y1="9.96" x2="17.24" y2="9.96"/>
          <line class="cls-1" x1="16.73" y1="10.3" x2="16.49" y2="10.3"/>
          <line class="cls-1" x1="16.71" y1="10.49" x2="16.49" y2="10.49"/>
          <line class="cls-1" x1="17.01" y1="10.74" x2="17.24" y2="10.74"/>
          <line class="cls-1" x1="16.77" y1="11.38" x2="16.5" y2="11.38"/>
          <line class="cls-1" x1="16.77" y1="11.59" x2="16.88" y2="11.59"/>
          <line class="cls-1" x1="16.82" y1="11.88" x2="17.19" y2="11.88"/>
          <line class="cls-1" x1="17.01" y1="12.06" x2="17.19" y2="12.06"/>
          <line class="cls-1" x1="16.71" y1="12.81" x2="16.5" y2="12.81"/>
          <line class="cls-1" x1="16.68" y1="13.06" x2="16.5" y2="13.06"/>
          <line class="cls-1" x1="17.01" y1="12.62" x2="17.24" y2="12.62"/>
          <line class="cls-1" x1="16.73" y1="13.48" x2="16.53" y2="13.48"/>
          <line class="cls-1" x1="16.83" y1="13.77" x2="17.01" y2="13.77"/>
          <line class="cls-1" x1="16.71" y1="15.01" x2="16.83" y2="15.01"/>
        </g>
      </g>
    </g>
  </g>
</svg>