<?xml version="1.0" encoding="UTF-8"?>
<svg id="Layer_1" xmlns="http://www.w3.org/2000/svg" version="1.1" viewBox="0 0 24 24">
  <!-- Generator: Adobe Illustrator 29.0.1, SVG Export Plug-In . SVG Version: 2.1.0 Build 192)  -->
  <defs>
    <style>
      .st0 {
        fill: #fff;
      }
    </style>
  </defs>
  <path d="M10.2,7.1v12.9h4.7s3.2-10-4.7-12.9Z"/>
  <path d="M10.2,5.6s4.6,1,6.1,6.4c.1.4,1.2,3.3-.4,8.1h-1s1.1-3.4.5-6.8-2-4.6-5.2-6.1v-1.6Z"/>
  <path class="st0" d="M14.9,20c1.7-5.1.4-10.8-4.3-13.1-.2,0-.4,0-.4.3v3.3c0,.2.1.3.3.3h1.9c.2,0,.3-.1.3-.3s-.1-.3-.3-.3h-1.6v-2.6c3.9,2.2,5.4,7.2,3.6,12.4h-3.6v-1.8h2.8c.2,0,.3-.1.3-.3s-.1-.3-.3-.3h-2.8v-1.9h2.8c.2,0,.3-.1.3-.3s-.1-.3-.3-.3h-2.8v-1.9h2.5c.2,0,.3-.1.3-.3s-.1-.3-.3-.3h-2.5v-.6c0-.2-.1-.3-.3-.3s-.3.1-.3.3v7.9h-.5"/>
  <path d="M10.2,5.6c6,1.9,7.8,8.5,5.7,14.4h-1c1.7-5.1.4-10.8-4.3-13.1-.2,0-.4,0-.4.3v3.3c0,.2.1.3.3.3h1.9c.2,0,.3-.1.3-.3s-.1-.3-.3-.3h-1.6v-2.6c3.9,2.2,5.4,7.2,3.6,12.4h-3.6v-1.8h2.8c.2,0,.3-.1.3-.3s-.1-.3-.3-.3h-2.8v-1.9h2.8c.2,0,.3-.1.3-.3s-.1-.3-.3-.3h-2.8v-1.9h2.5c.2,0,.3-.1.3-.3s-.1-.3-.3-.3h-2.5v-.6c0-.2-.1-.3-.3-.3s-.3.1-.3.3v7.9h-1v-11.1c0-.2-.1-.3-.3-.3h-.8c-.2,0-.3.1-.3.3s.1.3.3.3h.5v10.8h-1.7c-.2,0-.3.1-.3.3s.1.3.3.3h10.3c.2,0,.3-.1.3-.3s-.1-.3-.3-.3h-.6c2.1-6.3,0-13.1-6.3-15l-1.2-.4v15.5h1.1V5"/>
  <path class="st0" d="M14.9,20c1.7-5.1.4-10.8-4.3-13.1-.2,0-.4,0-.4.3v3.3c0,.2.1.3.3.3h1.9c.2,0,.3-.1.3-.3s-.1-.3-.3-.3h-1.6v-2.6c3.9,2.2,5.4,7.2,3.6,12.4h-3.6v-1.8h2.8c.2,0,.3-.1.3-.3s-.1-.3-.3-.3h-2.8v-1.9h2.8c.2,0,.3-.1.3-.3s-.1-.3-.3-.3h-2.8v-1.9h2.5c.2,0,.3-.1.3-.3s-.1-.3-.3-.3h-2.5v-.6c0-.2-.1-.3-.3-.3s-.3.1-.3.3v7.9h-.5"/>
  <path d="M8.5,3.4h0c.3,0,.6.3.6.6v3.6h-.6V3.4h0Z"/>
  <rect x="7.5" y="8.6" width="1.6" height=".6"/>
  <rect x="6.6" y="20" width="1.1" height=".6"/>
  <rect x="16.4" y="20" width="1.1" height=".6"/>
</svg>