<?xml version="1.0" encoding="UTF-8"?>
<svg id="Layer_1" xmlns="http://www.w3.org/2000/svg" version="1.1" viewBox="0 0 24 24">
  <!-- Generator: Adobe Illustrator 29.0.1, SVG Export Plug-In . SVG Version: 2.1.0 Build 192)  -->
  <defs>
    <style>
      .st0 {
        fill: none;
        stroke: #000;
        stroke-linejoin: round;
        stroke-width: .1px;
      }
    </style>
  </defs>
  <g>
    <polyline class="st0" points="6.1 19.8 5.6 19.8 5.6 21.3 9 21.3 9 19.8 8.6 19.8"/>
    <path class="st0" d="M9,21.3C6,12.9,6,2.7,6,2.7c0,0-1.4,10.3.3,18.6"/>
    <path class="st0" d="M8.6,4.2s1.2,8.2,0,15.6"/>
    <line class="st0" x1="8.6" y1="4.8" x2="7.9" y2="4.8"/>
    <line class="st0" x1="8.7" y1="5.6" x2="7.3" y2="5.6"/>
    <line class="st0" x1="8.8" y1="6.5" x2="7.9" y2="6.5"/>
    <line class="st0" x1="8.9" y1="7.3" x2="7.4" y2="7.3"/>
    <line class="st0" x1="9" y1="8.2" x2="7.9" y2="8.2"/>
    <line class="st0" x1="9" y1="9" x2="7.4" y2="9"/>
    <line class="st0" x1="9" y1="9.9" x2="7.9" y2="9.9"/>
    <line class="st0" x1="9" y1="10.7" x2="8.5" y2="10.7"/>
    <line class="st0" x1="9" y1="11.6" x2="7.9" y2="11.6"/>
    <line class="st0" x1="9" y1="12.4" x2="8.2" y2="12.4"/>
    <line class="st0" x1="9.1" y1="13.3" x2="7.9" y2="13.3"/>
    <line class="st0" x1="9" y1="14.1" x2="8.2" y2="14.1"/>
    <line class="st0" x1="9" y1="15" x2="7.9" y2="15"/>
    <line class="st0" x1="9" y1="15.8" x2="8.1" y2="15.8"/>
    <line class="st0" x1="8.9" y1="16.7" x2="8.1" y2="16.7"/>
    <line class="st0" x1="8.8" y1="17.5" x2="7.9" y2="17.5"/>
    <path class="st0" d="M5.9,11.8c0,2.3.3,6.2,1.5,9.5"/>
    <line class="st0" x1="5.5" y1="4.2" x2="8.8" y2="4.2"/>
    <polyline class="st0" points="8.6 4.2 8.6 2.7 6 2.7 6 4.2"/>
    <path class="st0" d="M6.1,9.2c0,2.3.7,9.2,2,12.1"/>
    <path class="st0" d="M7.3,16.7c.2,1.1.8,3.4,1.4,4.6"/>
    <path class="st0" d="M6.1,17.7c0,.7.4,2.6.7,3.6"/>
    <path class="st0" d="M7,18.7c.2.9.6,2.3.8,2.7"/>
    <line class="st0" x1="8.6" y1="3.9" x2="6.8" y2="3.9"/>
    <line class="st0" x1="8.6" y1="3.6" x2="7.7" y2="3.6"/>
    <line class="st0" x1="8.6" y1="3.3" x2="8.1" y2="3.3"/>
    <line class="st0" x1="8.5" y1="2.9" x2="6" y2="2.9"/>
    <line class="st0" x1="8.7" y1="5" x2="7.2" y2="5"/>
    <line class="st0" x1="8.7" y1="5.9" x2="7.1" y2="5.9"/>
    <line class="st0" x1="8.8" y1="6.7" x2="8.3" y2="6.7"/>
    <line class="st0" x1="8.9" y1="7.6" x2="7.2" y2="7.6"/>
    <line class="st0" x1="9" y1="8.5" x2="8.1" y2="8.5"/>
    <line class="st0" x1="9" y1="9.3" x2="7.9" y2="9.3"/>
    <line class="st0" x1="9" y1="10.2" x2="7.6" y2="10.2"/>
    <line class="st0" x1="9.1" y1="11" x2="8.5" y2="11"/>
    <line class="st0" x1="9" y1="11.8" x2="7.7" y2="11.8"/>
    <line class="st0" x1="9.1" y1="12.8" x2="8.1" y2="12.8"/>
    <line class="st0" x1="9" y1="13.6" x2="8.1" y2="13.6"/>
    <line class="st0" x1="9" y1="14.4" x2="8.5" y2="14.4"/>
    <line class="st0" x1="9" y1="15.2" x2="8.6" y2="15.2"/>
    <line class="st0" x1="8.9" y1="16.1" x2="8.6" y2="16.1"/>
    <line class="st0" x1="8.8" y1="16.9" x2="8.6" y2="16.9"/>
    <line class="st0" x1="8.8" y1="17.8" x2="8.5" y2="17.8"/>
  </g>
  <g>
    <rect class="st0" x="9.5" y="8.8" width="8.9" height="12.5"/>
    <rect class="st0" x="10.5" y="9.7" width="6.9" height="10.6"/>
    <line class="st0" x1="17.4" y1="19.3" x2="17.7" y2="19.3"/>
    <line class="st0" x1="18.1" y1="18.4" x2="18.4" y2="18.4"/>
    <line class="st0" x1="17.5" y1="18.7" x2="17.9" y2="18.7"/>
    <line class="st0" x1="17.4" y1="17.4" x2="17.9" y2="17.4"/>
    <line class="st0" x1="17.4" y1="17" x2="17.8" y2="17"/>
    <line class="st0" x1="18.4" y1="16.6" x2="18" y2="16.6"/>
    <line class="st0" x1="18.4" y1="16.2" x2="18.3" y2="16.2"/>
    <line class="st0" x1="17.4" y1="15.5" x2="17.7" y2="15.5"/>
    <line class="st0" x1="17.4" y1="15.2" x2="17.9" y2="15.2"/>
    <line class="st0" x1="18.4" y1="14.4" x2="18" y2="14.4"/>
    <line class="st0" x1="18.4" y1="14" x2="18.1" y2="14"/>
    <line class="st0" x1="17.4" y1="13.3" x2="17.9" y2="13.3"/>
    <line class="st0" x1="17.5" y1="12.9" x2="17.7" y2="12.9"/>
    <line class="st0" x1="18.4" y1="12" x2="18.2" y2="12"/>
    <line class="st0" x1="17.7" y1="11.2" x2="18" y2="11.2"/>
    <line class="st0" x1="17.4" y1="10.9" x2="17.8" y2="10.9"/>
    <line class="st0" x1="18.1" y1="10.3" x2="18.4" y2="10.3"/>
    <line class="st0" x1="17.4" y1="9.9" x2="17.9" y2="9.9"/>
    <line class="st0" x1="18.1" y1="9.5" x2="18.4" y2="9.5"/>
    <line class="st0" x1="17.3" y1="9.2" x2="17.6" y2="9.2"/>
    <line class="st0" x1="16" y1="9.4" x2="16.4" y2="9.4"/>
    <line class="st0" x1="16.5" y1="9" x2="16.8" y2="9"/>
    <line class="st0" x1="14.5" y1="9.3" x2="14.8" y2="9.3"/>
    <line class="st0" x1="15.3" y1="9.1" x2="15.5" y2="9.1"/>
    <line class="st0" x1="13.1" y1="9.5" x2="13.4" y2="9.5"/>
    <line class="st0" x1="13.5" y1="9.2" x2="13.9" y2="9.2"/>
    <line class="st0" x1="12.3" y1="9" x2="12.7" y2="9"/>
    <line class="st0" x1="11.9" y1="9.3" x2="12.3" y2="9.3"/>
    <line class="st0" x1="9.9" y1="9.1" x2="9.5" y2="9.1"/>
    <line class="st0" x1="9.7" y1="9.4" x2="9.5" y2="9.4"/>
    <line class="st0" x1="10.1" y1="10" x2="10.5" y2="10"/>
    <line class="st0" x1="10.8" y1="9.1" x2="10.9" y2="9.1"/>
    <line class="st0" x1="9.8" y1="10.5" x2="9.5" y2="10.5"/>
    <line class="st0" x1="10.1" y1="10.8" x2="9.5" y2="10.8"/>
    <line class="st0" x1="10.1" y1="11.3" x2="10.5" y2="11.3"/>
    <line class="st0" x1="10.3" y1="11.7" x2="10.5" y2="11.7"/>
    <line class="st0" x1="10" y1="12.2" x2="9.5" y2="12.2"/>
    <line class="st0" x1="10" y1="12.9" x2="10.2" y2="12.9"/>
    <line class="st0" x1="10.2" y1="13.3" x2="10.5" y2="13.3"/>
    <line class="st0" x1="10" y1="13.9" x2="9.5" y2="13.9"/>
    <line class="st0" x1="10.2" y1="14.6" x2="10.5" y2="14.6"/>
    <line class="st0" x1="10" y1="15.1" x2="9.5" y2="15.1"/>
    <line class="st0" x1="10.2" y1="15.5" x2="10.5" y2="15.5"/>
    <line class="st0" x1="10" y1="16.5" x2="10.2" y2="16.5"/>
    <line class="st0" x1="10.1" y1="16.8" x2="10.5" y2="16.8"/>
    <line class="st0" x1="10" y1="17.4" x2="9.5" y2="17.4"/>
    <line class="st0" x1="10.2" y1="18" x2="10.5" y2="18"/>
    <line class="st0" x1="10" y1="18.5" x2="10.2" y2="18.5"/>
    <line class="st0" x1="10" y1="18.9" x2="9.5" y2="18.9"/>
    <line class="st0" x1="10.2" y1="19.4" x2="10.5" y2="19.4"/>
    <line class="st0" x1="10" y1="19.9" x2="9.5" y2="19.9"/>
    <line class="st0" x1="9.8" y1="20.8" x2="9.5" y2="20.8"/>
    <line class="st0" x1="10.5" y1="20.8" x2="11" y2="20.8"/>
    <line class="st0" x1="12.5" y1="20.6" x2="12.7" y2="20.6"/>
    <line class="st0" x1="12.1" y1="20.9" x2="12.4" y2="20.9"/>
    <line class="st0" x1="14.7" y1="20.7" x2="15" y2="20.7"/>
    <line class="st0" x1="14.4" y1="20.9" x2="14.6" y2="20.9"/>
    <line class="st0" x1="13.6" y1="20.7" x2="13.9" y2="20.7"/>
    <line class="st0" x1="16.3" y1="20.6" x2="16.6" y2="20.6"/>
    <line class="st0" x1="16" y1="20.9" x2="16.3" y2="20.9"/>
    <line class="st0" x1="17.5" y1="20.9" x2="17.7" y2="20.9"/>
    <line class="st0" x1="18" y1="20.5" x2="18.4" y2="20.5"/>
    <line class="st0" x1="17.6" y1="19.9" x2="17.4" y2="19.9"/>
    <line class="st0" x1="18.1" y1="15.5" x2="18.3" y2="15.5"/>
    <line class="st0" x1="17.4" y1="16.1" x2="17.7" y2="16.1"/>
    <line class="st0" x1="18.1" y1="17.2" x2="18.3" y2="17.2"/>
    <line class="st0" x1="18.2" y1="17.4" x2="18.4" y2="17.4"/>
    <line class="st0" x1="17.5" y1="18" x2="17.8" y2="18"/>
    <line class="st0" x1="17.7" y1="18.3" x2="17.9" y2="18.3"/>
    <line class="st0" x1="18.2" y1="18.7" x2="18.3" y2="18.7"/>
    <line class="st0" x1="18.2" y1="19.1" x2="18.4" y2="19.1"/>
    <line class="st0" x1="18.1" y1="19.2" x2="18.4" y2="19.2"/>
    <line class="st0" x1="17.7" y1="19.1" x2="17.9" y2="19.1"/>
    <line class="st0" x1="17.9" y1="19.7" x2="18.2" y2="19.7"/>
    <line class="st0" x1="18.1" y1="19.9" x2="18.5" y2="19.9"/>
    <line class="st0" x1="17.5" y1="20.2" x2="17.8" y2="20.2"/>
    <line class="st0" x1="17.5" y1="20.6" x2="17.6" y2="20.6"/>
    <line class="st0" x1="18.1" y1="20.9" x2="18.4" y2="20.9"/>
    <line class="st0" x1="15.5" y1="20.9" x2="15.7" y2="20.9"/>
    <line class="st0" x1="15.7" y1="20.8" x2="16" y2="20.8"/>
    <line class="st0" x1="16.8" y1="20.9" x2="17.2" y2="20.9"/>
    <line class="st0" x1="15.2" y1="20.7" x2="15.3" y2="20.7"/>
    <line class="st0" x1="13.8" y1="21" x2="14" y2="21"/>
    <line class="st0" x1="14.1" y1="20.7" x2="14.2" y2="20.7"/>
    <line class="st0" x1="13.2" y1="20.7" x2="13.4" y2="20.7"/>
    <line class="st0" x1="12.8" y1="20.9" x2="13.1" y2="20.9"/>
    <line class="st0" x1="11.3" y1="21" x2="11.6" y2="21"/>
    <line class="st0" x1="11.7" y1="20.8" x2="11.9" y2="20.8"/>
    <line class="st0" x1="11.3" y1="20.6" x2="11.5" y2="20.6"/>
    <line class="st0" x1="10.2" y1="20.9" x2="10.4" y2="20.9"/>
    <line class="st0" x1="9.6" y1="20.6" x2="9.9" y2="20.6"/>
    <line class="st0" x1="9.9" y1="20.2" x2="10.1" y2="20.2"/>
    <line class="st0" x1="10.3" y1="19.7" x2="10.5" y2="19.7"/>
    <line class="st0" x1="9.8" y1="19.2" x2="9.6" y2="19.2"/>
    <line class="st0" x1="9.8" y1="18.2" x2="10.1" y2="18.2"/>
    <line class="st0" x1="10.3" y1="17.4" x2="10.5" y2="17.4"/>
    <line class="st0" x1="9.8" y1="16.5" x2="9.5" y2="16.5"/>
    <line class="st0" x1="9.8" y1="16.2" x2="9.5" y2="16.2"/>
    <line class="st0" x1="10.3" y1="15.8" x2="10.5" y2="15.8"/>
    <line class="st0" x1="9.9" y1="15.8" x2="9.8" y2="15.8"/>
    <line class="st0" x1="9.8" y1="14.9" x2="9.5" y2="14.9"/>
    <line class="st0" x1="10.2" y1="14.2" x2="10.5" y2="14.2"/>
    <line class="st0" x1="9.8" y1="13.5" x2="9.6" y2="13.5"/>
    <line class="st0" x1="10.2" y1="13.5" x2="10.3" y2="13.5"/>
    <line class="st0" x1="9.9" y1="12.5" x2="10.5" y2="12.5"/>
    <line class="st0" x1="10.3" y1="12.2" x2="10.6" y2="12.2"/>
    <line class="st0" x1="9.9" y1="11.3" x2="9.5" y2="11.3"/>
    <line class="st0" x1="9.8" y1="11.5" x2="9.5" y2="11.5"/>
    <line class="st0" x1="10.3" y1="10.8" x2="10.5" y2="10.8"/>
    <line class="st0" x1="9.8" y1="10" x2="9.5" y2="10"/>
    <line class="st0" x1="9.5" y1="9.8" x2="10" y2="9.8"/>
    <line class="st0" x1="10.4" y1="9.4" x2="10.6" y2="9.4"/>
    <line class="st0" x1="10.4" y1="9.1" x2="10.5" y2="9.1"/>
    <line class="st0" x1="11.2" y1="9.3" x2="11.4" y2="9.3"/>
    <line class="st0" x1="11.4" y1="9.1" x2="11.6" y2="9.1"/>
    <line class="st0" x1="12.8" y1="9.2" x2="13.1" y2="9.2"/>
    <line class="st0" x1="12.6" y1="9.3" x2="12.9" y2="9.3"/>
    <line class="st0" x1="14" y1="9" x2="14.3" y2="9"/>
    <line class="st0" x1="13.9" y1="9.5" x2="14.1" y2="9.5"/>
    <line class="st0" x1="15.1" y1="9.4" x2="15.4" y2="9.4"/>
    <line class="st0" x1="15" y1="9.2" x2="15.1" y2="9.2"/>
    <line class="st0" x1="15.8" y1="9.1" x2="16.1" y2="9.1"/>
    <line class="st0" x1="16.7" y1="9.4" x2="16.9" y2="9.4"/>
    <line class="st0" x1="17" y1="9" x2="17.1" y2="9"/>
    <line class="st0" x1="17.9" y1="9.1" x2="18.1" y2="9.1"/>
    <line class="st0" x1="18.1" y1="9.8" x2="18.4" y2="9.8"/>
    <line class="st0" x1="17.7" y1="10.3" x2="17.4" y2="10.3"/>
    <line class="st0" x1="17.7" y1="10.5" x2="17.4" y2="10.5"/>
    <line class="st0" x1="18.1" y1="10.9" x2="18.4" y2="10.9"/>
    <line class="st0" x1="17.8" y1="11.7" x2="17.4" y2="11.7"/>
    <line class="st0" x1="17.8" y1="12" x2="17.9" y2="12"/>
    <line class="st0" x1="17.9" y1="12.4" x2="18.3" y2="12.4"/>
    <line class="st0" x1="18.1" y1="12.6" x2="18.3" y2="12.6"/>
    <line class="st0" x1="17.7" y1="13.6" x2="17.4" y2="13.6"/>
    <line class="st0" x1="17.7" y1="13.9" x2="17.4" y2="13.9"/>
    <line class="st0" x1="18.1" y1="13.4" x2="18.4" y2="13.4"/>
    <line class="st0" x1="17.7" y1="14.5" x2="17.5" y2="14.5"/>
    <line class="st0" x1="17.9" y1="14.9" x2="18.1" y2="14.9"/>
    <line class="st0" x1="17.7" y1="16.5" x2="17.9" y2="16.5"/>
  </g>
</svg>