<?xml version="1.0" encoding="UTF-8"?>
<svg id="Layer_1" xmlns="http://www.w3.org/2000/svg" version="1.1" viewBox="0 0 24 24">
  <!-- Generator: Adobe Illustrator 29.0.1, SVG Export Plug-In . SVG Version: 2.1.0 Build 192)  -->
  <defs>
    <style>
      .st0 {
        fill: #fff;
      }

      .st1 {
        fill: none;
        stroke: #000;
        stroke-linejoin: round;
        stroke-width: .2px;
      }
    </style>
  </defs>
  <rect class="st1" x="6.1" y="12" width="2" height="6.9"/>
  <polyline class="st1" points="15.9 13.6 15.9 19 17.9 19 17.9 12 15.9 12 15.9 13.6"/>
  <rect x="8.1" y="12.6" width="7.8" height="6.5"/>
  <rect class="st0" x="9.1" y="16.4" width="1.2" height="2.8"/>
  <path class="st0" d="M10.3,14.2c0-.3-.6-.7-.6-.7,0,0-.6.4-.6.7s0,0,0,0v1.2h1.2v-1.2s0,0,0,0Z"/>
  <rect class="st0" x="11.4" y="16.4" width="1.2" height="2.7"/>
  <path class="st0" d="M12.6,14.2c0-.3-.6-.7-.6-.7,0,0-.6.4-.6.7s0,0,0,0v1.2h1.2v-1.2s0,0,0,0Z"/>
  <rect class="st0" x="13.7" y="16.4" width="1.2" height="2.7"/>
  <path class="st0" d="M14.9,14.2c0-.3-.6-.7-.6-.7,0,0-.6.4-.6.7s0,0,0,0v1.2h1.2v-1.2s0,0,0,0Z"/>
  <rect x="2.7" y="15.6" width="3.4" height="3.5"/>
  <rect x="2.4" y="15.2" width="3.7" height=".4"/>
  <rect x="17.9" y="15.6" width="3.4" height="3.5"/>
  <rect x="17.9" y="15.2" width="3.7" height=".4"/>
  <rect class="st1" x="9.7" y="11.1" width="4.6" height="1.5"/>
  <path d="M9.7,11.1c0-1.3,1-2.3,2.3-2.3s2.3,1,2.3,2.3"/>
  <polygon class="st1" points="8.1 12 5.8 12 5.6 11.6 8.1 11.6 8.1 12"/>
  <polygon class="st1" points="15.9 12 18.2 12 18.4 11.6 15.9 11.6 15.9 12"/>
  <path d="M15.9,11.6c0-.6.4-1,1-1s1,.4,1,1"/>
  <path d="M5.9,11.6c0-.6.4-1,1-1s1,.4,1,1"/>
  <path class="st0" d="M19.8,17.2c0-.2.3-.4.3-.4,0,0,.3.2.3.4s0,0,0,0v.7h-.7v-.7s0,0,0,0Z"/>
  <path class="st0" d="M18.7,17.2c0-.2.3-.4.3-.4,0,0,.3.2.3.4s0,0,0,0v.7h-.7v-.7s0,0,0,0Z"/>
  <path class="st0" d="M4.6,17.2c0-.2.3-.4.3-.4,0,0,.3.2.3.4s0,0,0,0v.7h-.7v-.7s0,0,0,0Z"/>
  <path class="st0" d="M3.5,17.2c0-.2.3-.4.3-.4,0,0,.3.2.3.4s0,0,0,0v.7h-.7v-.7s0,0,0,0Z"/>
  <g>
    <rect x="16" y="11.7" width="1.8" height="7.2"/>
    <polygon points="17.8 11.7 18.2 11.7 18.1 11.9 17.7 11.9 17.8 11.7"/>
  </g>
  <g>
    <rect x="6.2" y="11.7" width="1.8" height="7.2" transform="translate(14.3 30.6) rotate(-180)"/>
    <polygon points="6.2 11.7 5.8 11.7 5.9 11.9 6.3 11.9 6.2 11.7"/>
  </g>
  <rect x="2.7" y="19.1" width="18.6" height=".4"/>
  <g>
    <rect x="15.6" y="11.5" width="2.9" height=".7"/>
    <rect x="15.6" y="12" width="1.6" height=".6"/>
  </g>
  <g>
    <rect x="5.4" y="11.5" width="2.8" height=".7" transform="translate(13.6 23.6) rotate(-180)"/>
    <rect x="6.6" y="12" width="1.6" height=".6" transform="translate(14.8 24.7) rotate(-180)"/>
  </g>
</svg>