<?xml version="1.0" encoding="UTF-8"?>
<svg id="Layer_1" xmlns="http://www.w3.org/2000/svg" version="1.1" viewBox="0 0 24 24">
  <!-- Generator: Adobe Illustrator 29.0.1, SVG Export Plug-In . SVG Version: 2.1.0 Build 192)  -->
  <defs>
    <style>
      .st0 {
        fill: none;
        stroke: #000;
        stroke-miterlimit: 10;
        stroke-width: .1px;
      }
    </style>
  </defs>
  <g id="_x31_5983_-_Passport_Approved">
    <g>
      <path class="st0" d="M7.9,8.3c.3,0,.6,0,.9-.1,0-.6.2-1.4.4-2-.6.4-1,1.2-1.3,2.2h0Z"/>
      <path class="st0" d="M7.8,9c0,.3,0,.6,0,.9s0,.6,0,.9c.3,0,.6.1,1,.2,0-.3,0-.7,0-1.1s0-.7,0-1.1c-.3,0-.7,0-1,.2h0Z"/>
      <path class="st0" d="M6.2,8.9c.3-.2.6-.3,1-.4.2-.8.5-1.5.8-2.1-.9.5-1.6,1.4-1.9,2.5h0Z"/>
      <path class="st0" d="M6,9.9h0c0,.2.3.5,1,.7,0-.2,0-.5,0-.7s0-.5,0-.7c-.7.2-1,.5-1,.7Z"/>
      <path class="st0" d="M8,13.4c-.4-.5-.7-1.2-.8-2.1-.4-.1-.7-.2-1-.4.3,1,1,1.9,1.9,2.5Z"/>
      <path class="st0" d="M9.2,13.7c-.2-.6-.3-1.4-.4-2-.3,0-.6,0-.9-.1.3,1,.7,1.8,1.3,2.2h0Z"/>
      <path class="st0" d="M10.1,14c.2-.1.5-.8.6-2.3-.2,0-.4,0-.6,0s-.4,0-.6,0c.2,1.5.5,2.2.6,2.3Z"/>
      <path class="st0" d="M11,13.7c.6-.4,1-1.2,1.3-2.2-.3,0-.6,0-.9.1,0,.6-.2,1.4-.4,2Z"/>
      <path class="st0" d="M14.1,12.4c-.9,1.4-2.3,2.2-4,2.3h-.1c-1.2,0-2.4-.5-3.3-1.4-.9-.9-1.4-2.1-1.4-3.3h0c0-1.3.5-2.5,1.4-3.4.9-.9,2-1.4,3.3-1.4h0c.3,0,.6,0,.9,0,.2-.4.5-.8.8-1.1h-7.5v16.6h11.5v-8.2c-.2,0-.3,0-.5,0-.4,0-.8,0-1.2-.2h0ZM14.8,19.4c0,.2-.2.3-.3.3H5.7c-.2,0-.3-.2-.3-.3v-1.7c0-.2.2-.3.3-.3h8.8c.2,0,.3.2.3.3v1.7ZM14.5,16.3H5.7c-.2,0-.3-.2-.3-.3s.2-.3.3-.3h8.8c.2,0,.3.2.3.3,0,.2-.1.3-.3.3h0Z"/>
      <path class="st0" d="M6,18h8.2v1H6v-1Z"/>
      <path class="st0" d="M13.5,12.2c-.2,0-.4-.2-.6-.3-.2.6-.4,1.1-.7,1.5.5-.3,1-.7,1.3-1.2Z"/>
      <path class="st0" d="M10.1,8.8c-.2,0-.5,0-.7,0,0,.4,0,.7,0,1.1s0,.8,0,1.1c.5,0,1.1,0,1.6,0h0c.2,0,.4,0,.6,0-.6-.6-1-1.3-1.2-2.2-.2,0-.3,0-.4,0h0Z"/>
      <path class="st0" d="M10.5,6.6s0,0,0,0c0-.3.1-.5.2-.7-.2,0-.4,0-.6,0-.1,0-.5.8-.6,2.3.2,0,.4,0,.6,0s.2,0,.3,0c0-.2,0-.3,0-.5,0-.3,0-.6,0-.9t0,0Z"/>
      <path class="st0" d="M15.4,3.3c-.3,0-.5,0-.8,0h0c-2,.4-3.5,2.1-3.5,4.2s1.9,4.3,4.3,4.3,4.3-1.9,4.3-4.3c0-2.4-1.9-4.3-4.3-4.3h0ZM15.4,10.2c-1.4,0-2.6-1.2-2.6-2.6s1.2-2.6,2.6-2.6,2.6,1.2,2.6,2.6-1.2,2.6-2.6,2.6Z"/>
      <path class="st0" d="M16.2,6.6l-1.2,1.2-.4-.4c-.1-.1-.3-.1-.5,0-.1.1-.1.3,0,.5l.6.6c0,0,.1,0,.2,0s.2,0,.2,0l1.5-1.5c.1-.1.1-.3,0-.5-.1-.1-.3-.1-.5,0h0Z"/>
    </g>
  </g>
</svg>