<svg xmlns="http://www.w3.org/2000/svg" width="24" height="24"><path d="M0 16h24v8H0Zm0 0" style="stroke:none;fill-rule:nonzero;fill:#007e3c;fill-opacity:1"/><path d="M0 0h24v16H0Zm0 0" style="stroke:none;fill-rule:nonzero;fill:#df1a23;fill-opacity:1"/><path d="M0 0h24v8H0Zm0 0" style="stroke:none;fill-rule:nonzero;fill:#fff;fill-opacity:1"/><path d="M0 0h16v24H0Zm0 0" style="stroke:none;fill-rule:nonzero;fill:#df1a23;fill-opacity:1"/><path d="M4.762 4.11H6.05c.07 0 .129.05.129.12v.61c0 .07-.059.12-.13.12H4.763c-.07 0-.133-.05-.133-.12v-.61c0-.07.062-.12.133-.12m0 0" style="stroke:none;fill-rule:evenodd;fill:#fff;fill-opacity:1"/><path d="M6.05 4.96H4.763a.136.136 0 0 1-.14-.132v-.61c0-.07.058-.128.14-.128H6.05c.078 0 .14.058.14.129v.61c0 .07-.062.132-.14.132m-1.288-.85c-.07 0-.121.05-.121.109v.61c0 .062.05.112.12.112h1.29c.07 0 .12-.05.12-.113v-.61c0-.058-.05-.109-.12-.109Zm0 0" style="stroke:none;fill-rule:nonzero;fill:#db161b;fill-opacity:1"/><path d="M4.8 4.14h1.22c.07 0 .12.051.12.11v.559c0 .062-.05.113-.12.113H4.8c-.07 0-.12-.05-.12-.113V4.25c0-.059.05-.11.12-.11m0 0" style="stroke:none;fill-rule:evenodd;fill:#fff;fill-opacity:1"/><path d="M6.02 4.93H4.8c-.07 0-.128-.051-.128-.121V4.25c0-.059.058-.121.129-.121H6.02c.07 0 .128.05.128.121v.559c0 .062-.058.12-.128.12M4.8 4.148c-.062 0-.109.051-.109.102v.559c0 .062.047.101.11.101H6.02c.058 0 .109-.05.109-.101V4.25c0-.059-.05-.102-.11-.102Zm0 0" style="stroke:none;fill-rule:nonzero;fill:#db161b;fill-opacity:1"/><path d="M5.36 4.352h.07v.039l.058.03.051-.042.063.031-.051.031v.047h.078v.063h-.05l-.028.039.058.039-.05.043-.047-.043-.07.02v.062h-.083v-.05l-.078-.032-.043.043-.058-.031.03-.04-.038-.03h-.063v-.083h.051l.04-.047-.052-.043.063-.039.039.032h.07l.008-.04Zm0 0" style="stroke:none;fill-rule:evenodd;fill:#fff;fill-opacity:1"/><path d="M5.352 4.71v-.062l-.07-.027-.044.04-.066-.032.027-.04-.039-.019h-.058v-.09h.058l.04-.039-.052-.043.07-.046.044.027h.066l.012-.04h.082v.04l.058.031.051-.039.07.04-.062.038v.04h.082v.07H5.56l-.02.03.063.04-.051.043-.051-.043h-.07v.07h-.09Zm-.07-.089.07.027V4.7h.078v-.058l.082-.02.047.04.043-.032-.063-.04.031-.038h.051V4.5h-.07l-.02-.05.047-.028-.047-.031-.05.039-.07-.032v-.027H5.34v.027l-.09.012-.04-.031-.05.043.05.039-.05.05h-.05v.067h.05l.05.031-.03.04.05.023.04-.043Zm0 0" style="stroke:none;fill-rule:nonzero;fill:#db161b;fill-opacity:1"/><path d="M5.46 4.52c0-.04-.034-.07-.081-.07-.043 0-.078.03-.078.07 0 .039.035.07.078.07.047 0 .082-.031.082-.07m0 0" style="stroke:none;fill-rule:nonzero;fill:#fff;fill-opacity:1"/><path d="M5.379 4.621c-.059 0-.11-.043-.11-.101 0-.06.051-.098.11-.098.062 0 .11.039.11.098 0 .058-.048.101-.11.101m0-.14s-.05.019-.05.039.023.039.05.039c.031 0 .05-.02.05-.04 0-.019-.019-.039-.05-.039m0 0" style="stroke:none;fill-rule:nonzero;fill:#db161b;fill-opacity:1"/><path d="m4.871 4.18-.121.11m.2-.11-.122.11m.203-.11-.12.11m.198-.11-.12.11m.202-.11-.12.11m.199-.11-.122.11m.204-.11-.122.11m.2-.11-.121.11m.203-.11-.121.11m.199-.11-.121.11m.203-.11-.121.11m.199-.11-.121.11m-.2-.11-.12.11m.511-.11-.12.11m.198-.11-.117.11m.2-.11-.122.11m.2-.11-.118.11m0-.11.118.11m-.2-.11.121.11m-.199-.11.117.11m-.187-.11.117.11m-.2-.11.122.11m-.2-.11.122.11m-.203-.11.12.11m-.198-.11.12.11m-.202-.11.12.11m-.199-.11.122.11m-.204-.11.122.11m-.2-.11.121.11m.2-.11.12.11m-.523-.11.121.11m-.199-.11.121.11m-.203-.11.121.11m-.199-.11.121.11m0 .491-.121.11m.2-.11-.122.11m.203-.11-.12.11m.198-.11-.12.11m.202-.11-.12.11m.199-.11-.122.11m.204-.11-.122.11m.2-.11-.121.11m.203-.11-.121.11m.199-.11-.121.11m.203-.11-.121.11m.199-.11-.121.11m-.2-.11-.12.11m.511-.11-.12.11m.198-.11-.117.11m.2-.11-.122.11m.2-.11-.118.11m0-.11.118.11m-.2-.11.121.11m-.199-.11.117.11m-.187-.11.117.11m-.2-.11.122.11m-.2-.11.122.11m-.203-.11.12.11m-.198-.11.12.11m-.202-.11.12.11m-.199-.11.122.11m-.204-.11.122.11m-.2-.11.121.11m.2-.11.12.11m-.523-.11.121.11m-.199-.11.121.11m-.203-.11.121.11m-.199-.11.121.11" style="stroke:none;fill-rule:evenodd;fill:#fff;fill-opacity:1"/><path d="m6.059 4.89-.047-.05-.032.031h.008v.02H5.95l.012-.02-.031-.031-.032.031h.012v.02h-.039l.008-.02-.027-.031-.032.031h.008v.02H5.79l.012-.02-.031-.031-.032.031h.012v.02h-.04l.009-.02-.028-.031-.03.031h.01v.02h-.043l.013-.02-.032-.031-.03.031h.01v.02H5.55l.009-.02-.028-.031-.031.031h.012v.02h-.044l.012-.02-.03-.031-.028.031h.008v.02h-.04l.008-.02-.027-.031-.031.031h.012v.02h-.044l.012-.02-.03-.031-.028.031h.008v.02h-.04l.008-.02-.027-.031-.031.031h.011v.02h-.043l.012-.02-.031-.031-.027.031h.007v.02H5.07l.008-.02-.027-.031-.031.031h.011v.02h-.043L5 4.87l-.031-.031-.028.031h.008v.02H4.91l.012-.02-.031-.031-.032.031h.012v.02h-.043l.012-.02-.031-.031-.047.05.047-.062-.047-.047.047.04.03-.032h-.01v-.02h.043l-.013.02.032.031.03-.03h-.01v-.02h.039l-.009.02.028.03L5 4.79h-.012v-.02h.044l-.012.02.03.03.028-.03H5.07v-.02h.04l-.008.02.027.03.031-.03h-.012v-.02h.044l-.012.02.03.03.028-.03H5.23v-.02h.04l-.008.02.027.03.031-.03H5.31v-.02h.043l-.012.02.031.03.027-.03h-.007v-.02h.039l-.008.02.027.03.031-.03H5.47v-.02h.043l-.012.02.031.03.028-.03H5.55v-.02h.039l-.012.02.031.03.032-.03h-.012v-.02h.043l-.012.02.031.03.028-.03H5.71v-.02h.039l-.012.02.032.03.03-.03h-.01v-.02h.039l-.009.02.032.03.027-.03H5.87v-.02h.04l-.013.02.032.03.03-.03h-.01v-.02h.039l-.009.02.032.03.047-.05-.047.058.047.05ZM4.98 4.829l.032.031.027-.03-.027-.028Zm-.16 0 .032.031.027-.03-.027-.028Zm.078 0 .032.031.03-.03-.03-.028Zm.243 0 .03.031.028-.03-.027-.028Zm-.082 0 .03.031.032-.03L5.09 4.8Zm.64 0 .031.031.032-.03L5.73 4.8Zm-.32 0 .031.031.031-.03-.03-.028Zm.402 0 .028.031.03-.03-.03-.028Zm-.48 0 .027.031.031-.03-.03-.028Zm.629 0 .03.031.028-.03-.027-.028Zm-.309 0 .027.031.032-.03-.032-.028Zm-.082 0 .031.031.032-.03L5.57 4.8Zm-.078 0 .027.031.032-.03-.032-.028Zm.39 0 .028.031.031-.03L5.88 4.8Zm-.632 0 .031.031.031-.03L5.25 4.8Zm.84-.539-.047-.05-.032.03h.008v.02H5.95l.012-.02-.031-.03-.032.03h.012v.02h-.039l.008-.02-.027-.03-.032.03h.008v.02H5.79l.012-.02-.031-.03-.032.03h.012v.02h-.04l.009-.02-.028-.03-.03.03h.01v.02h-.043l.013-.02-.032-.03-.03.03h.01v.02H5.55l.009-.02-.028-.03-.031.03h.012v.02h-.044l.012-.02-.03-.03-.028.03h.008v.02h-.04l.008-.02-.027-.03-.031.03h.012v.02h-.044l.012-.02-.03-.03-.028.03h.008v.02h-.04l.008-.02-.027-.03-.031.03h.011v.02h-.043l.012-.02-.031-.03-.027.03h.007v.02H5.07l.008-.02-.027-.03-.031.03h.011v.02h-.043L5 4.27l-.031-.03-.028.03h.008v.02H4.91l.012-.02-.031-.03-.032.03h.012v.02h-.043l.012-.02-.031-.03-.047.05.047-.059-.047-.05.047.039.03-.028h-.01v-.02h.043l-.013.02.032.028.03-.028h-.01v-.02h.039l-.009.02.028.028L5 4.19h-.012v-.02h.044l-.012.02.03.028.028-.028H5.07v-.02h.04l-.008.02.027.028.031-.028h-.012v-.02h.044l-.012.02.03.028.028-.028H5.23v-.02h.04l-.008.02.027.028.031-.028H5.31v-.02h.043l-.012.02.031.028.027-.028h-.007v-.02h.039l-.008.02.027.028.031-.028H5.47v-.02h.043l-.012.02.031.028.028-.028H5.55v-.02h.039l-.012.02.031.028.032-.028h-.012v-.02h.043l-.012.02.031.028.028-.028H5.71v-.02h.039l-.012.02.032.028.03-.028h-.01v-.02h.039l-.009.02.032.028.027-.028H5.87v-.02h.04l-.013.02.032.028.03-.028h-.01v-.02h.039l-.009.02.032.028.047-.047-.047.058.047.051ZM4.98 4.23l.032.032.027-.032-.027-.03Zm-.16 0 .032.032.027-.032-.027-.03Zm.078 0 .032.032.03-.032-.03-.03Zm.243 0 .03.032.028-.032-.027-.03Zm-.082 0 .03.032.032-.032-.031-.03Zm.64 0 .031.032.032-.032-.032-.03Zm-.32 0 .031.032.031-.032-.03-.03Zm.402 0 .028.032.03-.032-.03-.03Zm-.48 0 .027.032.031-.032-.03-.03Zm.629 0 .03.032.028-.032-.027-.03Zm-.309 0 .027.032.032-.032-.032-.03Zm-.082 0 .031.032.032-.032-.032-.03Zm-.078 0 .027.032.032-.032-.032-.03Zm.39 0 .028.032.031-.032-.031-.03Zm-.632 0 .031.032.031-.032-.031-.03Zm0 0" style="stroke:none;fill-rule:nonzero;fill:#db161b;fill-opacity:1"/><path d="M11.238 4.11H9.95c-.07 0-.129.05-.129.12v.61c0 .07.059.12.13.12h1.288c.07 0 .133-.05.133-.12v-.61c0-.07-.062-.12-.133-.12m0 0" style="stroke:none;fill-rule:evenodd;fill:#fff;fill-opacity:1"/><path d="M11.238 4.96H9.95c-.078 0-.14-.062-.14-.132v-.61c0-.07.062-.128.14-.128h1.29c.081 0 .14.058.14.129v.61c0 .07-.059.132-.14.132M9.95 4.11c-.07 0-.12.05-.12.109v.61c0 .062.05.112.12.112h1.29c.07 0 .12-.05.12-.113v-.61c0-.058-.05-.109-.12-.109Zm0 0" style="stroke:none;fill-rule:nonzero;fill:#db161b;fill-opacity:1"/><path d="M11.2 4.14H9.98c-.07 0-.12.051-.12.11v.559c0 .062.05.113.12.113h1.22c.07 0 .12-.05.12-.113V4.25c0-.059-.05-.11-.12-.11m0 0" style="stroke:none;fill-rule:evenodd;fill:#fff;fill-opacity:1"/><path d="M11.2 4.93H9.98c-.07 0-.128-.051-.128-.121V4.25c0-.059.058-.121.128-.121h1.22c.07 0 .128.05.128.121v.559c0 .062-.058.12-.129.12m-1.22-.782c-.058 0-.109.051-.109.102v.559c0 .062.05.101.11.101h1.218c.063 0 .11-.05.11-.101V4.25c0-.059-.047-.102-.11-.102Zm0 0" style="stroke:none;fill-rule:nonzero;fill:#db161b;fill-opacity:1"/><path d="M10.64 4.352h-.07v.039l-.058.03-.051-.042-.063.031.051.031v.047h-.078v.063h.05l.028.039-.058.039.05.043.047-.043.07.02v.062h.083v-.05l.078-.032.043.043.058-.031-.03-.04.038-.03h.063v-.083h-.051l-.04-.047.052-.043-.063-.039-.039.032h-.07l-.008-.04Zm0 0" style="stroke:none;fill-rule:evenodd;fill:#fff;fill-opacity:1"/><path d="M10.648 4.71h-.09v-.062h-.07l-.047.032-.05-.04.058-.038-.02-.032h-.058V4.5h.07l.008-.04-.058-.038.07-.043.05.043.06-.031v-.04h.077v.028h.082l.04-.027.07.046-.05.043.038.04h.063v.078h-.063l-.039.02.031.042-.07.027-.04-.039-.062.032Zm-.078-.01h.07v-.052l.07-.027.04.04.05-.02-.03-.04.05-.03h.051V4.5h-.05l-.051-.05.05-.04-.05-.039-.04.027h-.082V4.36h-.07v.032l-.066.03-.051-.042-.05.031.05.031-.02.047h-.07v.051h.05l.028.04-.058.042.039.027.05-.039.079.02v.062Zm0 0" style="stroke:none;fill-rule:nonzero;fill:#db161b;fill-opacity:1"/><path d="M10.7 4.52c0-.04-.036-.07-.079-.07-.047 0-.082.03-.082.07 0 .039.035.07.082.07.043 0 .078-.031.078-.07m0 0" style="stroke:none;fill-rule:nonzero;fill:#fff;fill-opacity:1"/><path d="M10.621 4.621c-.062 0-.11-.043-.11-.101 0-.06.048-.098.11-.098.059 0 .11.039.11.098 0 .058-.051.101-.11.101m0-.14s-.05.019-.05.039.019.039.05.039c.027 0 .05-.02.05-.04 0-.019-.023-.039-.05-.039m0 0" style="stroke:none;fill-rule:nonzero;fill:#db161b;fill-opacity:1"/><path d="m11.129 4.18.121.11m-.2-.11.122.11m-.203-.11.12.11m-.198-.11.12.11m-.202-.11.12.11m-.199-.11.122.11m-.204-.11.122.11m-.2-.11.121.11m-.203-.11.121.11m-.199-.11.121.11m-.191-.11.12.11m-.198-.11.117.11m.191-.11.121.11m-.511-.11.12.11m-.198-.11.117.11m-.2-.11.122.11m-.2-.11.118.11m0-.11-.118.11m.2-.11-.121.11m.199-.11-.117.11m.199-.11-.121.11m.191-.11-.121.11m.2-.11-.122.11m.203-.11-.12.11m.198-.11-.12.11m.202-.11-.12.11m.199-.11-.122.11m.204-.11-.122.11m.2-.11-.121.11m-.2-.11-.12.11m.523-.11-.121.11m.199-.11-.121.11m.203-.11-.121.11m.199-.11-.121.11m0 .491.121.11m-.2-.11.122.11m-.203-.11.12.11m-.198-.11.12.11m-.202-.11.12.11m-.199-.11.122.11m-.204-.11.122.11m-.2-.11.121.11m-.203-.11.121.11m-.199-.11.121.11m-.191-.11.12.11m-.198-.11.117.11m.191-.11.121.11m-.511-.11.12.11m-.198-.11.117.11m-.2-.11.122.11m-.2-.11.118.11m0-.11-.118.11m.2-.11-.121.11m.199-.11-.117.11m.199-.11-.121.11m.191-.11-.121.11m.2-.11-.122.11m.203-.11-.12.11m.198-.11-.12.11m.202-.11-.12.11m.199-.11-.122.11m.204-.11-.122.11m.2-.11-.121.11m-.2-.11-.12.11m.523-.11-.121.11m.199-.11-.121.11m.203-.11-.121.11m.199-.11-.121.11" style="stroke:none;fill-rule:evenodd;fill:#fff;fill-opacity:1"/><path d="M10.05 4.89h-.039l.009-.019-.032-.031-.047.05.047-.062-.047-.047.047.04.032-.032h-.008v-.02h.039l-.012.02.031.031.032-.03h-.012v-.02h.039l-.008.02.027.03.032-.03h-.008v-.02h.039l-.012.02.031.03.032-.03h-.012v-.02h.04l-.009.02.028.03.03-.03h-.01v-.02h.043l-.013.02.032.03.03-.03h-.01v-.02h.039l-.009.02.028.03.031-.03h-.012v-.02h.044l-.012.02.03.03.028-.03h-.008v-.02h.04l-.008.02.027.03.031-.03h-.012v-.02h.044l-.012.02.03.03.028-.03h-.008v-.02h.04l-.008.02.027.03.031-.03h-.011v-.02h.043l-.012.02.031.03.027-.03h-.007v-.02h.039l-.008.02.027.03.031-.03h-.011v-.02h.043L11 4.79l.031.03.028-.03h-.008v-.02h.039l-.012.02.031.03.032-.03h-.012v-.02h.043l-.012.02.031.03.047-.05-.047.058.047.05-.047-.038-.03.031h.01v.02h-.043l.013-.02-.032-.031-.03.031h.01v.02h-.039l.009-.02-.028-.031L11 4.87h.012v.02h-.044l.012-.02-.03-.031-.028.031h.008v.02h-.04l.008-.02-.027-.031-.031.031h.012v.02h-.044l.012-.02-.03-.031-.028.031h.008v.02h-.04l.008-.02-.027-.031-.031.031h.011v.02h-.043l.012-.02-.031-.031-.027.031h.007v.02h-.039l.008-.02-.027-.031-.031.031h.011v.02h-.043l.012-.02-.031-.031-.028.031h.008v.02h-.039l.012-.02-.031-.031-.032.031h.012v.02h-.043l.012-.02-.031-.031-.028.031h.008v.02h-.039l.012-.02-.032-.031-.03.031h.01v.02h-.039l.009-.02-.032-.031-.027.031h.008v.02h-.04l.013-.02-.032-.031-.03.031h.01zm.99-.062.03.031.032-.03-.032-.028Zm-.08 0 .028.031.032-.03-.032-.028Zm.161 0 .027.031.032-.03-.032-.028Zm-.242 0 .031.031.031-.03-.03-.028Zm-.078 0 .027.031.031-.03-.03-.028Zm-.16 0 .03.031.028-.03-.027-.028Zm-.16 0 .03.031.028-.03-.027-.028Zm-.31 0 .028.031.031-.03-.03-.028Zm-.081 0 .031.031.027-.03-.027-.028Zm.469 0 .03.031.032-.03-.031-.028Zm-.547 0 .027.031.031-.03-.03-.028Zm.707 0 .031.031.031-.03-.031-.028Zm-.309 0 .031.031.028-.03-.028-.028Zm-.082 0 .031.031.032-.03-.032-.028Zm-.078 0 .031.031.028-.03-.028-.028Zm-.2-.539h-.039l.009-.02-.032-.03-.047.05.047-.059-.047-.05.047.039.032-.028h-.008v-.02h.039l-.012.02.031.028.032-.028h-.012v-.02h.039l-.008.02.027.028.032-.028h-.008v-.02h.039l-.012.02.031.028.032-.028h-.012v-.02h.04l-.009.02.028.028.03-.028h-.01v-.02h.043l-.013.02.032.028.03-.028h-.01v-.02h.039l-.009.02.028.028.031-.028h-.012v-.02h.044l-.012.02.03.028.028-.028h-.008v-.02h.04l-.008.02.027.028.031-.028h-.012v-.02h.044l-.012.02.03.028.028-.028h-.008v-.02h.04l-.008.02.027.028.031-.028h-.011v-.02h.043l-.012.02.031.028.027-.028h-.007v-.02h.039l-.008.02.027.028.031-.028h-.011v-.02h.043l-.012.02.031.028.028-.028h-.008v-.02h.039l-.012.02.031.028.032-.028h-.012v-.02h.043l-.012.02.031.028.047-.047-.047.058.047.051-.047-.043-.03.032h.01v.02h-.043l.013-.02-.032-.032-.03.032h.01v.02h-.039l.009-.02-.028-.032L11 4.27h.012v.02h-.044l.012-.02-.03-.032-.028.032h.008v.02h-.04l.008-.02-.027-.032-.031.032h.012v.02h-.044l.012-.02-.03-.032-.028.032h.008v.02h-.04l.008-.02-.027-.032-.031.032h.011v.02h-.043l.012-.02-.031-.032-.027.032h.007v.02h-.039l.008-.02-.027-.032-.031.032h.011v.02h-.043l.012-.02-.031-.032-.028.032h.008v.02h-.039l.012-.02-.031-.032-.032.032h.012v.02h-.043l.012-.02-.031-.032-.028.032h.008v.02h-.039l.012-.02-.032-.032-.03.032h.01v.02h-.039l.009-.02-.032-.032-.027.032h.008v.02h-.04l.013-.02-.032-.032-.03.032h.01zm.99-.059.03.032.032-.032-.032-.03Zm-.08 0 .028.032.032-.032-.032-.03Zm.161 0 .027.032.032-.032-.032-.03Zm-.242 0 .031.032.031-.032-.03-.03Zm-.078 0 .027.032.031-.032-.03-.03Zm-.16 0 .03.032.028-.032-.027-.03Zm-.16 0 .03.032.028-.032-.027-.03Zm-.31 0 .028.032.031-.032-.03-.03Zm-.081 0 .031.032.027-.032-.027-.03Zm.469 0 .03.032.032-.032-.031-.03Zm-.547 0 .027.032.031-.032-.03-.03Zm.707 0 .031.032.031-.032-.031-.03Zm-.309 0 .031.032.028-.032-.028-.03Zm-.082 0 .031.032.032-.032-.032-.03Zm-.078 0 .031.032.028-.032-.028-.03Zm0 0" style="stroke:none;fill-rule:nonzero;fill:#db161b;fill-opacity:1"/><path d="M7.059 5.879C5.14 7.762 4.309 8 4.699 8.149c.39.152 1.621-.82 2.91-2.11C8.9 4.75 9.691 3.602 9.301 3.45c-.39-.148-.2.43-2.25 2.43Zm0 0" style="stroke:none;fill-rule:evenodd;fill:#fff;fill-opacity:1"/><path d="M4.79 8.18s-.071 0-.099-.02c-.062-.02-.09-.05-.101-.09-.012-.09.14-.21.48-.468.399-.313 1.07-.84 1.98-1.73 1.11-1.083 1.56-1.75 1.81-2.11.21-.301.269-.39.449-.32.05.019.09.058.101.117.07.351-.648 1.351-1.789 2.492-.672.668-1.293 1.219-1.8 1.597C5.34 8 5 8.18 4.788 8.18M9.21 3.44c-.1 0-.17.09-.331.34-.238.36-.7 1.028-1.809 2.11-.91.89-1.582 1.418-1.98 1.73-.309.238-.48.379-.469.45 0 .03.027.05.09.07.348.14 1.488-.692 2.898-2.11C8.75 4.891 9.461 3.898 9.391 3.56c-.012-.047-.04-.09-.09-.098a.4.4 0 0 0-.102-.02Zm0 0" style="stroke:none;fill-rule:nonzero;fill:#db161b;fill-opacity:1"/><path d="m5.441 7.25.668.18c-.629.601-1.347.851-1.55.742-.2-.113.363-.352.87-.922Zm0 0" style="stroke:none;fill-rule:evenodd;fill:#fff;fill-opacity:1"/><path d="M4.691 8.2c-.05 0-.09 0-.12-.02-.032-.008-.04-.032-.04-.051 0-.07.11-.16.29-.309.167-.14.398-.32.62-.57l.688.18c-.29.28-.617.511-.938.648a1.2 1.2 0 0 1-.492.133Zm.75-.938c-.222.238-.453.43-.62.558-.173.14-.29.239-.29.301 0 .02.008.027.04.04.19.1.898-.141 1.53-.731Zm0 0" style="stroke:none;fill-rule:nonzero;fill:#db161b;fill-opacity:1"/><path d="M5.441 7.32 6 7.46c-.621.58-1.23.74-1.39.669s.331-.27.831-.809m0 0" style="stroke:none;fill-rule:evenodd;fill:#fff;fill-opacity:1"/><path d="M4.7 8.16s-.071 0-.09-.02c-.02 0-.032-.019-.032-.038 0-.051.082-.114.223-.223.168-.129.398-.309.64-.57l.57.14c-.53.5-1.062.7-1.3.7Zm.741-.832c-.242.262-.472.434-.64.563-.13.097-.223.168-.223.21 0 .008 0 .02.031.028.16.07.762-.098 1.371-.66Zm0 0" style="stroke:none;fill-rule:nonzero;fill:#db161b;fill-opacity:1"/><path d="M4.89 8s-.05 0-.07-.012h.078c.032 0 .051 0 .063-.027.008-.031.008-.031 0-.063-.02-.02-.012-.046 0-.078 0-.03.02-.05.039-.07.012-.012.031-.012.059-.012h.011c.032 0 .059.024.09.043 0 0 .02.008.031.02 0 0 .02.008.028.02.02 0 .031.007.05.019a.1.1 0 0 1-.019-.04v-.019s0-.031-.012-.043c0 0 0-.02-.008-.027 0 0 .008-.02.008-.031 0-.008.012-.02.024-.032v-.027c0-.012 0-.02.008-.043v-.02l.011.012c.008.02.02.032.059.032.031 0 .039 0 .05-.012 0-.031 0-.04-.03-.05 0 0 .038 0 .038.01a.1.1 0 0 1 .051.04c.012.012.012.031.02.05v.02s.011.05.02.07c.03 0 .042 0 .05-.011v-.047s0-.05.02-.07c.011-.024.03-.012.062-.012h.008c.031 0 .05-.012.07-.02h.02v-.03a.2.2 0 0 0-.047-.04s-.031-.02-.07-.02c-.032 0-.032.008-.043.02l-.02.012s-.059 0-.078-.012v-.031.043c.008.008.039.02.059 0L5.53 7.5c.008-.012.02-.02.047-.031.043 0 .05.011.07.02 0 0 .043.023.063.05 0 .012.008.031 0 .04 0 0-.012.01-.02.023a1 1 0 0 1-.082.027h-.02c-.019 0-.038 0-.05.012-.02.02-.02.03-.02.058v.051c-.019 0-.03.012-.07.012 0 0-.02-.063-.02-.082v-.02c0-.02 0-.039-.019-.05a.1.1 0 0 0-.05-.04v.032h-.008c-.024 0-.032.007-.063.007-.027 0-.05 0-.059-.02v.059l-.02.043s0 .02-.01.028v.02c0 .011.01.023.01.042v.02c0 .02 0 .027.02.039 0 0 .008.012.032.012h-.09c-.012 0-.024-.012-.031-.024 0 0-.02-.008-.02-.02-.031-.019-.062-.027-.082-.038h-.008c-.02 0-.043 0-.05.011 0 0-.032.028-.04.059v.07c.008.031.02.04 0 .07a.1.1 0 0 1-.07.032H4.86Zm1.02-.621h-.012V7.25q.002-.028-.007-.04s0-.03-.012-.03c0 0 0-.02-.008-.032h.008s.012.012.02.024a717.052 717.052 0 0 0 .043.04c.007-.001.019.007.027.018 0 0 .011 0 .02.008 0 0 .03.012.042.024h.097c.013 0 .02-.012.032-.024V7.23c0-.011.012-.03.02-.039v-.113h-.008s-.012 0-.024-.008h.024q.001-.002.02.008v.024s0 .02.007.027v.062s-.008.04-.02.047v.012h-.007s-.024.012-.031.02H6.02c-.02 0-.032 0-.051-.02 0 0-.008 0-.02-.012 0 0-.02-.008-.027-.02 0 0-.012-.007-.024-.019 0 0 .012.031.012.051v.11Zm.371-.3s-.031 0-.043-.009c0 0-.008 0-.02-.011q0 .002-.019-.008s-.02-.012-.02-.031h-.03s-.02.011-.02.02H6.12v-.02h.008S6.149 7 6.16 7q.02-.018.05 0c0 .012.02.02.02.031q.001-.002.02.008s.012 0 .02.012h.03c.009 0 .02 0 .028-.012 0 0 .012-.02.024-.02 0 0 .02-.019.02-.03q0-.002.019-.02v-.07s0-.008-.012-.02c0 0 0-.008-.008-.02V6.84c.008 0 .02 0 .027.012 0 0 .012.02.012.027v.012s.012.02.02.02v.01h.031c.02 0 .02 0 .039-.023v-.007s0-.012.012-.012v.019c-.024.024-.024.024-.051.024h-.039V6.91v.05l-.024.02s-.02.02-.02.032c0 0-.019.008-.019.02 0 0-.02.019-.039.019Zm.23-.208s-.011 0-.011-.012c-.012-.02-.02-.03-.031-.05v-.047c0-.024 0-.043.011-.063 0-.008.02-.027.032-.039 0 0 .027-.02.039-.031h.02c.007 0 .019 0 .038-.008h.07c.02 0 .06.02.071.02h-.192a.2.2 0 0 1-.038.03c-.008.009-.02.028-.032.04v.098c0 .02.012.03.032.05Zm.278-.27H6.77l.011-.011h.039v-.012s-.02-.02-.03-.039c-.02-.008-.02-.027-.02-.05V6.48s0-.02.02-.03c.01 0 .03-.009.038-.02 0 0 .031-.008.043-.02.008 0 .02-.012.027-.02h.024V6.38s.008-.008.008-.027V6.3c.011.02.02.02.039.027h.07v.012h-.07c-.02 0-.028-.012-.04-.02v.02c0 .02 0 .031-.019.039v.012s-.012 0-.02.007c0 0-.019.012-.03.024-.008 0-.032.02-.04.02 0 0-.03.007-.039.019 0 0-.011.008-.02.02v.007c0 .024 0 .032.02.043 0 .02.02.028.028.04v.007s.011.024 0 .024l-.02.007h-.02Zm.242-.363H6.89s.02-.008.032-.02H7l.012-.019.02-.02.019-.019c0-.02.02-.031.027-.039 0 0 .012 0 .024-.012 0 0 .02 0 .027-.02 0 0 .043-.01.07-.01h.07s.051.01.07.023c0 0 .02 0 .02.007v.012h-.007s-.012 0-.024-.012c-.02 0-.027-.007-.058-.02h-.13l-.03.02s-.02 0-.02.012c-.012 0-.02.02-.031.027 0 0-.008.012-.02.024l-.02.02c0 .007 0 .019-.007.019h.019s.008 0 0 .008Zm.239-.187h-.008v-.012c0-.008.008-.02.008-.039v-.04h.011V6s.008 0 .02.012l.02.02h.05c.02 0 .04-.02.05-.032.02 0 .028-.012.04-.031.008 0 .008 0 .02-.02v-.14h.007v.132c0 .008 0 .02-.02.028-.007.02-.019.02-.038.031-.008 0-.032.02-.051.031H7.32s-.02-.011-.02-.02c0 .02 0 .028-.019.04Zm0 0" style="stroke:none;fill-rule:nonzero;fill:#db161b;fill-opacity:1"/><path d="M9.262 4.191c.847-1.472 1.418-2.73 1.258-2.8S9.55 2.46 8.69 3.93l.559.261Zm0 0" style="stroke:none;fill-rule:evenodd;fill:#fff;fill-opacity:1"/><path d="m9.262 4.2-.582-.27c.761-1.32 1.66-2.64 1.84-2.551.011 0 .02.02.03.031.071.211-.491 1.399-1.288 2.781Zm-.551-.278.55.25c.778-1.352 1.34-2.563 1.278-2.762 0-.012 0-.02-.02-.02-.097-.05-.519.508-.64.688A25 25 0 0 0 8.71 3.922m0 0" style="stroke:none;fill-rule:nonzero;fill:#db161b;fill-opacity:1"/><path d="M9.2 4.16c.82-1.422 1.39-2.62 1.269-2.68-.117-.058-.89 1.051-1.719 2.47" style="stroke:none;fill-rule:evenodd;fill:#fff;fill-opacity:1"/><path d="M9.21 4.16H9.2c.769-1.34 1.331-2.5 1.28-2.66v-.012c-.109-.047-.82.934-1.71 2.473h-.008C9.5 2.68 10.34 1.41 10.488 1.48c0 0 .012.007.024.019.047.172-.5 1.32-1.282 2.672Zm0 0" style="stroke:none;fill-rule:nonzero;fill:#db161b;fill-opacity:1"/><path d="M9.059 3.422c-.098.168-.207.36-.309.527l.45.211c.1-.18.222-.37.312-.531Zm0 0" style="stroke:none;fill-rule:evenodd;fill:#fff;fill-opacity:1"/><path d="m9.2 4.172-.47-.223c.04-.07.07-.129.11-.199.07-.121.14-.238.2-.352l.472.211a4 4 0 0 1-.203.352c-.04.059-.07.129-.11.187Zm-.438-.223.43.2c.027-.06.07-.118.109-.18.07-.11.129-.23.187-.34l-.43-.2c-.058.11-.128.231-.199.34-.03.06-.07.122-.097.18m0 0" style="stroke:none;fill-rule:nonzero;fill:#db161b;fill-opacity:1"/><path d="M9.102 3.48c-.102.168-.172.29-.274.47l.344.16c.098-.18.18-.301.27-.47Zm0 0" style="stroke:none;fill-rule:evenodd;fill:#fff;fill-opacity:1"/><path d="m9.172 4.11-.352-.16c.032-.071.07-.122.102-.18.058-.098.11-.192.18-.301l.347.16c-.058.121-.12.223-.18.32-.03.051-.058.102-.097.16M8.84 3.94l.32.149a3 3 0 0 1 .09-.16l.172-.301-.32-.149c-.063.11-.122.2-.172.301a2 2 0 0 0-.09.16m0 0" style="stroke:none;fill-rule:nonzero;fill:#db161b;fill-opacity:1"/><path d="m9.34 3.672-.23-.102-.2.352.23.098Zm0 0" style="stroke:none;fill-rule:nonzero;fill:#fff;fill-opacity:1"/><path d="m9.148 4.031-.238-.11.211-.362.238.113Zm-.218-.12.21.1.188-.331-.207-.102Zm0 0" style="stroke:none;fill-rule:nonzero;fill:#db161b;fill-opacity:1"/><path d="m9.34 3.672-.43.238m.23.102-.03-.453m1.25-1.649-.231-.101" style="stroke:none;fill-rule:evenodd;fill:#fff;fill-opacity:1"/><path d="M9.129 4.012V3.8l-.207.11v-.02l.2-.121v-.22.212l.206-.114v.024l-.2.117Zm1.23-2.09-.23-.102V1.8l.23.098ZM10.422 1.676c-.008-.031-.047-.051-.082-.043-.04.008-.063.043-.055.074s.043.05.082.043c.035-.008.063-.043.055-.074m0 0" style="stroke:none;fill-rule:nonzero;fill:#db161b;fill-opacity:1"/><path d="M10.34 1.781s-.078-.02-.09-.062V1.66c.012-.02.031-.039.059-.039 0 0 .101.008.113.059v.058c-.012.024-.031.043-.063.043zm0-.12s-.02 0-.031.019v.02c0 .019.03.03.05.019.012 0 .02 0 .032-.02v-.02c0-.019-.032-.03-.051-.019m0 0" style="stroke:none;fill-rule:nonzero;fill:#db161b;fill-opacity:1"/><path d="M8.941 5.879c1.918 1.883 2.75 2.121 2.36 2.27-.39.152-1.621-.82-2.91-2.11C7.1 4.75 6.309 3.602 6.699 3.45c.39-.148.2.43 2.25 2.43Zm0 0" style="stroke:none;fill-rule:evenodd;fill:#fff;fill-opacity:1"/><path d="M11.21 8.18c-.21 0-.55-.18-1.03-.532-.508-.378-1.13-.93-1.801-1.597-1.14-1.14-1.86-2.14-1.79-2.492a.16.16 0 0 1 .102-.118c.18-.07.25.02.45.32.238.36.699 1.02 1.808 2.11.91.89 1.582 1.418 1.98 1.73.34.258.493.387.481.47 0 .038-.039.058-.101.09a.24.24 0 0 1-.098.019M6.79 3.44s-.06 0-.099.02q-.077.028-.09.098c-.07.34.649 1.332 1.778 2.472 1.312 1.309 2.39 2.117 2.82 2.117q.048.002.09-.007c.05-.02.082-.04.09-.07.012-.071-.16-.212-.469-.45-.398-.312-1.07-.84-1.98-1.73C7.82 4.8 7.37 4.14 7.12 3.78c-.172-.242-.23-.34-.332-.34m0 0" style="stroke:none;fill-rule:nonzero;fill:#db161b;fill-opacity:1"/><path d="m10.559 7.25-.668.18c.629.601 1.347.851 1.55.742.2-.113-.363-.352-.87-.922Zm0 0" style="stroke:none;fill-rule:evenodd;fill:#fff;fill-opacity:1"/><path d="M11.309 8.2c-.118 0-.297-.052-.489-.13a3.6 3.6 0 0 1-.941-.64l.691-.192c.22.25.45.434.621.57.18.153.297.243.29.313 0 .02-.02.04-.04.05-.03.02-.07.02-.12.02Zm-1.41-.77c.632.601 1.34.84 1.53.73.02-.012.04-.031.04-.039 0-.062-.117-.16-.29-.3-.167-.141-.398-.321-.62-.56Zm0 0" style="stroke:none;fill-rule:nonzero;fill:#db161b;fill-opacity:1"/><path d="M10.559 7.32 10 7.46c.621.58 1.23.74 1.39.669s-.331-.27-.831-.809m0 0" style="stroke:none;fill-rule:evenodd;fill:#fff;fill-opacity:1"/><path d="M11.3 8.16c-.241 0-.769-.191-1.3-.691l.57-.149c.239.258.47.442.64.57.142.11.231.18.22.22q.002.027-.032.038a.17.17 0 0 1-.09.024Zm-1.28-.691c.609.57 1.218.73 1.37.66.02 0 .032-.02.032-.027 0-.043-.094-.114-.223-.211a6 6 0 0 1-.64-.563Zm0 0" style="stroke:none;fill-rule:nonzero;fill:#db161b;fill-opacity:1"/><path d="M11.11 8h-.008a.1.1 0 0 1-.07-.031c-.02-.028-.012-.04 0-.07.019-.02.007-.04 0-.07 0-.028-.02-.048-.044-.06 0 0-.027-.007-.047-.007h-.011c-.02 0-.051.02-.078.039 0 0-.024.008-.024.02 0 0-.02.007-.027.019-.031.012-.051.02-.09.02 0 0 .02-.02.027-.02.012 0 .024-.02.024-.04v-.019c0-.02 0-.031.008-.043v-.02s0-.019-.008-.027c0-.011-.012-.02-.024-.03v-.059a.1.1 0 0 1-.058.02c-.032 0-.051 0-.059-.013h-.012v-.03s-.03.03-.05.042a.2.2 0 0 1-.02.05v.02s-.008.059-.02.079c-.03 0-.039 0-.07-.008V7.71s0-.05-.02-.07c-.007-.012-.03-.012-.05-.012h-.02a.1.1 0 0 1-.078-.027c-.011 0-.02 0-.02-.024V7.54c.02-.027.028-.039.06-.05 0 0 .038-.02.07-.028.03 0 .039.008.05.027l.008.012h.063v-.039.027c-.024.024-.051.024-.082.012 0 0-.008-.012-.02-.02 0 0-.02-.02-.039-.02a.13.13 0 0 0-.07.02s-.04.02-.051.04v.02h.02s.039.019.07.03h.012q.04-.002.058.008c.02.024.02.043.02.07v.063c.02 0 .03.008.05.008 0-.02.008-.047.02-.07v-.02c0-.02 0-.04.02-.05.011-.02.03-.028.05-.04 0-.008.032-.02.04-.027 0 0-.032.027-.032.058.024 0 .024.008.05.008.044 0 .044-.008.063-.027h.008c0 .02 0 .027.012.039v.031c0 .008.008.02.02.027 0 0 0 .024.007.032q.002.016-.008.03s0 .02-.011.04v.02c0 .02 0 .03-.02.039.02 0 .031 0 .051-.02q.016-.001.031-.02s.02-.007.028-.019a.4.4 0 0 1 .09-.04h.023c.027 0 .047 0 .058.009.02.011.032.031.04.07v.082c-.008.02-.008.027 0 .059q.016.018.058.02h.012c.02 0 .05 0 .07-.009l-.07.028Zm-1-.621h-.008v-.117c0-.024 0-.032.007-.043 0 0-.007.011-.02.02-.01 0-.019 0-.03.023 0 0-.008 0-.02.008 0 0-.027.02-.05.02H9.87s-.02-.009-.031-.02h-.012v-.008a.07.07 0 0 0-.02-.043v-.11s.012 0 .02-.007l.024-.012s-.012.02-.024.02H9.82v.1s0 .028.02.04v.012l.031.02h.098s.031 0 .043-.02c0 0 .008 0 .02-.012 0 0 .019-.012.027-.02l.02-.02s.01-.01.023-.019c0 0 .007-.02.02-.03h.007s0 .019-.008.03c0 0 0 .02-.012.028 0 0-.007.031-.007.05v.13Zm-.391-.3s-.028 0-.04-.009l-.019-.02-.02-.03S9.63 7.012 9.622 7v-.05.01H9.58s-.028 0-.048-.019V6.93h.008v.011c.012.008.012.008.04.008h.03v-.008s.012-.011.012-.02c0 0 0-.023.02-.03v-.012s.007-.008.03-.008v.02l-.01.02s0 .01-.013.019V7s0 .012.024.02c.008 0 .02.02.027.03 0 0 .012 0 .02.02 0 0 .02.02.043.02h.027s.012 0 .02-.012c0 0 .011 0 .02-.008q.002 0 .023-.03h.046s.024.01.024.019h.008-.008s-.012-.02-.024-.02h-.027c0 .012-.02.02-.02.031 0 0-.011 0-.023.008 0 0-.008 0-.02.012h-.007s-.02 0-.04.012Zm-.23-.208v-.02s.023-.03.03-.05V6.7c0-.009-.019-.02-.03-.04-.02 0-.028-.02-.04-.031h-.128s-.06.02-.071.02c0 0 .05-.028.07-.028h.07c.02 0 .032 0 .04.008h.02s.019.02.038.031v.012c.012.008.024.027.032.039 0 .02.011.039.011.059v.05c0 .02-.02.04-.031.051l-.012.008Zm-.278-.27h-.02c-.011 0-.02 0-.02-.011v-.02s.02-.02.028-.039c.012 0 .02-.02.02-.043V6.48s0-.011-.008-.02c-.012 0-.02-.01-.04-.019 0 0-.03-.011-.05-.03 0 0-.02 0-.031-.02 0 0-.012 0-.02-.012V6.37s-.011-.02-.02-.043v-.02s-.019.02-.038.02h-.07s0-.008.007-.008h.063c.02 0 .027-.011.039-.03v.05c0 .02 0 .02.008.031v.008h.02s.023.012.03.02c.012.011.032.023.04.023 0 0 .03.008.042.02.008 0 .02.019.02.027v.011c0 .02 0 .04-.02.051 0 .02-.02.028-.03.04v.007h.05s0 .012-.012.012h-.008Zm-.242-.363V6.23h.019l-.008-.02-.02-.019-.019-.02s-.011-.03-.03-.03c0 0-.013 0-.02-.012 0 0-.02 0-.032-.02h-.128s-.04 0-.06.02c0 0-.023 0-.023.012h-.007v-.012s.007 0 .02-.008c.019 0 .038-.012.07-.02h.14s.02.008.027.02c0 0 .024 0 .024.008.02 0 .02.02.027.043 0 0 .012.008.02.02 0 0 .011.007.02.019 0 0 0 .008.011.02h.109s-.02.007-.039 0H8.97Zm-.239-.187S8.72 6.02 8.71 6c0 0-.019.012-.019.02H8.63c-.02 0-.04-.02-.05-.032-.02 0-.028-.008-.04-.027-.02 0-.02-.02-.02-.031V5.8h.012v.129c0 .011 0 .02.02.02.008.019.02.019.039.03.012 0 .031.02.05.032h.051s.02-.012.02-.024c0 0 .008 0 .02-.008v-.05h.007v.058c0 .024 0 .024.012.043l-.012.008Zm0 0" style="stroke:none;fill-rule:nonzero;fill:#db161b;fill-opacity:1"/><path d="M6.738 4.191c-.847-1.472-1.418-2.73-1.258-2.8S6.45 2.46 7.31 3.93l-.559.261Zm0 0" style="stroke:none;fill-rule:evenodd;fill:#fff;fill-opacity:1"/><path d="M6.738 4.2C5.941 2.808 5.391 1.62 5.45 1.41q.001-.03.031-.031c.18-.078 1.079 1.23 1.84 2.543zM5.5 1.39h-.012l-.02.02c-.058.2.5 1.41 1.282 2.762l.55-.25C6.89 3.21 6.47 2.559 6.13 2.078c-.117-.168-.508-.687-.629-.687m0 0" style="stroke:none;fill-rule:nonzero;fill:#db161b;fill-opacity:1"/><path d="M6.8 4.16c-.82-1.422-1.39-2.62-1.269-2.68.117-.058.89 1.051 1.719 2.47" style="stroke:none;fill-rule:evenodd;fill:#fff;fill-opacity:1"/><path d="M6.79 4.16c-.778-1.351-1.33-2.5-1.278-2.672 0-.008 0-.02.02-.02.14-.07.988 1.212 1.73 2.481H7.25c-.89-1.527-1.602-2.508-1.71-2.46V1.5c-.052.16.51 1.328 1.28 2.66Zm0 0" style="stroke:none;fill-rule:nonzero;fill:#db161b;fill-opacity:1"/><path d="M6.941 3.422c.098.168.207.36.309.527l-.45.211c-.1-.18-.222-.37-.312-.531Zm0 0" style="stroke:none;fill-rule:evenodd;fill:#fff;fill-opacity:1"/><path d="M6.8 4.172c-.038-.07-.07-.133-.109-.192l-.203-.351.473-.219c.07.121.129.238.2.352.038.058.07.129.109.187zm-.3-.543c.059.11.129.23.2.34.038.062.07.12.109.18l.43-.2c-.028-.058-.067-.12-.098-.18-.07-.109-.13-.23-.2-.34l-.43.2Zm0 0" style="stroke:none;fill-rule:nonzero;fill:#db161b;fill-opacity:1"/><path d="M6.898 3.48c.102.168.172.29.274.47l-.344.16c-.098-.18-.18-.301-.27-.47Zm0 0" style="stroke:none;fill-rule:evenodd;fill:#fff;fill-opacity:1"/><path d="M6.84 4.11c-.031-.07-.07-.122-.102-.169-.058-.101-.11-.203-.18-.312l.352-.168c.07.117.121.21.18.309.031.05.058.109.101.171zm-.262-.47c.063.11.121.2.172.301q.045.069.09.16l.32-.152a3 3 0 0 0-.09-.16 9 9 0 0 1-.172-.3Zm0 0" style="stroke:none;fill-rule:nonzero;fill:#db161b;fill-opacity:1"/><path d="m6.66 3.672.23-.102.2.352-.23.098Zm0 0" style="stroke:none;fill-rule:nonzero;fill:#fff;fill-opacity:1"/><path d="m6.86 4.031-.212-.36.243-.112.21.363Zm-.188-.36L6.859 4l.211-.102-.191-.328Zm0 0" style="stroke:none;fill-rule:nonzero;fill:#db161b;fill-opacity:1"/><path d="m6.66 3.672.43.238m-.23.102.03-.453M5.64 1.91l.231-.101" style="stroke:none;fill-rule:evenodd;fill:#fff;fill-opacity:1"/><path d="M6.871 4.012h-.02l.008-.223-.21-.117v-.024l.21.114V3.55h.032v.219l.199.12v.02l-.211-.11v.212Zm-1.23-2.09v-.024l.218-.097v.02zM5.668 1.637c-.035-.008-.074.011-.082.043-.008.03.02.066.055.074.039.008.074-.012.082-.043.007-.031-.016-.066-.055-.074m0 0" style="stroke:none;fill-rule:nonzero;fill:#db161b;fill-opacity:1"/><path d="M5.66 1.781h-.02c-.03 0-.05-.02-.062-.043a.08.08 0 0 1 0-.058c.012-.04.063-.07.113-.059 0 0 .047.02.059.04q.018.028 0 .058c0 .043-.05.062-.09.062m-.012-.12s-.027 0-.027.019v.02s.02.019.027.019c.024 0 .043 0 .051-.02v-.02s-.02-.019-.027-.019H5.66Zm0 0" style="stroke:none;fill-rule:nonzero;fill:#db161b;fill-opacity:1"/><path d="M7.41 3.398c0 1.243 0 1.704-.082 1.774-.09.066-2.488 0-2.488.348 0 .351 1.98.71 2.582.71q1.185.001 1.187-1.058V3.398Zm0 0" style="stroke:none;fill-rule:evenodd;fill:#fff;fill-opacity:1"/><path d="M7.41 6.238c-.32 0-.969-.097-1.512-.218-.398-.09-1.07-.282-1.07-.489 0-.261 1.16-.3 1.922-.32.3-.012.55-.02.57-.04.078-.062.078-.48.078-1.51v-.263H8.61V5.18c0 .71-.398 1.07-1.199 1.07Zm.012-2.828v.238c0 1.063 0 1.461-.094 1.524-.027.02-.219.027-.578.039-.71.02-1.91.07-1.91.309 0 .34 1.93.699 2.57.699.39 0 .692-.09.89-.258.2-.172.29-.441.29-.79v-1.76Zm0 0" style="stroke:none;fill-rule:nonzero;fill:#db161b;fill-opacity:1"/><path d="M7.41 3.75v.18c.39.058.8.058 1.192 0v-.18c-.391.059-.801.059-1.192 0m0-.352v.18c.39.063.8.063 1.192 0v-.18c-.391.063-.801.063-1.192 0m0 0" style="stroke:none;fill-rule:evenodd;fill:#fff;fill-opacity:1"/><path d="M8.012 3.98q-.304.002-.602-.039V3.75c.39.059.79.059 1.192 0v.191A4.5 4.5 0 0 1 8 3.988Zm-.59-.058c.387.058.789.058 1.18 0v-.16a4 4 0 0 1-1.18 0Zm.59-.293a4 4 0 0 1-.602-.04V3.4c.39.062.79.062 1.192 0v.19c-.204.032-.403.052-.602.052Zm-.59-.059c.387.059.789.059 1.18 0v-.16a4 4 0 0 1-1.18 0Zm0 0" style="stroke:none;fill-rule:nonzero;fill:#db161b;fill-opacity:1"/><path d="M7.41 3.578v.184c.39.058.8.058 1.192 0v-.184c-.391.063-.801.063-1.192 0m0 .352v.18c.399.062.79.062 1.192 0v-.18c-.391.058-.801.058-1.192 0m0 0" style="stroke:none;fill-rule:evenodd;fill:#fff;fill-opacity:1"/><path d="M8.012 4.16q-.304 0-.602-.039V3.93c.39.058.79.058 1.192 0v.191q-.305.04-.602.04Zm-.59-.058c.387.058.789.058 1.18 0v-.16a4 4 0 0 1-1.18 0Zm.59-.301q-.304.001-.602-.04v-.19c.39.058.79.058 1.192 0v.19A4.5 4.5 0 0 1 8 3.81Zm-.59-.051c.387.059.789.059 1.18 0v-.16a4 4 0 0 1-1.18 0Zm0 0" style="stroke:none;fill-rule:nonzero;fill:#db161b;fill-opacity:1"/><path d="M7.512 3.68c0-.024-.024-.04-.051-.04s-.05.016-.05.04c0 .023.023.039.05.039s.05-.016.05-.04m0 0" style="stroke:none;fill-rule:nonzero;fill:#fff;fill-opacity:1"/><path d="M7.46 3.8c-.081 0-.14-.062-.14-.128 0-.07.059-.133.14-.133.08 0 .142.063.142.133 0 .066-.063.129-.141.129m0-.179s-.038.02-.038.05c0 .028.02.048.039.048.02 0 .039-.02.039-.047 0-.031-.02-.05-.04-.05m0 0" style="stroke:none;fill-rule:nonzero;fill:#db161b;fill-opacity:1"/><path d="M7.73 3.691c0-.023-.023-.043-.05-.043s-.051.02-.051.043c0 .02.023.04.05.04s.051-.02.051-.04m0 0" style="stroke:none;fill-rule:nonzero;fill:#fff;fill-opacity:1"/><path d="M7.68 3.82c-.078 0-.14-.058-.14-.129 0-.07.062-.132.14-.132.082 0 .14.062.14.132s-.058.13-.14.13m0-.18s-.04.02-.04.051c0 .028.02.047.04.047s.039-.02.039-.047c0-.03-.02-.05-.04-.05m0 0" style="stroke:none;fill-rule:nonzero;fill:#db161b;fill-opacity:1"/><path d="M7.95 3.71c0-.022-.024-.038-.052-.038s-.046.015-.046.039c0 .02.02.039.046.039.028 0 .051-.02.051-.04m0 0" style="stroke:none;fill-rule:nonzero;fill:#fff;fill-opacity:1"/><path d="M7.898 3.84c-.078 0-.136-.059-.136-.13 0-.07.058-.132.136-.132.082 0 .141.063.141.133s-.059.129-.14.129m0-.18s-.039.02-.039.05c0 .028.02.052.04.052.023 0 .042-.024.042-.051 0-.031-.02-.05-.043-.05m0 0" style="stroke:none;fill-rule:nonzero;fill:#db161b;fill-opacity:1"/><path d="M8.16 3.71c0-.022-.023-.038-.05-.038s-.051.015-.051.039c0 .02.023.039.05.039s.051-.02.051-.04m0 0" style="stroke:none;fill-rule:nonzero;fill:#fff;fill-opacity:1"/><path d="M8.11 3.84c-.079 0-.141-.059-.141-.13 0-.07.062-.132.14-.132.082 0 .141.063.141.133s-.059.129-.14.129m0-.18s-.04.02-.04.05c0 .028.02.052.04.052.019 0 .038-.024.038-.051 0-.031-.02-.05-.039-.05m0 0" style="stroke:none;fill-rule:nonzero;fill:#db161b;fill-opacity:1"/><path d="M8.379 3.691c0-.023-.02-.043-.05-.043-.028 0-.048.02-.048.043 0 .02.02.04.047.04.031 0 .05-.02.05-.04m0 0" style="stroke:none;fill-rule:nonzero;fill:#fff;fill-opacity:1"/><path d="M8.328 3.82c-.078 0-.137-.058-.137-.129 0-.07.059-.132.137-.132.082 0 .14.062.14.132s-.058.13-.14.13m0-.18s-.039.02-.039.051c0 .028.02.047.04.047.023 0 .042-.02.042-.047 0-.03-.02-.05-.043-.05m0 0" style="stroke:none;fill-rule:nonzero;fill:#db161b;fill-opacity:1"/><path d="M8.602 3.68c0-.024-.024-.04-.051-.04-.028 0-.051.016-.051.04 0 .023.023.039.05.039s.052-.016.052-.04m0 0" style="stroke:none;fill-rule:nonzero;fill:#fff;fill-opacity:1"/><path d="M8.55 3.8c-.081 0-.14-.062-.14-.128 0-.07.059-.133.14-.133.079 0 .141.063.141.133 0 .066-.062.129-.14.129m0-.179s-.038.02-.038.05c0 .028.02.048.039.048.02 0 .039-.02.039-.047 0-.031-.02-.05-.04-.05m0 0" style="stroke:none;fill-rule:nonzero;fill:#db161b;fill-opacity:1"/><path d="m7.41 4.281 1.192.95m-1.07-.95 1.07.848m-.91-.809.91.711m-.793-.71.793.6m-.672-.6.672.5m-.551-.5.558.39m-.449-.39.442.28m-.32-.28.32.21m-.204-.21.204.14m-.082-.14.082.07m-1.192 0 1.192.949m0-1.059L7.289 5.34M8.48 4.28 7.328 5.2m.992-.879-.91.711m.79-.71-.79.6m.68-.6-.668.5m.547-.5-.559.39m.442-.39-.442.28m.32-.28-.32.21m.2-.21-.2.14m.078-.14-.078.07m1.192 0L7.289 5.449m1.313-.96L7.289 5.55m1.313-.95-1.313 1.06m1.313-.95L7.289 5.77m1.313-.961L7.289 5.87m1.313-.95-1.313 1.06m1.313-.961L7.289 6.078m1.313-.95L7.289 6.192m1.313-.953-1.23.992m1.23-.89-1.114.879m1.07-.739-.867.711m.829-.562-.711.57m.632-.398-.363.277m-.668-1.59 1.149.922M7.41 4.602l1.149.918M7.41 4.71l1.11.88m-1.11-.781 1.11.882m-1.11-.77 1.07.849m-1.109-.782 1.07.852m-1.07-.738.988.777m-1.03-.707.991.777m-1.03-.71.948.741m-.949-.64.91.71m-.91-.6.79.64" style="stroke:none;fill-rule:evenodd;fill:#fff;fill-opacity:1"/><path d="m7.488 6.23.383-.308-.05-.043-.442.351.441-.359-.05-.043-.461.371.453-.379-.051-.039-.39.32.39-.331-.05-.04-.321.258.32-.27-.05-.038-.258.21.257-.218-.05-.043-.188.16.188-.168-.047-.043-.133.102.121-.11-.05-.039-.06.047.06-.058-.06-.051V5.46l.06-.05-.06-.052v-.007l.06-.051-.06-.051.06.04.05-.04-.059-.04h-.02.02l-.02-.019h.02l.047-.043-.039-.027.04.02.062-.04-.11-.081.04.02.05-.04-.062-.05V4.94l.062-.05-.062-.051v-.012l.062-.047-.062-.05v-.012l.062-.04-.062-.05V4.62l.07-.043-.039-.027h-.02.02l-.02-.02h.02l.059-.043-.04-.027-.039.027.04-.039-.04-.027V4.41l.06-.05-.06-.04.06.04h.01-.01l.038.038.05-.039-.05-.039.063.032h.007-.007l.039.039.05-.032H7.72v-.02h.031l-.012.02.043.032.047-.032H7.82v-.02h.032l-.012.02.05.032.051-.032H7.93v-.02h.039l-.008.02.05.04.048-.04H8.05v-.02h.039l-.012.02.05.032.052-.032h-.008v-.02h.027l-.008.02.047.032.043-.032H8.27v-.02h.03l-.01.02.05.032.039-.032H8.37v-.02h.008l.062-.03-.05.05.05.04.04-.028h-.012v-.02h.011l.06-.042-.06.062.06.05v.009l-.04.03.04.028-.04-.02-.04.032.06.04.02-.02-.02.02h.02v.019h-.02l-.04.02.06.042v.008l-.06.05.06.04v.011l-.06.051.06.04v.007l-.06.05.06.052v.011l-.06.047.06.051v.012l-.06.05.06.047v.012l-.06.05.06.052v.008l-.06.05.06.051v.008l-.06.05h.02v.032l-.02-.02-.058.04.058.05h.02-.02l.02.02h-.02l-.05.039.039.031-.04-.02-.05.04.062.039.04-.032-.04.043.04.028-.04-.02-.05.04.058.05-.07-.039-.05.04.062.05h.02-.02l.02.02h-.02l-.063.05-.047.04.02.019H8.27l-.051.043v.02l-.047.038.027.02-.027-.012-.082.063-.07-.051-.2.16.2-.172-.051-.039-.258.211.258-.219-.059-.05-.379.3Zm.543-.199.059.047.07-.058-.058-.051-.07.05Zm-.07-.05.05.039.067-.051-.047-.04Zm.148-.02.063.05.047-.042-.059-.047Zm-.218-.04.058.048.07-.047-.058-.05Zm.28-.01.06.05.05-.04-.062-.05Zm-.132.01.05.04.052-.04-.051-.042Zm.191-.062.06.051.05-.039-.059-.05Zm-.402.012.05.04.071-.052-.05-.039-.06.051Zm.14-.012.063.051.047-.039-.058-.05Zm.141 0 .051.04.05-.04-.05-.039Zm.192-.05.058.05.051-.039-.058-.05Zm-.54.011.048.04.062-.051-.05-.04Zm.41-.011.048.043.05-.043-.05-.04Zm-.14 0 .059.05.05-.039-.062-.05Zm-.133 0 .051.043L8 5.809l-.05-.04Zm-.199-.04.051.04.059-.047-.059-.043-.059.05Zm.39-.007.06.047.05-.04-.058-.05Zm.141 0 .051.039.047-.04-.047-.042Zm-.39 0 .05.039.051-.04-.05-.042Zm.129 0 .05.039.051-.04-.05-.042Zm-.34-.051.05.039.06-.05-.06-.04-.058.05Zm.66 0 .05.039.052-.04-.063-.038-.047.039Zm-.129-.012.059.051.05-.04-.058-.05Zm-.39.012.058.039.05-.04-.058-.038Zm.128 0 .051.039L8 5.71l-.05-.038Zm.133 0 .047.039.05-.04-.05-.038Zm-.46-.05.05.038.059-.05-.059-.04-.062.051Zm.788 0 .063.038.047-.039-.059-.039Zm-.14-.013.062.051.047-.039-.058-.05Zm-.52 0 .063.043.047-.043-.059-.039Zm.27 0 .05.043.051-.043-.05-.039Zm-.13 0 .06.043.05-.043-.058-.039Zm.25 0 .052.043.05-.043-.05-.039ZM7.5 5.61l.05.04.06-.047-.06-.043-.062.05Zm.79-.007.062.046.046-.039-.058-.05Zm-.392 0 .063.039.05-.04-.062-.042Zm-.257 0 .058.039.051-.04-.059-.042Zm.52 0 .05.039.05-.04-.05-.042Zm-.13 0 .047.039.05-.04-.05-.042Zm-.261 0 .058.039.05-.04-.058-.042Zm.582-.051.058.05.05-.042-.062-.047-.058.039Zm-.922 0 .05.039.06-.05-.06-.04-.058.05Zm.66 0 .05.039.051-.04-.05-.038Zm-.13 0 .06.039.05-.04-.058-.038Zm.259 0 .05.039.051-.04-.05-.038Zm-.39 0 .062.039.05-.04-.062-.038Zm-.259 0 .059.039.05-.04-.058-.038Zm.13 0 .062.039.047-.04-.059-.038ZM7.37 5.5l.05.04.06-.052-.06-.039-.062.051Zm1.05 0 .06.05.05-.038-.062-.051Zm-.39 0 .059.04.05-.04-.062-.04Zm.13 0 .05.04.05-.04-.05-.04Zm.128 0 .05.04.06-.04-.047-.04-.051.04Zm-.39 0 .062.04.05-.04-.05-.04-.05.04Zm-.399 0 .059.04.05-.04-.058-.04Zm.27 0 .058.04.05-.04-.058-.04Zm-.13 0 .06.04.05-.04-.059-.04Zm-.34-.05.052.038.058-.047-.058-.043-.063.051Zm.79 0 .058.038.051-.039-.05-.039-.047.04Zm.129 0 .05.038.051-.039-.05-.039Zm-.258 0 .05.038.048-.039-.047-.039Zm-.52 0 .059.038.05-.039-.062-.039-.058.04Zm.387 0 .063.038.05-.039-.05-.039-.051.04Zm.524 0 .046.038.051-.039-.05-.039Zm-.653 0 .063.038.047-.039-.059-.039Zm-.129 0 .059.038.05-.039-.058-.039Zm.578-.052.051.043.051-.043-.05-.039Zm-.128 0 .05.043.051-.043-.05-.039Zm.402 0 .047.043.062-.043-.05-.039-.051.04Zm-.531-.007.05.039.047-.04-.047-.038Zm-.52 0 .059.039.058-.04-.058-.038Zm.918 0 .05.039.052-.04-.051-.038Zm-.527 0 .058.039.051-.04-.05-.038-.051.039Zm-.133 0 .062.039.047-.04-.058-.038Zm-.129 0 .059.039.05-.04-.058-.038Zm.59-.051.05.039.051-.04-.05-.038Zm-.13 0 .052.039.047-.04-.047-.038Zm.392 0 .046.039.051-.04-.05-.038Zm-1.051 0 .058.039.063-.04-.063-.038Zm.918 0 .05.039.051-.04-.05-.038Zm-.39 0 .05.039.05-.04-.05-.038Zm-.13 0 .063.039.047-.04-.047-.038-.051.039Zm.781 0 .051.039.047-.04-.047-.038Zm-.91 0 .059.039.05-.04-.058-.038Zm-.129 0 .059.039.05-.04-.062-.038Zm.45-.05.05.038.047-.039-.047-.039Zm.129 0 .05.038.051-.039-.05-.039Zm.261 0 .047.038.05-.039-.05-.039Zm-.52 0 .048.038.05-.039-.05-.039Zm-.132 0 .062.038.047-.039-.047-.039-.05.04Zm.52 0 .05.038.051-.039-.05-.039Zm.273 0 .047.038.05-.039-.05-.039Zm-.922 0 .059.038.05-.039-.058-.039Zm-.129 0 .059.038.05-.039-.058-.039Zm.457-.052.05.043.052-.043-.051-.039Zm.133 0 .05.043.048-.043-.047-.039Zm.52 0 .05.043.047-.043-.047-.039Zm-.262 0 .05.043.051-.043-.05-.039Zm-.66 0 .062.043.05-.043-.05-.039-.05.04Zm.14 0 .051.043.05-.043-.05-.039Zm.39 0 .052.043.05-.043-.05-.039Zm-.66 0 .06.043.05-.043L7.48 5.2Zm.923 0 .046.043.051-.043L8.4 5.2Zm-.59-.047.047.04.05-.04-.05-.043Zm.129 0 .05.04.047-.04-.047-.043Zm-.391 0 .059.04.05-.04-.05-.043-.047.043Zm.91-.011.05.039.052-.04-.051-.038Zm-1.039 0 .059.039.05-.04-.058-.038Zm.777 0 .051.039.051-.04-.05-.038Zm-.52.011.052.04.05-.04-.05-.043Zm.392-.011.05.039.051-.04-.05-.038Zm.261 0 .047.039.05-.04-.05-.038Zm-.59-.051.047.043.051-.043-.05-.04Zm-.261 0 .058.043.051-.043-.059-.04-.058.04Zm.39 0 .051.043.05-.043-.05-.04Zm-.261 0 .05.043.051-.043-.05-.04Zm.53 0 .052.043.05-.043-.05-.04Zm.263 0 .046.043.051-.043-.05-.04Zm-.391 0 .05.043.048-.043-.047-.04Zm.52 0 .05.043.047-.043-.058-.04-.051.04Zm-.262 0 .05.043.051-.043-.05-.04Zm-.59-.05.05.042.051-.043-.05-.039Zm.133 0 .047.042.05-.043-.05-.039Zm-.262 0 .059.042.05-.043-.058-.039Zm.52 0 .05.042.051-.043-.05-.039Zm-.13 0 .051.042.047-.043-.047-.039Zm.391 0 .047.042.05-.043-.05-.039Zm.13 0 .05.042.05-.043-.05-.039Zm-.263 0 .051.042.051-.043-.05-.039Zm-.59-.048.063.04.05-.04-.05-.043-.05.043Zm.133 0 .047.04.051-.04-.05-.043Zm.27 0 .05.04.048-.04-.047-.043Zm-.14 0 .05.04.05-.04-.05-.043Zm-.4-.011.06.05.05-.039-.062-.05Zm.798.011.05.04.051-.04-.05-.043Zm-.13 0 .052.04.05-.04-.05-.043Zm.263 0 .046.04.051-.04-.05-.043Zm.128 0 .051.04.047-.04-.058-.043-.051.043Zm-.992-.062.063.05.05-.039-.062-.05-.059.039Zm.14.011.052.04.05-.04-.05-.039-.059.04Zm.134-.011.047.043.05-.043-.05-.04Zm.129 0 .05.043.047-.043-.047-.04Zm.257 0 .051.043.051-.043-.05-.04Zm-.128 0 .05.043.051-.043-.05-.04Zm.261 0 .047.043.05-.043-.05-.04Zm.13 0 .05.043.05-.043-.062-.04-.05.04Zm-.852-.047.062.047.059-.04-.059-.05Zm.132 0 .047.039.051-.04-.05-.042Zm.13 0 .05.039.05-.04-.05-.042Zm.269 0 .05.039.051-.04-.05-.042Zm.262 0 .046.039.051-.04-.058-.042-.051.043Zm-.391 0 .05.039.048-.04-.047-.042Zm.258 0 .05.039.051-.04-.058-.042-.051.043Zm.261 0 .06.039.062-.05-.063-.04-.05.04Zm-1.058 0 .058.039.06-.04-.06-.042Zm.2-.05.058.05.05-.043-.058-.04-.063.04Zm.14 0 .047.038.05-.039-.05-.043-.059.043Zm.52 0 .058.038.05-.039-.062-.043Zm.128 0 .059.038.05-.039-.058-.043Zm-.39 0 .05.038.051-.039-.05-.043Zm-.13 0 .051.038.047-.039-.047-.043Zm.258 0 .051.038.051-.039-.05-.043Zm-.66 0 .063.038.058-.039-.05-.043-.059.043Zm.203-.052.059.04.059-.04-.047-.039-.063.04Zm.649 0 .058.04.051-.04-.058-.039Zm-.121 0 .05.04.051-.04-.058-.039-.051.04Zm-.27 0L8 4.86l.05-.04L8 4.781Zm-.129 0 .051.04.05-.04-.05-.039Zm-.261 0 .05.04.063-.04-.05-.039Zm.53-.011.052.043.05-.043-.05-.04Zm.391.011.06.04.062-.051-.063-.04-.059.04ZM7.422 4.81l.058.05.06-.039-.06-.039-.058.04Zm.86-.04.058.04.05-.04-.062-.039Zm.128-.007.059.039.062-.04-.062-.042-.047.043Zm-.648 0 .047.039.05-.04-.05-.042-.059.043Zm.386 0L8.2 4.8l.051-.04-.059-.042-.05.043Zm-.52 0 .052.039.058-.04-.047-.042Zm-.14 0 .063.039.058-.04-.05-.042-.059.043Zm.403 0 .05.039.047-.04-.047-.042Zm.129 0 .05.039.051-.04-.05-.042Zm.19-.051.06.039.05-.04-.058-.038Zm.13 0 .058.039.051-.04-.058-.038Zm-.512 0 .05.039.052-.04-.051-.038-.059.039Zm-.27 0 .051.039.063-.04-.05-.038Zm.52 0 .05.039.052-.04-.059-.038-.05.039Zm-.387 0 .047.039.063-.04-.051-.038Zm.778 0 .062.039.059-.05-.059-.04Zm-.508 0 .05.039.048-.04-.047-.038Zm-.54 0 .06.05.058-.042-.059-.047Zm.849-.05.058.038.05-.039-.058-.039Zm-.13 0 .06.038.05-.039-.059-.039Zm-.511 0 .05.038.06-.039-.048-.039Zm.133 0 .047.038.062-.039-.05-.039Zm.648 0 .059.038.062-.05-.062-.04-.047.04Zm-.39 0 .05.038.051-.039-.05-.039Zm-.532 0 .063.038.058-.039-.05-.039-.059.04Zm.403 0 .05.038.047-.039-.047-.039Zm.32-.052.059.04.05-.04-.058-.039Zm-.133 0 .05.04.052-.04-.051-.039Zm.262 0 .058.04.051-.04-.058-.039Zm-.64 0 .05.04.059-.04-.047-.039Zm.26 0 .052.04.047-.04-.047-.039Zm-.401 0 .05.04.063-.04-.05-.039Zm.27 0 .05.04.05-.04-.05-.039Zm.64 0 .062.04.059-.047-.059-.043Zm-1.047-.007.058.046.06-.039-.06-.05Zm.598-.043.05.043.051-.043-.05-.04Zm.12 0 .051.043.047-.043-.047-.04Zm.13 0 .058.043.05-.043-.058-.04Zm-.38 0 .051.043.047-.043-.047-.04Zm-.261 0 .05.043.06-.043-.048-.04Zm.14 0 .051.043.051-.043-.05-.04Zm.63 0 .062.043.059-.051-.06-.04-.05.04ZM7.5 4.55l.059.05.062-.042-.05-.04-.06.04Zm.45-.031.05.039.05-.04L8 4.48Zm.128 0 .05.039.052-.04-.051-.039Zm-.25-.008.05.039.052-.04-.051-.042Zm.371 0 .051.039.05-.04-.05-.042Zm-.5 0 .051.039.05-.04-.05-.042Zm.63 0 .062.039.05-.04-.062-.042Zm-.759 0 .051.039.059-.04-.051-.042Zm.899 0 .062.039.04-.031-.06-.04Zm-1.02 0 .04.027.062-.039-.04-.031Zm.442-.043.05.043.047-.043-.047-.04Zm.129 0 .05.043.051-.043-.05-.04Zm.12 0 .051.043.047-.043-.047-.04Zm-.37-.008.05.039.051-.04-.05-.038Zm.5 0 .05.039.051-.04-.062-.038-.047.039Zm-.63 0 .051.039.047-.04-.047-.038Zm.75 0 .06.039.038-.031-.058-.04Zm-.87.008.039.031.062-.04-.043-.03Zm.44-.047.052.039.047-.04-.047-.042Zm-.132 0 .05.039.052-.04-.051-.042Zm.25 0 .05.039.052-.04-.051-.042Zm.371 0 .063.039.039-.031-.063-.04Zm-.98.008.043.03.058-.038-.039-.031Zm.73-.008.051.039.05-.04-.05-.03-.05.039Zm-.488 0 .05.039.048-.04-.047-.042-.051.031Zm.617-.012.063.04.039-.028-.051-.043-.04.031Zm-.738.012.039.027.05-.039-.038-.031Zm.91-.043.059.043.043-.031-.051-.051-.04.031Zm-1.078.012.039.03.059-.042-.04-.027-.05.046Zm.598-.012.05.043.051-.043-.05-.04Zm-.122 0 .051.043L8 4.379l-.05-.04Zm.243 0 .05.043.047-.043-.047-.027-.05.039ZM7.77 4.37l.05.04.051-.04-.05-.043-.051.031Zm.609 0 .05.04.04-.032-.047-.04Zm-.84.008.04.031.05-.039-.04-.031Zm.723-.008.047.027.043-.027L8.3 4.34Zm-.602 0 .04.027.05-.027-.04-.031Zm0 0" style="stroke:none;fill-rule:nonzero;fill:#db161b;fill-opacity:1"/><path d="M7.41 4.11v.18c.399.062.79.062 1.192 0v-.18a3.8 3.8 0 0 1-1.192 0m-.12 1.449.71.57m-.71-.469.632.488m-.633-.378.563.421m-.563-.32.402.32m-.402-.21.32.25m-.32-.141.2.14" style="stroke:none;fill-rule:evenodd;fill:#fff;fill-opacity:1"/><path d="m7.488 6.23-.199-.14.2.129Zm.114 0-.32-.25.32.239Zm.238-.03L7.28 5.78l.559.41Zm-.16 0-.399-.321.399.312Zm.242-.04-.633-.488.633.476ZM8 6.13l-.71-.57.71.55Zm.012-1.8a4 4 0 0 1-.602-.04v-.187c.39.058.79.058 1.192 0v.187c-.204.031-.403.04-.602.04Zm-.59-.048c.387.059.789.059 1.18 0v-.16a4 4 0 0 1-1.18 0Zm0 0" style="stroke:none;fill-rule:nonzero;fill:#db161b;fill-opacity:1"/><path d="M7.512 4.21c0-.022-.024-.038-.051-.038s-.05.016-.05.039c0 .02.023.039.05.039s.05-.02.05-.04m0 0" style="stroke:none;fill-rule:nonzero;fill:#fff;fill-opacity:1"/><path d="M7.46 4.328c-.081 0-.14-.058-.14-.129 0-.07.059-.129.14-.129.08 0 .142.059.142.13 0 .07-.063.128-.141.128m0-.18s-.038.024-.038.051c0 .031.02.051.039.051.02 0 .039-.02.039-.05 0-.028-.02-.052-.04-.052m0 0" style="stroke:none;fill-rule:nonzero;fill:#db161b;fill-opacity:1"/><path d="M7.73 4.23c0-.023-.023-.039-.05-.039s-.051.016-.051.04c0 .023.023.039.05.039s.051-.016.051-.04m0 0" style="stroke:none;fill-rule:nonzero;fill:#fff;fill-opacity:1"/><path d="M7.68 4.352c-.078 0-.14-.063-.14-.133s.062-.13.14-.13c.082 0 .14.06.14.13s-.058.133-.14.133m0-.18s-.04.02-.04.047c0 .031.02.05.04.05s.039-.019.039-.05c0-.028-.02-.047-.04-.047m0 0" style="stroke:none;fill-rule:nonzero;fill:#db161b;fill-opacity:1"/><path d="M7.95 4.238c0-.02-.024-.039-.052-.039s-.046.02-.046.04c0 .023.02.042.046.042.028 0 .051-.02.051-.043m0 0" style="stroke:none;fill-rule:nonzero;fill:#fff;fill-opacity:1"/><path d="M7.898 4.371a.135.135 0 0 1-.136-.133c0-.066.058-.129.136-.129.082 0 .141.063.141.13 0 .07-.059.132-.14.132m0-.18s-.039.02-.039.047c0 .032.02.051.04.051.023 0 .042-.02.042-.05 0-.028-.02-.048-.043-.048m0 0" style="stroke:none;fill-rule:nonzero;fill:#db161b;fill-opacity:1"/><path d="M8.16 4.238c0-.02-.023-.039-.05-.039s-.051.02-.051.04c0 .023.023.042.05.042s.051-.02.051-.043m0 0" style="stroke:none;fill-rule:nonzero;fill:#fff;fill-opacity:1"/><path d="M8.11 4.371c-.079 0-.141-.062-.141-.133 0-.066.062-.129.14-.129.082 0 .141.063.141.13 0 .07-.059.132-.14.132m0-.18s-.04.02-.04.047c0 .032.02.051.04.051.019 0 .038-.02.038-.05 0-.028-.02-.048-.039-.048m0 0" style="stroke:none;fill-rule:nonzero;fill:#db161b;fill-opacity:1"/><path d="M8.379 4.23c0-.023-.02-.039-.05-.039-.028 0-.048.016-.048.04 0 .023.02.039.047.039q.048-.002.05-.04m0 0" style="stroke:none;fill-rule:nonzero;fill:#fff;fill-opacity:1"/><path d="M8.328 4.352a.135.135 0 0 1-.137-.133c0-.07.059-.13.137-.13.082 0 .14.06.14.13s-.058.133-.14.133m0-.18s-.039.02-.039.047c0 .031.02.05.04.05.023 0 .042-.019.042-.05 0-.028-.02-.047-.043-.047m0 0" style="stroke:none;fill-rule:nonzero;fill:#db161b;fill-opacity:1"/><path d="M8.602 4.21c0-.022-.024-.038-.051-.038-.028 0-.051.016-.051.039 0 .02.023.039.05.039s.052-.02.052-.04m0 0" style="stroke:none;fill-rule:nonzero;fill:#fff;fill-opacity:1"/><path d="M8.55 4.328c-.081 0-.14-.058-.14-.129 0-.07.059-.129.14-.129.079 0 .141.059.141.13 0 .07-.062.128-.14.128m0-.18s-.038.024-.038.051c0 .031.02.051.039.051.02 0 .039-.02.039-.05 0-.028-.02-.052-.04-.052m0 0" style="stroke:none;fill-rule:nonzero;fill:#db161b;fill-opacity:1"/><path d="M5.71 5.941 7.14 5.2M5.63 5.91 6.98 5.2m-1.39.64 1.23-.64m-1.27.57 1.071-.57m-1.152.5.992-.5m-.95.39.669-.352m-.711.282.52-.282m-.52.172.36-.18m-.009.75 1.352-.71m-1.23.75 1.269-.668m-1.152.699 1.191-.64m-1.07.679.992-.531m-.832.53.87-.46m-.75.492.75-.39m-.632.43.594-.321m-.434.32.48-.25m-.32.281.32-.18m-.167.18.199-.113" style="stroke:none;fill-rule:evenodd;fill:#fff;fill-opacity:1"/><path d="m7.059 6.2.203-.122zm-.16 0 .32-.188zm-.16-.04.48-.262zm-.16 0 .593-.332zM6.46 6.13l.75-.399zm-.121-.04.87-.468zm-.16 0 .992-.538zm-.11-.03 1.192-.649zm-.12-.04 1.269-.68zm-.122-.03 1.352-.72zm-.117-.04 1.43-.758zm-.082-.027 1.351-.723zm-.04-.082L6.82 5.19zm-.038-.07 1.07-.579zm-.082-.07.992-.509zm.043-.098.668-.372zm-.043-.07.52-.302zm0-.11.36-.192zm0 0" style="stroke:none;fill-rule:nonzero;fill:#db161b;fill-opacity:1"/><path d="M7.328 5.172h-.2c-.07.348-.07.707 0 1.058h.2a2.8 2.8 0 0 1 0-1.058m-2.34.488.48-.351m-.48.101.48.418" style="stroke:none;fill-rule:evenodd;fill:#fff;fill-opacity:1"/><path d="M7.34 6.23h-.211q-.105-.54 0-1.07h.21q-.105.542 0 1.07m-.2-.011h.18a3.1 3.1 0 0 1 0-1.047h-.18c-.062.348-.062.7 0 1.047m-1.68-.38-.32-.288-.152.11.14-.122-.148-.129.149.121.32-.242-.32.25.32.281Zm0 0" style="stroke:none;fill-rule:nonzero;fill:#db161b;fill-opacity:1"/><path d="m5.71 5.238-.241.043c-.047.219-.047.41 0 .64l.242.067c-.05-.218-.05-.52 0-.738Zm0 0" style="stroke:none;fill-rule:evenodd;fill:#fff;fill-opacity:1"/><path d="m5.71 5.988-.25-.066c-.05-.23-.05-.422 0-.64l.25-.044c-.05.23-.05.524 0 .75m-.241-.09.23.07a1.8 1.8 0 0 1 0-.73l-.23.032c-.047.218-.047.41 0 .628m0 0" style="stroke:none;fill-rule:nonzero;fill:#db161b;fill-opacity:1"/><path d="M8.602 3.469v-.18c-.18 0-.301-.098-.301-.21h-.59c0 .112-.121.21-.3.21v.18Zm0 0" style="stroke:none;fill-rule:evenodd;fill:#fff;fill-opacity:1"/><path d="M8.61 3.48H7.397v-.19c.18 0 .293-.11.293-.2l.61-.012q0 .075.058.133c.051.05.141.078.23.078v.2Zm-1.188-.02H8.59V3.3a.32.32 0 0 1-.238-.09c-.043-.038-.063-.081-.063-.12h-.578c0 .101-.121.21-.3.21v.16Zm0 0" style="stroke:none;fill-rule:nonzero;fill:#db161b;fill-opacity:1"/><path d="M7.75 2.871h.512v.207H7.75Zm.04-.21h.42v.21h-.42Zm0-.22h.42v.207h-.42Zm0 0" style="stroke:none;fill-rule:nonzero;fill:#fff;fill-opacity:1"/><path d="M8.27 3.09h-.52v-.23h.04V2.44h.44v.418h.04Zm-.508-.02h.488v-.199h-.488Zm.039-.21h.41v-.2H7.8Zm0-.212h.41V2.45H7.8Zm0 0" style="stroke:none;fill-rule:nonzero;fill:#db161b;fill-opacity:1"/><path d="M7.84 2.16h.34v.281h-.34Zm0 0" style="stroke:none;fill-rule:nonzero;fill:#fff;fill-opacity:1"/><path d="M8.18 2.45h-.352v-.302h.352Zm-.34-.009h.332v-.27H7.84Zm0 0" style="stroke:none;fill-rule:nonzero;fill:#db161b;fill-opacity:1"/><path d="M7.82 1.91h.371v.25h-.37Zm0 0" style="stroke:none;fill-rule:nonzero;fill:#fff;fill-opacity:1"/><path d="M8.2 2.172h-.38V1.91h.38Zm-.372-.024h.352v-.226h-.352Zm0 0" style="stroke:none;fill-rule:nonzero;fill:#db161b;fill-opacity:1"/><path d="M8.52 1.68c0-.188-.22-.34-.489-.34-.273 0-.492.152-.492.34 0 .187.219.34.492.34.27 0 .489-.153.489-.34m0 0" style="stroke:none;fill-rule:nonzero;fill:#fff;fill-opacity:1"/><path d="M8.031 2.05c-.293 0-.52-.16-.52-.359 0-.203.227-.363.52-.363.29 0 .52.16.52.363 0 .2-.23.36-.52.36m0-.679c-.261 0-.472.14-.472.309 0 .172.21.308.472.308.258 0 .469-.136.469-.308 0-.168-.21-.309-.469-.309m0 0" style="stroke:none;fill-rule:nonzero;fill:#db161b;fill-opacity:1"/><path d="M8.27 1.672c0 .09.12.25.12.25a.7.7 0 0 1-.37.11c-.141 0-.301-.032-.372-.11 0 0 .122-.152.122-.25 0-.102-.122-.211-.122-.211a.68.68 0 0 1 .743 0s-.121.117-.121.21m0 0" style="stroke:none;fill-rule:evenodd;fill:#fff;fill-opacity:1"/><path d="M8.031 2.031c-.07 0-.293 0-.37-.11 0 0 .12-.151.12-.241s-.12-.211-.12-.211V1.46a.67.67 0 0 1 .37-.11c.13 0 .278.04.367.11v.008s-.117.12-.117.21.117.243.117.243v.008a.66.66 0 0 1-.367.11Zm-.36-.12c.079.089.29.1.36.1a.74.74 0 0 0 .36-.1c-.02-.032-.121-.161-.121-.25 0-.09.09-.18.12-.212a.7.7 0 0 0-.718 0c.027.031.117.13.117.211 0 .078-.098.219-.117.25m0 0" style="stroke:none;fill-rule:nonzero;fill:#db161b;fill-opacity:1"/><path d="M8.191 1.672c0 .09.118.277.118.277-.09.063-.149.07-.29.07s-.218.012-.289-.07c0 0 .122-.187.122-.277 0-.094-.122-.25-.122-.25.09-.063.149-.07.29-.07s.199 0 .289.07c0 0-.118.148-.118.25m0 0" style="stroke:none;fill-rule:evenodd;fill:#fff;fill-opacity:1"/><path d="M7.95 2.031c-.09 0-.16 0-.22-.07 0 0 .122-.191.122-.281S7.73 1.44 7.73 1.44V1.43c.09-.059.149-.07.29-.07s.199.011.289.07v.011s-.118.149-.118.239.118.28.118.28c-.09.06-.149.071-.29.071H7.95m-.2-.082c.05.07.129.07.238.063h.043c.13 0 .188 0 .278-.07-.02-.032-.118-.204-.118-.282 0-.082.098-.219.118-.25-.079-.058-.137-.07-.278-.07-.14 0-.191 0-.281.07.02.031.121.16.121.25s-.101.25-.121.281Zm0 0" style="stroke:none;fill-rule:nonzero;fill:#db161b;fill-opacity:1"/><path d="M7.648 1.7c0-.06-.05-.11-.117-.11-.066 0-.12.05-.12.11 0 .062.054.109.12.109.067 0 .117-.047.117-.11m0 0" style="stroke:none;fill-rule:nonzero;fill:#fff;fill-opacity:1"/><path d="M7.531 1.828c-.082 0-.152-.058-.152-.129 0-.07.07-.129.152-.129.078 0 .149.059.149.13 0 .07-.07.128-.149.128m0-.207c-.05 0-.101.04-.101.078 0 .04.039.082.101.082.059 0 .098-.043.098-.082s-.04-.078-.098-.078m0 0" style="stroke:none;fill-rule:nonzero;fill:#db161b;fill-opacity:1"/><path d="M8.64 1.7c0-.06-.054-.11-.12-.11-.067 0-.122.05-.122.11 0 .062.055.109.122.109.066 0 .12-.047.12-.11m0 0" style="stroke:none;fill-rule:nonzero;fill:#fff;fill-opacity:1"/><path d="M8.52 1.828c-.079 0-.149-.058-.149-.129 0-.07.07-.129.149-.129.082 0 .152.059.152.13 0 .07-.07.128-.152.128m0-.207c-.051 0-.098.04-.098.078 0 .04.039.082.098.082.058 0 .101-.043.101-.082s-.043-.078-.101-.078m0 0" style="stroke:none;fill-rule:nonzero;fill:#db161b;fill-opacity:1"/><path d="M8.148 1.7c0-.06-.05-.11-.117-.11-.066 0-.12.05-.12.11 0 .062.054.109.12.109.067 0 .117-.047.117-.11m0 0" style="stroke:none;fill-rule:nonzero;fill:#fff;fill-opacity:1"/><path d="M8.031 1.828c-.082 0-.152-.058-.152-.129 0-.07.07-.129.152-.129.078 0 .149.059.149.13 0 .07-.07.128-.149.128m0-.207c-.05 0-.101.04-.101.078 0 .04.039.082.101.082.059 0 .098-.043.098-.082s-.04-.078-.098-.078m0 0" style="stroke:none;fill-rule:nonzero;fill:#db161b;fill-opacity:1"/><path d="M8.148 1.352a.114.114 0 0 0-.117-.114c-.066 0-.12.051-.12.114 0 .058.054.109.12.109.067 0 .117-.05.117-.11m0 0" style="stroke:none;fill-rule:nonzero;fill:#fff;fill-opacity:1"/><path d="M8.031 1.48c-.082 0-.152-.058-.152-.128s.07-.133.152-.133c.078 0 .149.062.149.133 0 .07-.07.128-.149.128m0-.21c-.05 0-.101.039-.101.082 0 .039.039.078.101.078.059 0 .098-.04.098-.078 0-.043-.04-.082-.098-.082m0 0" style="stroke:none;fill-rule:nonzero;fill:#db161b;fill-opacity:1"/><path d="M7.8 3.36c0-.06-.058-.11-.128-.11-.074 0-.133.05-.133.11 0 .062.059.109.133.109.07 0 .129-.047.129-.11m0 0" style="stroke:none;fill-rule:nonzero;fill:#fff;fill-opacity:1"/><path d="M7.672 3.5c-.082 0-.152-.059-.152-.129s.07-.133.152-.133c.078 0 .148.063.148.133s-.07.129-.148.129m0-.219c-.063 0-.102.04-.102.078 0 .04.051.082.102.082.047 0 .098-.043.098-.082s-.051-.078-.098-.078m0 0" style="stroke:none;fill-rule:nonzero;fill:#db161b;fill-opacity:1"/><path d="M8.469 3.36c0-.06-.059-.11-.13-.11-.07 0-.128.05-.128.11 0 .062.059.109.129.109s.129-.047.129-.11m0 0" style="stroke:none;fill-rule:nonzero;fill:#fff;fill-opacity:1"/><path d="M8.34 3.5c-.078 0-.149-.059-.149-.129s.07-.133.149-.133c.082 0 .148.063.148.133s-.066.129-.148.129m0-.219c-.059 0-.102.04-.102.078 0 .04.051.082.102.082s.101-.043.101-.082-.05-.078-.101-.078m0 0" style="stroke:none;fill-rule:nonzero;fill:#db161b;fill-opacity:1"/><path d="M7.71 3.078h.59l-.3.32-.3-.32Zm0 0" style="stroke:none;fill-rule:evenodd;fill:#fff;fill-opacity:1"/><path d="m8.012 3.41-.313-.34h.63l-.31.34Zm-.293-.32.281.3.281-.3Zm0 0" style="stroke:none;fill-rule:nonzero;fill:#db161b;fill-opacity:1"/><path d="M8.18 3.328c0-.074-.075-.137-.168-.137s-.172.063-.172.137c0 .078.078.14.172.14s.168-.062.168-.14m0 0" style="stroke:none;fill-rule:nonzero;fill:#fff;fill-opacity:1"/><path d="M8.012 3.5c-.114 0-.203-.078-.203-.172 0-.09.09-.168.203-.168.11 0 .199.078.199.168 0 .094-.09.172-.2.172m0-.29c-.082 0-.14.052-.14.11s.058.11.14.11c.078 0 .136-.051.136-.11 0-.058-.058-.11-.136-.11m0 0" style="stroke:none;fill-rule:nonzero;fill:#db161b;fill-opacity:1"/><path d="M7.398 4.39h.813s.05.02.05.04v.14s-.023.04-.05.04h-.813s-.046-.02-.046-.04v-.14s.02-.04.046-.04m0 0" style="stroke:none;fill-rule:nonzero;fill:#fff;fill-opacity:1"/><path d="M8.21 4.61h-.812s-.058-.02-.058-.04v-.14s.031-.04.058-.04h.813s.059.02.059.04v.14s-.032.04-.06.04m-.812-.212s-.039.012-.039.032v.14s.02.032.04.032h.812s.039-.012.039-.032v-.14s-.02-.032-.04-.032Zm0 0" style="stroke:none;fill-rule:nonzero;fill:#db161b;fill-opacity:1"/><path d="M8.54 4.21c-.11 0-.2.08-.2.18v.16c0 .098.09.18.2.18.108 0 .198-.082.198-.18v-.16c0-.1-.09-.18-.199-.18m0 .071c-.071 0-.118.07-.118.149v.09c0 .082.047.152.117.152s.121-.07.121-.152v-.09c0-.078-.05-.149-.12-.149M7.511 4.25c-.07 0-.121.07-.121.148v.16c0 .083.05.153.12.153.067 0 .118-.07.118-.152v-.16c0-.079-.05-.149-.117-.149m0-.07c-.114 0-.203.082-.203.18v.23c0 .101.09.18.203.18.11 0 .199-.079.199-.18v-.23c0-.098-.09-.18-.2-.18m0 0" style="stroke:none;fill-rule:evenodd;fill:#fff;fill-opacity:1"/><path d="M7.512 4.781c-.114 0-.211-.09-.211-.191v-.23c0-.11.09-.188.21-.188.118 0 .208.09.208.187v.23c0 .11-.09.192-.207.192m0-.601c-.114 0-.192.082-.192.18v.23c0 .101.09.18.192.18.097 0 .187-.079.187-.18v-.23c0-.098-.09-.18-.187-.18m1.027.57c-.11 0-.21-.09-.21-.191v-.16c0-.11.093-.188.21-.188.121 0 .211.09.211.187v.16c0 .114-.09.192-.21.192m0-.531a.18.18 0 0 0-.187.18v.16c0 .101.09.18.187.18.102 0 .191-.079.191-.18v-.16c0-.098-.09-.18-.19-.18m-1.027.492c-.07 0-.133-.07-.133-.152v-.16c0-.09.062-.149.133-.149.066 0 .129.07.129.148v.16c0 .09-.063.153-.13.153m0-.461c-.063 0-.114.059-.114.14v.16c0 .079.051.141.114.141.058 0 .11-.062.11-.14v-.16c0-.082-.052-.141-.11-.141m1.027.43c-.07 0-.129-.07-.129-.149v-.09c0-.09.059-.152.13-.152.07 0 .132.07.132.152v.09c0 .09-.063.149-.133.149m0-.39c-.059 0-.11.062-.11.14v.09c0 .082.051.14.11.14.063 0 .11-.058.11-.14v-.09c0-.078-.047-.14-.11-.14m0 0" style="stroke:none;fill-rule:nonzero;fill:#db161b;fill-opacity:1"/><path d="M7.191 4.32c-.07 0-.12.07-.12.149v.043c0 .078.05.148.12.148s.118-.07.118-.148v-.043c0-.078-.047-.149-.118-.149m0-.07c-.113 0-.203.078-.203.18v.11c0 .1.09.179.203.179.11 0 .2-.078.2-.18v-.11c0-.1-.09-.179-.2-.179m0 0" style="stroke:none;fill-rule:evenodd;fill:#fff;fill-opacity:1"/><path d="M7.191 4.73c-.113 0-.21-.09-.21-.19v-.11c0-.11.09-.192.21-.192.118 0 .207.09.207.192v.11c0 .108-.09.19-.207.19m0-.48c-.113 0-.191.078-.191.18v.11c0 .1.09.179.191.179.098 0 .188-.078.188-.18v-.11c0-.1-.09-.179-.188-.179m0 .41c-.07 0-.132-.07-.132-.148v-.043c0-.09.062-.149.132-.149s.13.07.13.149v.043c0 .09-.06.148-.13.148m0-.34c-.062 0-.113.059-.113.14v.04c0 .078.05.14.113.14.059 0 .11-.062.11-.14v-.04c0-.081-.051-.14-.11-.14m0 0" style="stroke:none;fill-rule:nonzero;fill:#db161b;fill-opacity:1"/><path d="M6.719 4.219c-.117 0-.207.07-.207.172v.18c0 .09.097.167.207.167s.21-.066.21-.168v-.18c0-.09-.1-.171-.21-.171m0-.078c-.2 0-.36.09-.36.21v.258c0 .11.16.211.36.211.203 0 .36-.09.36-.21v-.258c0-.114-.157-.211-.36-.211m2.57.12c-.117 0-.21.067-.21.169v.18c0 .09.1.171.21.171s.211-.07.211-.172v-.18c0-.09-.102-.167-.21-.167m0-.081c-.2 0-.36.09-.36.21v.258c0 .114.16.211.36.211s.36-.09.36-.21V4.39c0-.11-.16-.211-.36-.211m0 0" style="stroke:none;fill-rule:evenodd;fill:#fff;fill-opacity:1"/><path d="M9.29 4.852c-.2 0-.36-.102-.36-.211v-.262c0-.117.16-.207.36-.207.198 0 .358.098.358.207v.262c0 .12-.16.21-.359.21m0-.672c-.188 0-.349.09-.349.199v.262c0 .109.16.199.348.199.191 0 .352-.09.352-.2V4.38c0-.11-.16-.2-.352-.2m-2.571.64c-.2 0-.36-.101-.36-.21v-.258c0-.122.16-.211.36-.211.203 0 .36.097.36.21v.258c0 .121-.157.211-.36.211m0-.672c-.188 0-.348.09-.348.204v.257c0 .11.16.2.348.2.191 0 .351-.09.351-.2v-.257c0-.114-.16-.204-.351-.204m2.57.633c-.117 0-.219-.082-.219-.172v-.18c0-.09.102-.167.22-.167.12 0 .222.078.222.168v.18c0 .09-.102.171-.223.171m0-.52c-.11 0-.21.067-.21.16v.18c0 .09.093.16.21.16.121 0 .211-.07.211-.16v-.18c0-.093-.09-.16-.21-.16m-2.57.477c-.117 0-.219-.078-.219-.168v-.18c0-.09.102-.171.219-.171.12 0 .222.082.222.172v.18c0 .09-.101.167-.222.167m0-.508c-.11 0-.207.07-.207.16v.18c0 .09.09.16.207.16.12 0 .21-.07.21-.16v-.18c0-.09-.09-.16-.21-.16m0 0" style="stroke:none;fill-rule:nonzero;fill:#db161b;fill-opacity:1"/><path d="M8.648 4.39h.422s.032.02.032.04v.14s-.012.04-.032.04h-.422s-.027-.02-.027-.04v-.14s.008-.04.027-.04m0 0" style="stroke:none;fill-rule:nonzero;fill:#fff;fill-opacity:1"/><path d="M9.07 4.61h-.422s-.027-.02-.027-.04v-.14s.008-.04.027-.04h.422s.032.02.032.04v.14s-.012.04-.032.04m-.422-.212s-.02.012-.02.032v.14s0 .032.02.032h.422s.02-.012.02-.032v-.14s0-.032-.02-.032Zm0 0" style="stroke:none;fill-rule:nonzero;fill:#db161b;fill-opacity:1"/><path d="M8.2 4.352h.25s.019.02.019.046v.18s0 .05-.02.05H8.2s-.02-.019-.02-.05v-.18s0-.046.02-.046m0 0" style="stroke:none;fill-rule:nonzero;fill:#fff;fill-opacity:1"/><path d="M8.45 4.64H8.2s-.02-.038-.02-.062v-.18s0-.058.02-.058h.25s.019.039.019.058v.18s0 .063-.02.063m-.25-.28v.261h.25V4.36Zm0 0" style="stroke:none;fill-rule:nonzero;fill:#db161b;fill-opacity:1"/><path d="M6.89 4.352h.25s.02.02.02.046v.18s0 .05-.02.05h-.25s-.019-.019-.019-.05v-.18s0-.046.02-.046m0 0" style="stroke:none;fill-rule:nonzero;fill:#fff;fill-opacity:1"/><path d="M7.14 4.64h-.25s-.019-.038-.019-.062v-.18s0-.058.02-.058h.25s.02.039.02.058v.18s0 .063-.02.063m-.25-.28v.261h.25V4.36Zm0 0" style="stroke:none;fill-rule:nonzero;fill:#db161b;fill-opacity:1"/><path d="M6.031 4.32h.5s.028.032.028.059v.23s-.008.063-.028.063h-.5S6 4.64 6 4.609v-.23s.012-.059.031-.059m0 0" style="stroke:none;fill-rule:nonzero;fill:#fff;fill-opacity:1"/><path d="M6.531 4.68h-.5s-.043-.032-.043-.07v-.231s.024-.07.043-.07h.5s.04.03.04.07v.23s-.02.07-.04.07m-.5-.36s-.02.02-.02.059v.23s.009.063.02.063h.5s.02-.024.02-.063v-.23s-.012-.059-.02-.059Zm0 0" style="stroke:none;fill-rule:nonzero;fill:#db161b;fill-opacity:1"/><path d="M9.48 4.352h.461s.028.027.028.058v.23s-.008.06-.028.06h-.46s-.032-.028-.032-.06v-.23s.012-.058.031-.058m0 0" style="stroke:none;fill-rule:nonzero;fill:#fff;fill-opacity:1"/><path d="M9.941 4.71h-.46s-.032-.03-.032-.07v-.23s.012-.07.031-.07h.461s.028.031.028.07v.23s-.008.07-.028.07m-.46-.35s-.02.019-.02.062v.226s.008.063.02.063h.46s.02-.02.02-.063v-.226s-.012-.063-.02-.063Zm0 0" style="stroke:none;fill-rule:nonzero;fill:#db161b;fill-opacity:1"/></svg>