<svg xmlns="http://www.w3.org/2000/svg" width="24" height="24"><defs><clipPath id="a"><path d="M12 0c6.629 0 12 5.371 12 12s-5.371 12-12 12S0 18.629 0 12 5.371 0 12 0m0 0"/></clipPath><clipPath id="b"><path d="M18 6.594h2.602V13H18Zm0 0"/></clipPath><clipPath id="c"><path d="M12 0c6.629 0 12 5.371 12 12s-5.371 12-12 12S0 18.629 0 12 5.371 0 12 0m0 0"/></clipPath><clipPath id="d"><path d="M19 6.594h1V8h-1Zm0 0"/></clipPath><clipPath id="e"><path d="M12 0c6.629 0 12 5.371 12 12s-5.371 12-12 12S0 18.629 0 12 5.371 0 12 0m0 0"/></clipPath><clipPath id="f"><path d="M19 8h1v2h-1Zm0 0"/></clipPath><clipPath id="g"><path d="M12 0c6.629 0 12 5.371 12 12s-5.371 12-12 12S0 18.629 0 12 5.371 0 12 0m0 0"/></clipPath><clipPath id="h"><path d="M17 9h1v2h-1Zm0 0"/></clipPath><clipPath id="i"><path d="M12 0c6.629 0 12 5.371 12 12s-5.371 12-12 12S0 18.629 0 12 5.371 0 12 0m0 0"/></clipPath><clipPath id="j"><path d="M10 6.594h1V8h-1Zm0 0"/></clipPath><clipPath id="k"><path d="M12 0c6.629 0 12 5.371 12 12s-5.371 12-12 12S0 18.629 0 12 5.371 0 12 0m0 0"/></clipPath><clipPath id="l"><path d="M5 6.594h1V8H5Zm0 0"/></clipPath><clipPath id="m"><path d="M12 0c6.629 0 12 5.371 12 12s-5.371 12-12 12S0 18.629 0 12 5.371 0 12 0m0 0"/></clipPath><clipPath id="n"><path d="M3.383 6.594H10V12H3.383Zm0 0"/></clipPath><clipPath id="o"><path d="M12 0c6.629 0 12 5.371 12 12s-5.371 12-12 12S0 18.629 0 12 5.371 0 12 0m0 0"/></clipPath><clipPath id="p"><path d="M16 6.594h2V12h-2Zm0 0"/></clipPath><clipPath id="q"><path d="M12 0c6.629 0 12 5.371 12 12s-5.371 12-12 12S0 18.629 0 12 5.371 0 12 0m0 0"/></clipPath><clipPath id="r"><path d="M14 8h2v2h-2Zm0 0"/></clipPath><clipPath id="s"><path d="M12 0c6.629 0 12 5.371 12 12s-5.371 12-12 12S0 18.629 0 12 5.371 0 12 0m0 0"/></clipPath><clipPath id="t"><path d="M13 9h2v2h-2Zm0 0"/></clipPath><clipPath id="u"><path d="M12 0c6.629 0 12 5.371 12 12s-5.371 12-12 12S0 18.629 0 12 5.371 0 12 0m0 0"/></clipPath><clipPath id="v"><path d="M10 11h2v2h-2Zm0 0"/></clipPath><clipPath id="w"><path d="M12 0c6.629 0 12 5.371 12 12s-5.371 12-12 12S0 18.629 0 12 5.371 0 12 0m0 0"/></clipPath><clipPath id="x"><path d="M16 7h1v2h-1Zm0 0"/></clipPath><clipPath id="y"><path d="M12 0c6.629 0 12 5.371 12 12s-5.371 12-12 12S0 18.629 0 12 5.371 0 12 0m0 0"/></clipPath><clipPath id="z"><path d="M16 9h1v2h-1Zm0 0"/></clipPath><clipPath id="A"><path d="M12 0c6.629 0 12 5.371 12 12s-5.371 12-12 12S0 18.629 0 12 5.371 0 12 0m0 0"/></clipPath><clipPath id="B"><path d="M17 7h1v2h-1Zm0 0"/></clipPath><clipPath id="C"><path d="M12 0c6.629 0 12 5.371 12 12s-5.371 12-12 12S0 18.629 0 12 5.371 0 12 0m0 0"/></clipPath><clipPath id="D"><path d="M7 10h1v2H7Zm0 0"/></clipPath><clipPath id="E"><path d="M12 0c6.629 0 12 5.371 12 12s-5.371 12-12 12S0 18.629 0 12 5.371 0 12 0m0 0"/></clipPath><clipPath id="F"><path d="M18 11h2v1h-2Zm0 0"/></clipPath><clipPath id="G"><path d="M12 0c6.629 0 12 5.371 12 12s-5.371 12-12 12S0 18.629 0 12 5.371 0 12 0m0 0"/></clipPath><clipPath id="H"><path d="M16 11h2v2h-2Zm0 0"/></clipPath><clipPath id="I"><path d="M12 0c6.629 0 12 5.371 12 12s-5.371 12-12 12S0 18.629 0 12 5.371 0 12 0m0 0"/></clipPath><clipPath id="J"><path d="M12 6.594h4V12h-4Zm0 0"/></clipPath><clipPath id="K"><path d="M12 0c6.629 0 12 5.371 12 12s-5.371 12-12 12S0 18.629 0 12 5.371 0 12 0m0 0"/></clipPath><clipPath id="L"><path d="M12 6.594h2V8h-2Zm0 0"/></clipPath><clipPath id="M"><path d="M12 0c6.629 0 12 5.371 12 12s-5.371 12-12 12S0 18.629 0 12 5.371 0 12 0m0 0"/></clipPath><clipPath id="N"><path d="M14 6.594h2V8h-2Zm0 0"/></clipPath><clipPath id="O"><path d="M12 0c6.629 0 12 5.371 12 12s-5.371 12-12 12S0 18.629 0 12 5.371 0 12 0m0 0"/></clipPath><clipPath id="P"><path d="M15 6.594h2V8h-2Zm0 0"/></clipPath><clipPath id="Q"><path d="M12 0c6.629 0 12 5.371 12 12s-5.371 12-12 12S0 18.629 0 12 5.371 0 12 0m0 0"/></clipPath><clipPath id="R"><path d="M14 7h2v1h-2Zm0 0"/></clipPath><clipPath id="S"><path d="M12 0c6.629 0 12 5.371 12 12s-5.371 12-12 12S0 18.629 0 12 5.371 0 12 0m0 0"/></clipPath><clipPath id="T"><path d="M11 6.594h1V8h-1Zm0 0"/></clipPath><clipPath id="U"><path d="M12 0c6.629 0 12 5.371 12 12s-5.371 12-12 12S0 18.629 0 12 5.371 0 12 0m0 0"/></clipPath><clipPath id="V"><path d="M12 11h3v2h-3Zm0 0"/></clipPath><clipPath id="W"><path d="M12 0c6.629 0 12 5.371 12 12s-5.371 12-12 12S0 18.629 0 12 5.371 0 12 0m0 0"/></clipPath><clipPath id="X"><path d="M6 8h9v5H6Zm0 0"/></clipPath><clipPath id="Y"><path d="M12 0c6.629 0 12 5.371 12 12s-5.371 12-12 12S0 18.629 0 12 5.371 0 12 0m0 0"/></clipPath><clipPath id="Z"><path d="M8 6.594h2V8H8Zm0 0"/></clipPath><clipPath id="aa"><path d="M12 0c6.629 0 12 5.371 12 12s-5.371 12-12 12S0 18.629 0 12 5.371 0 12 0m0 0"/></clipPath><clipPath id="ab"><path d="M11 8h3v2h-3Zm0 0"/></clipPath><clipPath id="ac"><path d="M12 0c6.629 0 12 5.371 12 12s-5.371 12-12 12S0 18.629 0 12 5.371 0 12 0m0 0"/></clipPath><clipPath id="ad"><path d="M8 6.594h5V9H8Zm0 0"/></clipPath><clipPath id="ae"><path d="M12 0c6.629 0 12 5.371 12 12s-5.371 12-12 12S0 18.629 0 12 5.371 0 12 0m0 0"/></clipPath><clipPath id="af"><path d="M3.383 6.594H5V8H3.383Zm0 0"/></clipPath><clipPath id="ag"><path d="M12 0c6.629 0 12 5.371 12 12s-5.371 12-12 12S0 18.629 0 12 5.371 0 12 0m0 0"/></clipPath><clipPath id="ah"><path d="M4 9h2v2H4Zm0 0"/></clipPath><clipPath id="ai"><path d="M12 0c6.629 0 12 5.371 12 12s-5.371 12-12 12S0 18.629 0 12 5.371 0 12 0m0 0"/></clipPath><clipPath id="aj"><path d="M3.383 9H5v1H3.383Zm0 0"/></clipPath><clipPath id="ak"><path d="M12 0c6.629 0 12 5.371 12 12s-5.371 12-12 12S0 18.629 0 12 5.371 0 12 0m0 0"/></clipPath><clipPath id="al"><path d="M13 6.594h7.602V13H13Zm0 0"/></clipPath><clipPath id="am"><path d="M12 0c6.629 0 12 5.371 12 12s-5.371 12-12 12S0 18.629 0 12 5.371 0 12 0m0 0"/></clipPath><clipPath id="an"><path d="M5 16h14v1.91H5Zm0 0"/></clipPath><clipPath id="ao"><path d="M12 0c6.629 0 12 5.371 12 12s-5.371 12-12 12S0 18.629 0 12 5.371 0 12 0m0 0"/></clipPath></defs><g clip-path="url(#a)"><path d="M0 0h24v24H0z" style="fill:#005430;fill-opacity:1;stroke:none"/></g><g clip-path="url(#b)"><g clip-path="url(#c)"><path d="M20.59 9.969c0-.406-.16-1.485-.203-1.856-.035-.363-.082-.691-.07-.77 0-.081.124.102.183.114.031 0 .023-.125-.047-.219-.035-.066-.168-.304-.25-.453-.031-.066-.043-.101-.066-.113-.024 0-.16.285-.149.32.047.055.07.09.07.192 0 .101.055.859.126 1.425.054.434.168 1.36.168 1.938 0 .195-.024.363-.047.441-.067.114-.168.227-.543.442-.418.25-.985.453-1.223.59-.148.09-.102.101.035.058.125-.035.805-.16 1.133-.297.305-.125.508-.351.656-.668.18-.394.203-.722.203-1.156" style="stroke:none;fill-rule:nonzero;fill:#fff;fill-opacity:1"/></g></g><g clip-path="url(#d)"><g clip-path="url(#e)"><path d="M19.297 6.91s.308-.02.375-.008c-.047.067-.375.215-.375.246 0 .024.226-.03.297-.066.043-.023.066-.066.101-.102.078-.09.168-.25.149-.273-.035-.035-.41-.012-.453 0-.036 0-.114.148-.125.195-.012.032 0 .032.03.02" style="stroke:none;fill-rule:nonzero;fill:#fff;fill-opacity:1"/></g></g><g clip-path="url(#f)"><g clip-path="url(#g)"><path d="M19.844 9.3a1.2 1.2 0 0 0 0-.655c-.082-.25-.274-.395-.41-.477l-.024.238s.195.102.328.34c.094.16.125.375.059.625 0 .055.035.024.055-.07" style="stroke:none;fill-rule:nonzero;fill:#fff;fill-opacity:1"/></g></g><g clip-path="url(#h)"><g clip-path="url(#i)"><path d="M17.758 10.504a1.1 1.1 0 0 0 0-.602c-.067-.226-.25-.363-.375-.43l-.024.216s.184.09.297.304c.078.137.114.34.047.567 0 .058.031.023.055-.055m0 0" style="stroke:none;fill-rule:nonzero;fill:#fff;fill-opacity:1"/></g></g><g clip-path="url(#j)"><g clip-path="url(#k)"><path d="M10.531 7.23a.8.8 0 0 1 .047.59c0 .055.031.02.055-.058.058-.18.066-.399 0-.633a.81.81 0 0 0-.399-.457l-.02.23s.192.09.317.328m0 0" style="stroke:none;fill-rule:nonzero;fill:#fff;fill-opacity:1"/></g></g><g clip-path="url(#l)"><g clip-path="url(#m)"><path d="M5.648 7.309c.067.16.067.375-.035.601-.02.055.035.031.082-.058.09-.168.133-.395.09-.633-.047-.25-.238-.422-.375-.512l-.066.227s.191.113.304.375m0 0" style="stroke:none;fill-rule:nonzero;fill:#fff;fill-opacity:1"/></g></g><g clip-path="url(#n)"><g clip-path="url(#o)"><path d="M6.996 10.875c.09-.156.125-.27.16-.465.032-.168.032-.36.02-.555.261-.101.566-.28.672-.293-.07.239.101.508.441.477.02.27.043.52.055.656.023.293.023.668.023.723 0 .07.047.059.09-.09.07-.191.078-.703.059-1.031 0-.078-.012-.192-.024-.328.227-.102.262-.305.34-.383.078.258.488.293.61.238.16-.07.206-.195.25-.488.046-.297-.079-.41-.126-.441 0 .03-.101.37-.101.37s.101.106.101.16c-.078.067-.246.079-.382.036C9.047 9.414 9 9.324 9 9.266c0-.055.059-.114.07-.18 0-.066-.035-.047-.09.012-.058.054-.093.113-.171.25-.067.113-.168.238-.352.27-.035-.317-.066-.657-.09-.86-.012-.113-.137-1.074-.137-1.188 0-.093-.023-.207-.023-.261 0-.047.023-.024.07.023a1 1 0 0 0 .125.113c.043-.023 0-.148-.058-.261-.055-.114-.239-.555-.27-.579-.023 0-.148.262-.148.317.023.035.066.09.066.238 0 .047.024.442.07.817.032.328.079.644.079.68.035.25.066.609.101.96-.203-.031-.25-.168-.25-.238 0-.078.047-.18.024-.203-.036-.024-.262.101-.578.238-.09.035-.192.078-.293.113-.024-.238-.07-.464-.082-.632V8.87a.63.63 0 0 0 .453-.215c.105-.125.172-.386.172-.578s-.16-.555-.192-.68a1 1 0 0 1-.059-.238c0-.043.09.047.149.07.035 0 .023-.082-.024-.136-.046-.059-.292-.442-.316-.41 0 .011-.113.296-.113.34.035.023.09.101.09.171 0 .067.058.375.125.543.054.172.191.489.203.578a.9.9 0 0 1-.52.168c-.035-.293-.082-.632-.101-.882v-.25c0-.043.03-.032.066 0 .047.046.102.105.113.105.024 0 0-.105-.054-.219-.059-.113-.285-.586-.32-.597-.02 0-.126.257-.126.304.024.035.07.09.082.239 0 .125.067.714.114 1.222-.203-.113-.285-.261-.309-.52-.02-.183-.02-.511-.078-.792a.8.8 0 0 0-.203-.399c-.024.059-.113.375-.113.375.035.09.125.395.125.668 0 .274-.024.532-.329.715-.304.18-.75.113-.863-.172-.113-.281.137-.984.137-1.156 0-.168-.031-.191-.102-.156-.066.023-.215.191-.34.453s-.18.59-.25.805c-.066.226-.18.441-.351.43-.168-.012-.258-.173-.316-.4a1.55 1.55 0 0 1 0-.609c.035-.191-.043-.16-.102.149-.035.191-.066.484.047.8.113.321.305.434.465.387.168-.046.316-.43.359-.601.059-.168.285-.95.41-.985.024.09-.101.375-.137.704-.035.328.047.77.465.847a.75.75 0 0 0 .805-.383c.102-.195.145-.386.156-.488.012.25.184.645.524.758h.03c.024.215.06.488.095.77-.07.023-.137.035-.196.058a.2.2 0 0 0-.03-.078c-.102-.215-.274-.422-.513-.41-.238.011-.496.34-.484.566 0 .16.09.285.406.317.149.011.293 0 .453-.032a.6.6 0 0 1 .036.192c-.106.113-.93.738-1.543.804-.622.055-.805-.261-.817-.59 0-.25.149-.495.25-.667.149-.114.274-.25.352-.352a.3.3 0 0 1 .058.035.23.23 0 0 1 .102.102c.012-.024.078-.137.055-.192-.012-.011-.067-.046-.137-.093.07-.18.07-.348-.02-.383-.101-.047-.238.078-.297.148a.17.17 0 0 0-.043.114c0 .043.02.09.079.12q.08.053.148.106c-.137.145-.453.348-.648.473 0-.02-.032 0-.079.047l-.054.035c-.16.09-.535.304-.602.351-.07.055-.023.043 0 .032.055-.024.125-.055.192-.102.113-.055.238-.113.363-.168a.9.9 0 0 0-.102.215c-.148.351-.386 1.062.125 1.496.485.418 1.336.258 2.04-.172.699-.43.847-.578.96-.734m-2.277-1.68s-.02-.043 0-.055c.023-.023.059-.046.094-.046.078-.012.113.082.078.214-.059-.03-.125-.078-.16-.101m1.597.578c-.363 0-.375-.066-.363-.102 0-.047.113-.16.262-.078a.9.9 0 0 1 .191.18h-.078M5.23 11.637c-.68.18-1.335-.106-1.37-.672-.036-.43.124-.758.226-.938.101-.047.191-.09.262-.136-.184.28-.285.668-.22.984.083.363.4.59.93.523.536-.07 1.258-.578 1.462-.773a1 1 0 0 0 .16-.258c.023-.058.054-.125.066-.203 0-.047.012-.105.012-.16.07-.024.125-.035.191-.059.024.227.035.465.035.66-.328.383-1.086.836-1.765 1.032" style="stroke:none;fill-rule:nonzero;fill:#fff;fill-opacity:1"/></g></g><g clip-path="url(#p)"><g clip-path="url(#q)"><path d="M17.02 10.152a36 36 0 0 0-.114-1.406c-.02-.305-.078-.734-.12-1.098V7.41c0-.047.042-.023.077.024.035.043.102.09.114.09.043-.024 0-.126-.07-.239-.055-.113-.282-.578-.317-.59-.024 0-.125.274-.137.317.024.035.07.082.082.238 0 .148.078.852.137 1.406.031.387.09 1.031.121 1.508 0 0 .035.453.035.508.024.297 0 .668 0 .726 0 .067.047.055.09-.09.059-.148.082-.476.094-.773v-.37Zm0 0" style="stroke:none;fill-rule:nonzero;fill:#fff;fill-opacity:1"/></g></g><g clip-path="url(#r)"><g clip-path="url(#s)"><path d="M15.105 8.828c-.066.02-.18-.058-.168-.207 0-.133.067-.27.09-.351.036-.114.036-.227 0-.157-.054.137-.168.407-.191.59-.024.18.031.293.113.34.102.043.168-.035.215-.148.047-.114.035-.239 0-.215-.023.035-.035.136-.066.148" style="stroke:none;fill-rule:nonzero;fill:#fff;fill-opacity:1"/></g></g><g clip-path="url(#t)"><g clip-path="url(#u)"><path d="M14.11 9.383c.035-.106.046-.195.023-.137-.067.113-.18.34-.215.496-.035.16 0 .262.078.309.082.043.149-.012.203-.114.047-.09.059-.214.024-.183-.024.023-.043.125-.078.125-.067.012-.149-.055-.137-.191.023-.126.078-.227.101-.305m0 0" style="stroke:none;fill-rule:nonzero;fill:#fff;fill-opacity:1"/></g></g><g clip-path="url(#v)"><g clip-path="url(#w)"><path d="M11.223 11.441c.054-.101.09-.203.043-.144-.09.113-.27.34-.352.508-.066.172-.043.297.012.351.082.07.172.012.25-.09.078-.09.101-.214.07-.203-.035.024-.082.125-.113.125-.07 0-.16-.093-.106-.238.047-.125.137-.238.184-.309" style="stroke:none;fill-rule:nonzero;fill:#fff;fill-opacity:1"/></g></g><g clip-path="url(#x)"><g clip-path="url(#y)"><path d="M16.297 8.543c-.07.023-.172-.055-.16-.215.011-.137.082-.262.113-.34.035-.113.047-.215.012-.16-.067.137-.192.399-.227.578-.035.184.024.297.09.34.102.059.172-.023.227-.137.058-.113.058-.234.023-.214-.031.035-.043.136-.078.148m0 0" style="stroke:none;fill-rule:nonzero;fill:#fff;fill-opacity:1"/></g></g><g clip-path="url(#z)"><g clip-path="url(#A)"><path d="M16.273 10.414c.09.055.172-.023.227-.137.059-.113.059-.238.023-.214-.035.03-.046.132-.078.144-.07.023-.172-.055-.16-.215.012-.137.078-.262.113-.34.036-.113.047-.214.012-.156-.07.133-.191.395-.226.578-.036.18.023.293.09.34m0 0" style="stroke:none;fill-rule:nonzero;fill:#fff;fill-opacity:1"/></g></g><g clip-path="url(#B)"><g clip-path="url(#C)"><path d="M17.496 8.023c.047-.136.059-.261.024-.195-.079.16-.239.477-.282.692-.047.214.02.363.114.421.113.067.203-.023.27-.16.07-.136.07-.293.023-.25-.036.035-.055.172-.102.184-.078.02-.215-.082-.191-.262.02-.172.101-.316.132-.422" style="stroke:none;fill-rule:nonzero;fill:#fff;fill-opacity:1"/></g></g><g clip-path="url(#D)"><g clip-path="url(#E)"><path d="M7.676 10.344c.078-.16.101-.328.047-.239-.125.192-.364.579-.442.84-.082.274-.023.453.09.532.137.09.262 0 .363-.168.102-.16.114-.364.055-.32-.043.046-.09.206-.148.218-.114.02-.258-.113-.203-.352.046-.207.171-.398.226-.511" style="stroke:none;fill-rule:nonzero;fill:#fff;fill-opacity:1"/></g></g><g clip-path="url(#F)"><g clip-path="url(#G)"><path d="M18.29 11.977c.058-.047.565-.32.66-.375 0 0 .09-.16.066-.172-.036-.008-.215.148-.328.16-.114 0-.274-.078-.274-.149.012-.054.148-.132.203-.132.047 0 .047.113.059.12.012.012.078-.077.09-.113 0-.03 0-.203-.09-.168-.149.036-.363.305-.387.387-.023.078.113.156.203.192 0 0-.078.035-.12.078 0 0-.048.058-.071.172" style="stroke:none;fill-rule:nonzero;fill:#fff;fill-opacity:1"/></g></g><g clip-path="url(#H)"><g clip-path="url(#I)"><path d="M16.566 12.316c.059-.046.57-.32.66-.375 0 0 .09-.16.067-.171-.035-.008-.215.148-.328.16-.113 0-.274-.078-.274-.149.012-.054.149-.133.207-.133.043 0 .043.114.055.122.012.011.078-.079.09-.114 0-.031 0-.203-.09-.168-.148.035-.363.305-.387.387-.02.078.114.156.207.191 0 0-.082.036-.125.079 0 0-.046.058-.07.171" style="stroke:none;fill-rule:nonzero;fill:#fff;fill-opacity:1"/></g></g><g clip-path="url(#J)"><g clip-path="url(#K)"><path d="M12.684 7.434s.34.43.578.668c.226.238.633.62.918.882q.08.072.18.16c.078.567.16 1.29.19 1.586.036.293.048.668.048.723 0 .07.043.059.09-.09.058-.191.066-.703.035-1.031-.024-.203-.07-.59-.114-.941.168.172.34.34.442.464.203.239.375.41.476.66.067.18.067.317.09.34.024.02.055-.195.024-.398-.059-.328-.125-.477-.555-.953a9 9 0 0 0-.547-.555c0-.054-.012-.101-.02-.144-.011-.114-.16-1.078-.171-1.18 0-.09-.024-.203-.024-.262 0-.043.024-.02.07.024a.7.7 0 0 0 .126.113c.043-.023 0-.148-.06-.262-.054-.113-.25-.554-.292-.566-.023 0-.137.273-.148.32.023.031.066.09.078.238 0 .043.035.442.09.813.046.328.093.648.105.68-.195-.168-.363-.328-.465-.418-.238-.215-.781-.746-.793-.817 0-.023.031 0 .113 0 .079.012.145.035.133 0 0-.023-.031-.054-.113-.101-.066-.043-.258-.157-.395-.25-.136-.078-.203-.145-.238-.133-.012 0 0 .293 0 .328.035 0 .09.043.137.102" style="stroke:none;fill-rule:nonzero;fill:#fff;fill-opacity:1"/></g></g><g clip-path="url(#L)"><g clip-path="url(#M)"><path d="M13.066 6.922c.059-.012.332 0 .434.012-.047.035-.32.171-.375.203-.059.035-.066.058-.047.047.082-.024.262-.047.34-.09.082-.035.219-.227.273-.297.059-.067.059-.102.047-.125-.058-.031-.41-.055-.578-.02-.047.032-.137.203-.16.239-.012.03 0 .03.066.02" style="stroke:none;fill-rule:nonzero;fill:#fff;fill-opacity:1"/></g></g><g clip-path="url(#N)"><g clip-path="url(#O)"><path d="M14.574 6.902s.262 0 .34.008c-.035.024-.262.137-.305.16-.046.024-.058.047-.035.047.07-.023.203-.047.285-.082.067-.031.18-.18.215-.238.043-.055.043-.078.031-.102-.043-.023-.328-.043-.46-.011a.6.6 0 0 0-.125.195c0 .031 0 .023.043.012" style="stroke:none;fill-rule:nonzero;fill:#fff;fill-opacity:1"/></g></g><g clip-path="url(#P)"><g clip-path="url(#Q)"><path d="M15.809 6.89s.261 0 .34.012c-.032.02-.262.133-.305.157-.047.023-.059.046-.035.046.07-.023.214-.046.296-.082.067-.03.145-.18.18-.238.047-.055.047-.078.035-.101a1.2 1.2 0 0 0-.441-.012.7.7 0 0 0-.125.195c-.012.035 0 .024.043.012" style="stroke:none;fill-rule:nonzero;fill:#fff;fill-opacity:1"/></g></g><g clip-path="url(#R)"><g clip-path="url(#S)"><path d="M15.04 7.488c-.067.114.023.207.058.297-.047.043-.114 0-.137-.035-.047-.078-.035-.227-.09-.25l-.023.09s.043.105.03.172c0 .047-.042.09-.089.09-.125 0-.066-.18-.113-.293 0 .02-.024.054-.035.078 0 .023.011.066.011.09v.136c0 .059.047.09.094.09.09 0 .133-.066.156-.137.012.07.149.137.203.059.082-.102.012-.191-.02-.297-.034-.066-.023-.121-.046-.101" style="stroke:none;fill-rule:nonzero;fill:#fff;fill-opacity:1"/></g></g><g clip-path="url(#T)"><g clip-path="url(#U)"><path d="M11.46 7.184s.032.078.067.078a.136.136 0 0 0 .137-.114c0 .059.113.125.168.059.082-.09.023-.172 0-.25-.02-.066-.012-.102-.031-.09-.07.09 0 .18.031.262-.043.031-.102 0-.113-.035-.031-.07-.02-.196-.067-.215l-.023.066s.035.09.023.149c0 .035-.047.078-.078.078-.113 0-.047-.16-.082-.262 0 .024-.02.047-.031.07v.192" style="stroke:none;fill-rule:nonzero;fill:#fff;fill-opacity:1"/></g></g><g clip-path="url(#V)"><g clip-path="url(#W)"><path d="M14.066 11.625s.036-.07.036-.113c0-.047-.059-.196-.137-.227-.094-.035-.149.043-.195.156h-.032s-.011.047-.023.082c0 .067-.024.102-.137.204a4 4 0 0 1-.59.375c-.191.09-.34.18-.383.203-.058.023-.035.035.008.023.059-.012.309-.101.41-.137.102-.046.227-.113.387-.214.168-.114.27-.215.305-.32l.035-.102s.066.035.168.058c.102.024.137.012.148 0m-.148-.215s.078.067.09.102a.5.5 0 0 1-.192-.047c.024-.043.067-.066.114-.055" style="stroke:none;fill-rule:nonzero;fill:#fff;fill-opacity:1"/></g></g><g clip-path="url(#X)"><g clip-path="url(#Y)"><path d="M12.922 11.727c-.149-.024-.524-.079-.625-.297.082-.114.43-.258.883-.383.441-.137.918-.305 1.043-.387h.078c.023-.066.136-.293.136-.34-.124 0-.894.07-1.234.082-.34.02-.996.008-1.223.008.137-.101.454-.281.907-.441.058-.02.113-.043.172-.055.03.066.066.137.066.191.035-.035.043-.125.043-.226a7 7 0 0 1 .465-.125c.035-.043.101-.25.113-.383-.043-.07-.156-.16-.27-.238-.148-.102-.316-.203-.476-.16-.227.058-.273.464-.215.554a1 1 0 0 0 .102.137c-.16.066-.34.137-.489.215-.34.184-.71.375-.824.555h-.035s-.078.316-.09.351c.067 0 .59 0 .95-.012.363-.011.68-.023.804-.023-.18.047-.668.227-.805.332-.132.102-.226.27-.226.543a1.35 1.35 0 0 1-.578-.441c-.227-.309-.18-.625-.27-1.043-.136-.602-.418-1.121-.59-1.27-.054.215-.066.375-.066.375s.227.484.328.805c.113.316.203.62.203.691-.09.203-.633.621-1.097.871-.434.239-.817.262-.954.09-.023-.035-.046-.066-.054-.113.054-.024.113-.055.18-.078.386-.184 1.074-.555 1.246-.75.168-.239.168-.567.066-.758s-.258-.406-.27-.488c0-.032.102.011.168.023.036 0 .012-.043-.054-.113a18 18 0 0 0-.352-.305c-.023-.023-.035 0-.047 0-.011.066-.043.227-.054.293v.035s.054.035.066.067c.023.058.078.214.191.41.106.191.262.418.274.52-.125.16-.758.5-1.383.78.035-.113.102-.25.184-.394.02-.023.043-.059.066-.09.059-.113.066-.25.035-.226-.035.03-.058.144-.09.144-.082.012-.183-.066-.16-.238.024-.145.102-.27.137-.36.043-.113.055-.226.023-.171-.082.136-.226.406-.273.601-.047.192 0 .317.078.363.035.02.059.02.09.02a2 2 0 0 0-.168.387c-.25.113-.488.215-.692.281-.726.262-1.234.41-1.597.523h-.012c.024-.078.024-.148 0-.125-.031.036-.055.149-.09.149-.078.008-.18-.07-.16-.238.024-.149.106-.274.137-.364.047-.113.058-.226.023-.172-.078.137-.226.41-.273.602-.043.191 0 .316.082.363.101.055.18-.011.25-.136l.02-.047s.058 0 .113-.02c.172-.035.578-.101 1.144-.172.422-.054.703-.168.988-.293v.09c.008.387.27.488.61.418.328-.066.793-.371 1.078-.578.293-.215.453-.406.496-.473.082-.16.102-.34.102-.433.023.238.046.558.273.84.203.261.621.613 1.414.62 0-.09-.031-.382-.031-.382m-.059-2.367c.114-.125.352-.047.535.113a2 2 0 0 0-.351.113c-.082-.101-.172-.191-.184-.226m0 0" style="stroke:none;fill-rule:nonzero;fill:#fff;fill-opacity:1"/></g></g><g clip-path="url(#Z)"><g clip-path="url(#aa)"><path d="M8.445 7.613s.203-.09.375-.191.328-.215.407-.293a.4.4 0 0 0 .07-.082c.047.023.09.047.101.058.036.012.079.032.102-.058s0-.145-.066-.227c-.047-.054-.125-.148-.184-.168-.043-.023-.078.09-.066.09h.043a.3.3 0 0 0-.122.192c0 .046 0 .07.102.101h.043c-.078.113-.238.215-.352.285a6 6 0 0 1-.43.274c-.054.031-.054.043-.034.043m.918-.746v-.047c.082.078.125.18.125.191-.032 0-.067-.02-.145-.055 0-.023.012-.046.02-.078m-.204-.011s.024-.059.079-.082c.058-.024.082.046.093.125l-.023.035-.059-.024s-.09-.023-.101-.054" style="stroke:none;fill-rule:nonzero;fill:#fff;fill-opacity:1"/></g></g><g clip-path="url(#ab)"><g clip-path="url(#ac)"><path d="M12.207 9.133c.078-.059.305-.215.441-.328.09-.082.192-.184.274-.285.043.035.09.058.125.078a.25.25 0 0 1 .101.105c.012-.023.079-.137.055-.195-.012-.024-.101-.067-.203-.125.047-.102.113-.281.023-.352-.078-.054-.214.035-.273.149-.055.101-.055.183.047.25.023.023.055.035.078.054a4 4 0 0 1-.406.375c-.16.137-.317.262-.34.297-.035-.094-.024-.148-.059-.113-.113.18.035.316.082.46-.07.071-.172 0-.218-.042-.079-.113-.043-.34-.133-.387-.024.07-.035.137-.035.137s.066.16.046.262c0 .066-.07.136-.136.136-.196 0-.102-.285-.172-.453a1 1 0 0 1-.043.121c.012.047.02.106.02.137v.203a.17.17 0 0 0 .136.149c.149.011.215-.102.238-.203.024.101.215.203.317.09.125-.157.023-.294-.031-.454v-.023q0 .002.09-.043m.554-.906c.047-.09.149-.102.18-.047.023.035.023.113 0 .191-.09-.055-.168-.113-.168-.133" style="stroke:none;fill-rule:nonzero;fill:#fff;fill-opacity:1"/></g></g><g clip-path="url(#ad)"><g clip-path="url(#ae)"><path d="M9.012 8.555c-.168-.012-.258-.172-.317-.399a1.55 1.55 0 0 1 0-.61c.012-.081-.066-.034-.101.145a1.54 1.54 0 0 0 .047.805c.113.32.304.434.46.387.172-.047.32-.43.364-.602.058-.168.285-.883.41-.93.02.094-.102.31-.137.637-.035.328.024.758.442.836a.75.75 0 0 0 .804-.383c.102-.191.149-.386.157-.488.011.25.183.645.523.758.328.113.566 0 .68-.133.101-.125.18-.387.18-.578 0-.195-.169-.555-.204-.68a1 1 0 0 1-.054-.238c0-.047.09.043.144.066.035 0 .024-.078-.023-.136-.043-.055-.293-.442-.317-.407 0 .012-.113.293-.113.34.047.024.09.102.09.172 0 .067.07.371.137.543.07.168.183.485.195.578-.125.078-.387.192-.649.078-.257-.113-.34-.273-.363-.543-.02-.183-.02-.511-.078-.793a.8.8 0 0 0-.203-.398 9 9 0 0 0-.113.375c.035.09.125.395.125.668s-.024.531-.328.715c-.31.18-.727.113-.84-.172-.114-.281.136-.918.136-1.086 0-.172-.035-.191-.101-.16-.07.023-.215.195-.34.453-.125.262-.184.523-.25.75s-.18.441-.352.43" style="stroke:none;fill-rule:nonzero;fill:#fff;fill-opacity:1"/></g></g><g clip-path="url(#af)"><g clip-path="url(#ag)"><path d="M3.996 7.582c.215-.012.395-.184.442-.219.042-.043.066-.101.035-.078-.25.215-.578.227-.59.195 0-.035.09-.105.226-.183a.7.7 0 0 0 .192-.168h.011c.09.02.204.066.239.031q.081-.084 0-.238a.64.64 0 0 0-.262-.203c-.101-.055-.113.035-.137.058-.011.02 0 .055.012.055a.5.5 0 0 0-.066.148v.079s.023.023.054.046H4.2a.9.9 0 0 1-.203.157c-.082.047-.183.136-.207.226-.031.094-.02.125.195.106m.395-.637v-.078c.07.043.172.144.172.191-.047 0-.125-.023-.203-.047 0-.02.02-.043.02-.078m-.192.024s0-.078.047-.102c.054-.035.09 0 .113.078 0 .024-.024.047-.047.07a1 1 0 0 1-.125-.046" style="stroke:none;fill-rule:nonzero;fill:#fff;fill-opacity:1"/></g></g><g clip-path="url(#ah)"><g clip-path="url(#ai)"><path d="M4.64 9.98c-.058.06-.077.227-.066.239.008 0 .203.078.235.09v-.055c.105.078.207.488.226.488.024 0 .059-.047.082-.16.024-.102.035-.25.055-.375.023-.113.047-.18.113-.191.07-.012.113.078.137.136 0 0 .047-.113.058-.183 0-.031-.113-.18-.207-.125-.09.047-.132.238-.156.363s-.035.273-.058.297c-.024-.102-.09-.297-.18-.399-.102-.113-.203-.156-.238-.136" style="stroke:none;fill-rule:nonzero;fill:#fff;fill-opacity:1"/></g></g><g clip-path="url(#aj)"><g clip-path="url(#ak)"><path d="M3.824 9.766c.078-.024.262-.043.34-.09.082-.035.215-.227.274-.293.054-.07.054-.106.042-.125-.054-.035-.406-.059-.578-.024-.043.036-.132.204-.156.239-.012.03 0 .03.055.023.058-.012.328 0 .433.008-.046.035-.32.172-.375.207-.058.031-.07.055-.046.043" style="stroke:none;fill-rule:nonzero;fill:#fff;fill-opacity:1"/></g></g><g clip-path="url(#al)"><g clip-path="url(#am)"><path d="M20.285 10.762c0-.203-.113-.52-.5-1.008a17 17 0 0 0-.52-.61c0-.082 0-.148-.011-.207-.024-.304-.113-.937-.149-1.312v-.25c0-.043.036-.031.067 0a1 1 0 0 0 .113.102c.024 0 0-.102-.055-.215-.058-.114-.273-.567-.304-.578-.024 0-.125.261-.125.308.023.031.066.09.078.238 0 .145.09 1.04.148 1.594v.035c-.297-.328-.566-.632-.68-.746l-.07-.07c-.02-.145-.03-.293-.043-.406v-.25c0-.043.032-.035.067 0a.6.6 0 0 0 .113.101c.023 0 0-.101-.055-.215-.058-.113-.273-.578-.32-.59-.02 0-.121.274-.133.329.02.035.067.093.078.238 0 .07.024.262.047.5-.195-.238-.386-.477-.398-.52 0-.023.035 0 .113 0 .078.008.149.032.137 0q.002-.034-.113-.105c-.07-.043-.262-.156-.399-.246-.133-.082-.203-.149-.238-.137-.008 0 0 .293 0 .328.035 0 .105.035.137.078.046.059.308.43.523.68.055.07.156.184.27.317.023.238.046.476.07.68.043.464.191 1.667.203 2.062-.113.101-.352.261-.59.261s-.375-.058-.465-.238c-.035-.055-.054-.113-.078-.16a.34.34 0 0 0-.351-.156h-.024l-.035.023a.9.9 0 0 0-.293.258c-.168.227-.273.465-.395.68-.125.215-.226.363-.453.328-.16-.02-.285-.156-.351-.328.203-.145.36-.328.465-.586.144-.34.191-.715.18-1.145-.012-.41-.192-1.347-.25-1.71-.044-.364-.114-.657-.114-.739 0-.078.125.102.191.113.036 0 .012-.125-.043-.215-.046-.066-.171-.363-.25-.496-.035-.07-.046-.105-.066-.113-.023 0-.16.281-.137.316a.3.3 0 0 1 .078.192c0 .101.102.871.192 1.45.07.429.207 1.214.219 1.788 0 .195-.024.332-.047.399-.059.113-.16.25-.5.488-.055-.34 0-.625-.043-.649-.059 0-.07.172-.07.364 0 .09 0 .215.023.351-.418.285-.973.532-1.234.668-.149.078-.102.102.035.059.125-.047.836-.227 1.222-.434l.047-.02c.02.067.043.134.067.192.125.262.304.418.507.406.172-.011.286-.191.399-.406.101-.215.281-.625.465-.77a1 1 0 0 1 .203-.136s.125-.047.226.035c.047.02.067.066.09.102.047.09.09.214.203.316.184.18.489.148.715.035a.66.66 0 0 0 .387-.465c.09-.328.066-.668.055-.976-.024-.34-.078-.692-.102-1.063 0-.125-.035-.285-.055-.465.215.25.442.508.578.645.043.047.102.101.145.16.047.566.082 1.27.102 1.563.023.293 0 .668 0 .726 0 .067.035.055.082-.094.066-.191.113-.691.101-1.03 0-.204-.035-.556-.047-.907.172.207.328.41.43.547.184.246.363.531.422.71.055.184.066.239.078.274s.066-.101.055-.305" style="stroke:none;fill-rule:nonzero;fill:#fff;fill-opacity:1"/></g></g><g clip-path="url(#an)"><g clip-path="url(#ao)"><path d="M17.133 17.648s-.067-.078-.121-.078c-.059 0-.114.035-.125.078h-.59c0-.066 0-.12.023-.191h1.2l.035.059c.03.043.066.101.113.132Zm.793-.566h-1.45a.34.34 0 0 0 .16-.316c0-.078-.077-.137-.171-.137h-.043c-.113 0-.195.094-.184.183v.09c0 .067 0 .125-.02.192H5.536c.16.226.453.375.758.375h9.766c-.114.078-.172.191-.16.304.011.094.113.149.214.137.114 0 .196-.09.184-.18v-.035h.566c0 .059.067.102.137.102.066 0 .125-.043.133-.102h.59a.74.74 0 0 0 .441.137c.16 0 .285-.102.285-.238v-.067c0-.238-.226-.445-.512-.445" style="stroke:none;fill-rule:nonzero;fill:#fff;fill-opacity:1"/></g></g></svg>