<svg xmlns="http://www.w3.org/2000/svg" width="24" height="24"><path d="M0 0h24v24H0z" style="fill:#e30a17;fill-opacity:1;stroke:none"/><path d="M16.45 12.383c0 3.387-2.794 6.133-6.24 6.133-3.448 0-6.237-2.746-6.237-6.137S6.762 6.25 10.21 6.25c3.445 0 6.238 2.746 6.238 6.133m0 0" style="stroke:none;fill-rule:evenodd;fill:#fff;fill-opacity:1"/><path d="M16.754 12.383c0 2.71-2.227 4.906-4.984 4.906s-4.993-2.2-4.993-4.91S9.012 7.48 11.77 7.48c2.757 0 4.992 2.192 4.992 4.903Zm0 0" style="stroke:none;fill-rule:evenodd;fill:#e30a17;fill-opacity:1"/><path d="m17.66 9.52-.05 2.265-2.114.574 2.09.739-.055 2.082 1.356-1.625 2.058.715-1.187-1.743 1.445-1.734-2.223.613-1.32-1.89Zm0 0" style="stroke:none;fill-rule:evenodd;fill:#fff;fill-opacity:1"/></svg>