<?xml version="1.0" encoding="UTF-8"?>
<svg xmlns="http://www.w3.org/2000/svg" version="1.1" viewBox="0 0 24 24">
  <defs>
    <style>
      .cls-1 {
        stroke-width: .1px;
      }

      .cls-1, .cls-2 {
        fill: none;
        stroke: #000;
        stroke-linejoin: round;
      }

      .cls-2 {
        stroke-linecap: round;
      }
    </style>
  </defs>
  <!-- Generator: Adobe Illustrator 28.7.2, SVG Export Plug-In . SVG Version: 1.2.0 Build 154)  -->
  <g>
    <g id="Layer_1">
      <circle class="cls-2" cx="12" cy="12" r="10"/>
      <g>
        <rect class="cls-1" x="7.63" y="12.03" width="1.47" height="5.25"/>
        <polyline class="cls-1" points="14.9 13.19 14.9 17.29 16.37 17.29 16.37 12.03 14.9 12.03 14.9 13.19"/>
        <rect class="cls-1" x="9.1" y="12.46" width="5.8" height="4.83"/>
        <rect class="cls-1" x="9.82" y="15.29" width=".93" height="1.99"/>
        <path class="cls-1" d="M10.75,13.61c0-.26-.47-.56-.47-.56,0,0-.47.3-.47.56,0,.02,0,.04,0,.05v.92h.93v-.92s0-.03,0-.05Z"/>
        <path class="cls-1" d="M10.4,13.13c-.14.11-.35.3-.35.48,0,.02,0,.04,0,.05v.92h.34"/>
        <path class="cls-1" d="M12.1,13.13c-.14.11-.35.3-.35.48,0,.02,0,.04,0,.05v.92h.34"/>
        <path class="cls-1" d="M13.83,13.13c-.14.11-.35.3-.35.48,0,.02,0,.04,0,.05v.92h.34"/>
        <path class="cls-1" d="M6.2,15.86c0-.14-.25-.3-.25-.3,0,0-.25.16-.25.3,0,0,0,.02,0,.03v.5h.51v-.5s0-.02,0-.03Z"/>
        <path class="cls-1" d="M7.01,15.86c0-.14-.25-.3-.25-.3,0,0-.25.16-.25.3,0,0,0,.02,0,.03v.5h.51v-.5s0-.02,0-.03Z"/>
        <line class="cls-1" x1="9.59" y1="13.52" x2="9.59" y2="17.28"/>
        <line class="cls-1" x1="10.98" y1="13.52" x2="10.98" y2="17.28"/>
        <rect class="cls-1" x="11.54" y="15.29" width=".93" height="1.99"/>
        <path class="cls-1" d="M12.47,13.61c0-.26-.47-.56-.47-.56,0,0-.47.3-.47.56,0,.02,0,.04,0,.05v.92h.93v-.92s0-.03,0-.05Z"/>
        <line class="cls-1" x1="11.3" y1="13.52" x2="11.3" y2="17.28"/>
        <line class="cls-1" x1="12.7" y1="13.52" x2="12.7" y2="17.28"/>
        <rect class="cls-1" x="13.25" y="15.29" width=".93" height="1.99"/>
        <path class="cls-1" d="M14.19,13.61c0-.26-.47-.56-.47-.56,0,0-.47.3-.47.56,0,.02,0,.04,0,.05v.92h.93v-.92s0-.03,0-.05Z"/>
        <line class="cls-1" x1="13.02" y1="13.52" x2="13.02" y2="17.28"/>
        <line class="cls-1" x1="14.41" y1="13.52" x2="14.41" y2="17.28"/>
        <rect class="cls-1" x="7.95" y="12.96" width=".85" height="4.33"/>
        <rect class="cls-1" x="15.21" y="12.96" width=".85" height="4.33"/>
        <line class="cls-1" x1="7.41" y1="14.99" x2="9.1" y2="14.99"/>
        <line class="cls-1" x1="14.9" y1="14.99" x2="16.55" y2="14.99"/>
        <rect class="cls-1" x="5.07" y="14.66" width="2.56" height="2.63"/>
        <rect class="cls-1" x="4.85" y="14.39" width="2.78" height=".27"/>
        <path class="cls-1" d="M17.8,15.86c0-.14.25-.3.25-.3,0,0,.25.16.25.3,0,0,0,.02,0,.03v.5h-.51v-.5s0-.02,0-.03Z"/>
        <path class="cls-1" d="M16.99,15.86c0-.14.25-.3.25-.3,0,0,.25.16.25.3,0,0,0,.02,0,.03v.5h-.51v-.5s0-.02,0-.03Z"/>
        <rect class="cls-1" x="16.37" y="14.66" width="2.56" height="2.63"/>
        <rect class="cls-1" x="16.37" y="14.39" width="2.78" height=".27"/>
        <rect class="cls-1" x="10.29" y="11.35" width="3.43" height="1.11"/>
        <path class="cls-1" d="M10.3,11.35c0-.94.76-1.7,1.7-1.7s1.7.76,1.7,1.7"/>
        <line class="cls-1" x1="12" y1="9.65" x2="12" y2="9.09"/>
        <line class="cls-1" x1="10.68" y1="10.28" x2="11.76" y2="11.36"/>
        <line class="cls-1" x1="10.4" y1="10.78" x2="10.98" y2="11.36"/>
        <line class="cls-1" x1="10.52" y1="10.53" x2="11.33" y2="11.36"/>
        <line class="cls-1" x1="11.11" y1="9.91" x2="12.54" y2="11.36"/>
        <line class="cls-1" x1="10.94" y1="10.03" x2="12.26" y2="11.36"/>
        <line class="cls-1" x1="11.65" y1="9.69" x2="13.32" y2="11.36"/>
        <line class="cls-1" x1="12" y1="9.65" x2="13.7" y2="11.35"/>
        <line class="cls-1" x1="12.38" y1="9.69" x2="13.65" y2="10.97"/>
        <line class="cls-1" x1="12" y1="8.94" x2="12" y2="8.77"/>
        <polygon class="cls-1" points="9.1 12.03 7.41 12.03 7.26 11.69 9.1 11.69 9.1 12.03"/>
        <polygon class="cls-1" points="14.9 12.03 16.59 12.03 16.74 11.69 14.9 11.69 14.9 12.03"/>
        <path class="cls-1" d="M7.6,11.71c0-.41.34-.75.75-.75s.75.34.75.75"/>
        <line class="cls-1" x1="8.14" y1="9.48" x2="8.1" y2="11.01"/>
        <line class="cls-1" x1="8.65" y1="11.01" x2="8.62" y2="9.48"/>
        <rect class="cls-1" x="7.8" y="9.16" width="1.16" height=".33"/>
        <path class="cls-1" d="M8.61,9.16l-.04-1.85h0c0-.11-.09-.19-.19-.19s-.19.09-.19.19h0l-.04,1.85"/>
        <path class="cls-1" d="M14.9,11.71c0-.41.34-.75.75-.75s.75.34.75.75"/>
        <line class="cls-1" x1="15.43" y1="9.48" x2="15.4" y2="11.01"/>
        <line class="cls-1" x1="15.95" y1="11.01" x2="15.91" y2="9.48"/>
        <rect class="cls-1" x="15.09" y="9.16" width="1.16" height=".33"/>
        <path class="cls-1" d="M15.91,9.16l-.04-1.85h0c0-.11-.09-.19-.19-.19s-.19.09-.19.19h0l-.04,1.85"/>
        <line class="cls-1" x1="10.05" y1="15.29" x2="10.05" y2="17.28"/>
        <line class="cls-1" x1="11.75" y1="15.29" x2="11.75" y2="17.29"/>
        <line class="cls-1" x1="13.48" y1="15.29" x2="13.48" y2="17.28"/>
        <path class="cls-1" d="M7.86,11.71c0-.41.22-.75.49-.75s.49.34.49.75"/>
        <path class="cls-1" d="M8.19,11.71c0-.41.07-.75.17-.75s.17.34.17.75"/>
        <line class="cls-1" x1="8.57" y1="12.96" x2="8.57" y2="17.29"/>
        <line class="cls-1" x1="8.19" y1="12.96" x2="8.19" y2="17.29"/>
        <line class="cls-1" x1="5.6" y1="16.59" x2="6.3" y2="16.59"/>
        <line class="cls-1" x1="6.4" y1="16.59" x2="7.1" y2="16.59"/>
        <line class="cls-1" x1="16.9" y1="16.59" x2="17.6" y2="16.59"/>
        <line class="cls-1" x1="17.7" y1="16.59" x2="18.4" y2="16.59"/>
        <line class="cls-1" x1="8.38" y1="9.48" x2="8.38" y2="10.96"/>
        <line class="cls-1" x1="8.38" y1="6.91" x2="8.38" y2="6.71"/>
        <path class="cls-1" d="M15.14,11.71c0-.41.22-.75.49-.75s.49.34.49.75"/>
        <path class="cls-1" d="M15.47,11.71c0-.41.07-.75.17-.75s.17.34.17.75"/>
        <line class="cls-1" x1="15.85" y1="12.96" x2="15.85" y2="17.29"/>
        <line class="cls-1" x1="15.47" y1="12.96" x2="15.47" y2="17.29"/>
        <line class="cls-1" x1="15.66" y1="9.48" x2="15.66" y2="10.96"/>
        <line class="cls-1" x1="15.66" y1="6.91" x2="15.66" y2="6.71"/>
        <polyline class="cls-1" points="10.62 12.46 10.62 11.71 11 11.71"/>
        <polyline class="cls-1" points="11.4 12.46 11.4 11.71 11.78 11.71"/>
        <polyline class="cls-1" points="12.18 12.46 12.18 11.71 12.56 11.71"/>
        <polyline class="cls-1" points="12.96 12.46 12.96 11.71 13.34 11.71"/>
      </g>
    </g>
  </g>
</svg>