<?xml version="1.0" encoding="UTF-8"?>
<svg xmlns="http://www.w3.org/2000/svg" version="1.1" viewBox="0 0 24 24">
  <defs>
    <style>
      .cls-1 {
        stroke-linecap: round;
        stroke-linejoin: round;
      }

      .cls-1, .cls-2 {
        fill: none;
        stroke: #000;
      }

      .cls-2 {
        stroke-miterlimit: 10;
        stroke-width: .1px;
      }
    </style>
  </defs>
  <!-- Generator: Adobe Illustrator 28.7.2, SVG Export Plug-In . SVG Version: 1.2.0 Build 154)  -->
  <g>
    <g id="Layer_1">
      <circle class="cls-1" cx="12" cy="12" r="10"/>
      <g id="_x31_5983_-_Passport_Approved">
        <g>
          <path class="cls-2" d="M10.14,9.36c.2-.04.42-.07.64-.09.05-.46.13-1.02.29-1.45-.4.29-.74.84-.93,1.54h0Z"/>
          <path class="cls-2" d="M10.05,9.86c-.03.21-.04.43-.04.64s.01.44.04.65c.22.05.46.08.7.11-.01-.24-.02-.5-.02-.76s0-.51.02-.76c-.25.03-.48.07-.7.11h0Z"/>
          <path class="cls-2" d="M8.91,9.76c.2-.11.44-.21.73-.29.12-.58.32-1.08.6-1.46-.64.39-1.13,1.01-1.33,1.75h0Z"/>
          <path class="cls-2" d="M8.81,10.5h0c0,.15.24.35.75.52-.02-.17-.02-.34-.02-.51s0-.34.02-.51c-.5.16-.74.37-.75.5Z"/>
          <path class="cls-2" d="M10.23,13c-.27-.39-.48-.89-.6-1.46-.29-.08-.53-.17-.73-.29.2.74.68,1.36,1.33,1.75Z"/>
          <path class="cls-2" d="M11.07,13.19c-.16-.43-.24-.99-.29-1.45-.22-.02-.44-.05-.64-.09.18.7.52,1.25.93,1.54h0Z"/>
          <path class="cls-2" d="M11.71,13.4c.11-.09.33-.57.45-1.63-.15,0-.3,0-.45,0s-.3,0-.45,0c.11,1.05.34,1.54.45,1.63Z"/>
          <path class="cls-2" d="M12.35,13.2c.41-.28.75-.83.93-1.54-.21.04-.42.07-.64.09-.05.46-.13,1.02-.29,1.45Z"/>
          <path class="cls-2" d="M14.59,12.28c-.61.98-1.67,1.59-2.83,1.6h-.1c-.88-.01-1.72-.37-2.35-1s-.97-1.47-.98-2.36v-.05c0-.89.35-1.72.98-2.36.63-.63,1.46-.98,2.34-1h.06c.21,0,.43.02.63.06.16-.29.35-.55.58-.78h-5.31v11.8h8.2v-5.83c-.12.01-.24.02-.36.02-.3,0-.59-.04-.86-.11h0ZM15.09,17.24c0,.13-.11.24-.24.24h-6.28c-.13,0-.24-.11-.24-.24v-1.2c0-.13.11-.24.24-.24h6.28c.13,0,.24.11.24.24v1.2ZM14.85,15.08h-6.28c-.13,0-.24-.11-.24-.24s.11-.24.24-.24h6.28c.13,0,.24.11.24.24,0,.13-.1.24-.23.24h0Z"/>
          <path class="cls-2" d="M8.81,16.27h5.81v.72h-5.81v-.72Z"/>
          <path class="cls-2" d="M14.12,12.12c-.15-.06-.29-.13-.43-.21-.12.42-.3.79-.52,1.1.38-.22.7-.52.94-.89Z"/>
          <path class="cls-2" d="M11.71,9.69c-.16,0-.32,0-.48.01-.02.26-.02.53-.02.8s0,.54.02.8c.39.02.79.02,1.17-.01h0c.16-.01.31-.03.45-.05-.39-.43-.69-.96-.83-1.54-.11,0-.21,0-.31,0h0Z"/>
          <path class="cls-2" d="M11.99,8.19s0-.02,0-.03c.04-.18.08-.35.15-.52-.14-.02-.28-.03-.42-.03-.1.06-.34.54-.46,1.63.15,0,.3,0,.45,0,.08,0,.16,0,.23,0-.01-.12-.02-.24-.02-.37,0-.23.02-.45.07-.67t0,0Z"/>
          <path class="cls-2" d="M15.45,5.8c-.19,0-.37.02-.55.05h0c-1.41.26-2.49,1.51-2.49,3,0,1.68,1.37,3.06,3.06,3.06s3.06-1.37,3.06-3.06c0-1.68-1.38-3.06-3.06-3.06h0ZM15.45,10.72c-1.02,0-1.86-.83-1.86-1.86s.83-1.86,1.86-1.86,1.86.83,1.86,1.86-.83,1.86-1.86,1.86Z"/>
          <path class="cls-2" d="M16.02,8.16l-.89.89-.25-.25c-.09-.09-.24-.09-.33,0-.09.09-.09.24,0,.33l.42.42s.1.07.17.07c.06,0,.12-.02.17-.07l1.06-1.06c.09-.09.09-.24,0-.33-.1-.09-.25-.09-.34,0h0Z"/>
        </g>
      </g>
    </g>
  </g>
</svg>