<?xml version="1.0" encoding="UTF-8"?>
<svg id="Layer_1" xmlns="http://www.w3.org/2000/svg" version="1.1" viewBox="0 0 62 67">
  <!-- Generator: Adobe Illustrator 29.0.1, SVG Export Plug-In . SVG Version: 2.1.0 Build 192)  -->
  <defs>
    <style>
      .st0, .st1 {
        stroke-linejoin: round;
      }

      .st0, .st1, .st2, .st3 {
        fill: none;
        stroke: #383838;
        stroke-width: 1.5px;
      }

      .st0, .st3 {
        stroke-linecap: round;
      }

      .st4 {
        fill: #fff;
      }

      .st4, .st5, .st6, .st7 {
        fill-rule: evenodd;
      }

      .st5 {
        fill: #c5c6cb;
      }

      .st6 {
        fill: #c2e1a0;
      }

      .st7 {
        fill: #d71923;
      }
    </style>
  </defs>
  <g id="Page-1">
    <g id="_x5B_M00_x5D__x5B_02.07_x5D_---First-Entry---Web-Copy-2">
      <g id="organisms_x2F_sections_x2F_USP">
        <g id="USP">
          <g id="atoms_x2F_icons_x2F_usp-illustrations_x2F_hotel-flight-2">
            <g id="atoms_x2F_icons_x2F_usp-illustrations_x2F_hotel-flight">
              <polygon id="Fill-4" class="st7" points="16.1 39.1 45.4 39.1 44 35.9 17.2 35.9 16.1 39.1"/>
              <polygon id="Stroke-5" class="st0" points="16.1 39.1 47.6 39.1 46.1 34.4 17.3 34.4 16.1 39.1"/>
              <g id="Group-8">
                <polyline id="Fill-6" class="st4" points="19.1 39.1 45.4 39.1 45.4 61 19.1 61 19.1 55.7"/>
                <polyline id="Stroke-7" class="st3" points="19.1 39.1 45.4 39.1 45.4 61 19.1 61 19.1 55.7"/>
              </g>
              <g id="Group-53">
                <path id="Stroke-9" class="st1" d="M34.6,51.7h-5.7c-.9,0-1.6.7-1.6,1.6v7.8h8.8v-7.8c0-.9-.7-1.6-1.6-1.6Z"/>
                <line id="Stroke-11" class="st0" x1="23.6" y1="54.6" x2="40.2" y2="54.6"/>
                <path id="Stroke-13" class="st0" d="M25.5,47.9h-2.8c-.4,0-.8-.4-.8-.8v-2.8c0-.4.4-.8.8-.8h2.8c.4,0,.8.4.8.8v2.8c0,.4-.4.8-.8.8Z"/>
                <path id="Stroke-15" class="st0" d="M33.3,47.9h-2.8c-.4,0-.8-.4-.8-.8v-2.8c0-.4.4-.8.8-.8h2.8c.4,0,.8.4.8.8v2.8c0,.4-.4.8-.8.8Z"/>
                <path id="Stroke-17" class="st0" d="M40.3,47.9h-2.8c-.4,0-.8-.4-.8-.8v-2.8c0-.4.4-.8.8-.8h2.8c.4,0,.8.4.8.8v2.8c0,.4-.4.8-.8.8Z"/>
                <line id="Stroke-19" class="st0" x1="1" y1="61.1" x2="60" y2="61.1"/>
                <path id="Fill-23" class="st6" d="M10.4,51s-1.8-.8-1.8-3.3,1.7-3.4,3.4-3.4,1.2-3,4.4-2.9c0,0,3.5,0,3.9,3.7.2,1.9-.8,2.7-.8,2.7,0,0,2,2.2,1.1,4.6-1,2.9-5.3,2.6-5.3,2.6,0,0-2.9,2.2-4.8.2-1.8-1.8-.2-4.3-.2-4.3"/>
                <line id="Stroke-25" class="st0" x1="16.2" y1="47.1" x2="16.2" y2="61.1"/>
                <path id="Stroke-27" class="st0" d="M13.4,48.5s-.3,2.3.6,2.8c1.4.8,2,.3,2,.3"/>
                <path id="Fill-29" class="st5" d="M31,25.6c-2.5,0-4.7-.7-6.1-1.8.5,2.9,3,5.2,6.1,5.2s5.6-2.2,6.1-5.2c-1.4,1.1-3.6,1.8-6.1,1.8"/>
                <polyline id="Stroke-31" class="st0" points="21.7 20.5 9.2 20.5 7.1 22.6 24 25.1"/>
                <polyline id="Stroke-33" class="st0" points="40.6 20.5 53 20.5 55.1 22.6 38.2 25.1"/>
                <path id="Stroke-35" class="st3" d="M14.5,25.5c0,1.3-1,2.3-2.3,2.3s-2.3-1-2.3-2.3"/>
                <path id="Stroke-37" class="st3" d="M52.7,25.7c0,1.3-1,2.3-2.3,2.3s-2.3-1-2.3-2.3"/>
                <path id="Stroke-39" class="st3" d="M21.9,26.9c0,1.3-1,2.3-2.3,2.3s-2.3-1-2.3-2.3"/>
                <path id="Stroke-41" class="st3" d="M45.4,26.8c0,1.3-1,2.3-2.3,2.3s-2.3-1-2.3-2.3"/>
                <g id="Group-46">
                  <path id="Fill-43" class="st4" d="M28.8,15.3l.9-9c0-.1.1-.2.2-.2h2.5c.1,0,.2,0,.2.2l.9,9"/>
                  <path id="Stroke-45" class="st0" d="M28.8,15.3l.9-9c0-.1.1-.2.2-.2h2.5c.1,0,.2,0,.2.2l.9,9"/>
                </g>
                <path id="Stroke-47" class="st2" d="M38.5,22.6c0,4.1-3.3,7.4-7.4,7.4s-7.4-3.3-7.4-7.4,3.3-7.4,7.4-7.4,7.4,3.3,7.4,7.4Z"/>
                <path id="Fill-49" class="st4" d="M34.4,23.6s-1.5,0-3.3,0-3.2,0-3.2,0c-.5,0-.9-.4-.9-.9v-.5c0-1.2.9-2.1,2.1-2.1h4.1c1.2,0,2.1.9,2.1,2.1v.5c0,.5-.4.7-.9.9"/>
                <path id="Stroke-51" class="st2" d="M34.4,23.6s-1.5,0-3.3,0-3.2,0-3.2,0c-.5,0-.9-.4-.9-.9v-.5c0-1.2.9-2.1,2.1-2.1h4.1c1.2,0,2.1.9,2.1,2.1v.5c0,.5-.4.7-.9.9Z"/>
              </g>
            </g>
          </g>
        </g>
      </g>
    </g>
  </g>
</svg>