<?xml version="1.0" encoding="UTF-8"?>
<svg id="Layer_1" xmlns="http://www.w3.org/2000/svg" version="1.1" xmlns:xlink="http://www.w3.org/1999/xlink" viewBox="0 0 62 67">
  <!-- Generator: Adobe Illustrator 29.0.1, SVG Export Plug-In . SVG Version: 2.1.0 Build 192)  -->
  <defs>
    <style>
      .st0, .st1 {
        fill: #d71923;
      }

      .st2 {
        mask: url(#mask-1);
      }

      .st3 {
        mask: url(#mask);
      }

      .st4, .st5 {
        fill: #383838;
      }

      .st6 {
        fill: #fff;
      }

      .st6, .st7, .st1, .st5 {
        fill-rule: evenodd;
      }

      .st8, .st7 {
        fill: #d1e3f4;
      }

      .st9 {
        fill: #ff575f;
      }
    </style>
    <mask id="mask" x="3.2" y="51.9" width="3.8" height="3.8" maskUnits="userSpaceOnUse">
      <g id="mask-2">
        <path id="path-1" class="st6" d="M4.6,52.9c-.3,0-.5.2-.5.5h0v1c0,.3.2.5.5.5h1c.3,0,.5-.2.5-.5h0v-1c0-.3-.2-.5-.5-.5h-1Z"/>
      </g>
    </mask>
    <mask id="mask-1" x="30.1" y="39.8" width="3.8" height="3.8" maskUnits="userSpaceOnUse">
      <g id="mask-4">
        <path id="path-3" class="st6" d="M31.5,40.8c-.3,0-.5.2-.5.5h0v1c0,.3.2.5.5.5h1c.3,0,.5-.2.5-.5h0v-1c0-.3-.2-.5-.5-.5h-1Z"/>
      </g>
    </mask>
  </defs>
  <g id="Page-1">
    <g id="_x5B_M00_x5D__x5B_02.07_x5D_---First-Entry---Web-Copy-2">
      <g id="JoinOurNewsletter_x2F_Desktop-Copy">
        <g id="WhatsIncluded_x2F_Desktop">
          <g id="Group-3-Copy">
            <g id="Group">
              <g id="Group-59">
                <path id="Fill-1" class="st1" d="M22.2,20.1c0,3.2-2.6,5.8-5.8,5.8s-5.8-2.6-5.8-5.8,2.6-5.8,5.8-5.8,5.8,2.6,5.8,5.8"/>
                <path id="Stroke-3" class="st0" d="M11,8c.3-.2.7,0,.9.2h0c0,0,1.3,2.9,1.3,2.9.2.3,0,.8-.3.9-.3.2-.7,0-.9-.2h0c0,0-1.3-2.9-1.3-2.9-.2-.3,0-.8.3-.9Z"/>
                <path id="Stroke-5" class="st0" d="M20.5,8.4c.2-.3.6-.5.9-.3.3.2.5.5.4.8h0c0,0-1.3,2.9-1.3,2.9-.2.3-.6.5-.9.3-.3-.2-.5-.5-.4-.8h0c0,0,1.3-2.9,1.3-2.9Z"/>
                <path id="Stroke-7" class="st0" d="M12,28.9c.2-.3.6-.5.9-.3.3.2.5.5.4.8h0c0,0-1.3,2.9-1.3,2.9-.2.3-.6.5-.9.3-.3-.2-.5-.5-.4-.8h0c0,0,1.3-2.9,1.3-2.9Z"/>
                <path id="Stroke-9" class="st0" d="M19.4,28.6c.3-.2.7,0,.9.2h0c0,0,1.3,2.9,1.3,2.9.2.3,0,.8-.3.9-.3.2-.7,0-.9-.2h0c0,0-1.3-2.9-1.3-2.9-.2-.3,0-.8.3-.9Z"/>
                <path id="Stroke-11" class="st0" d="M4.1,15.4c.2-.3.5-.5.8-.4h0s2.8,1.4,2.8,1.4c.3.2.5.6.3.9-.2.3-.5.5-.8.4h0s-2.8-1.4-2.8-1.4c-.3-.2-.5-.6-.3-.9Z"/>
                <path id="Stroke-13" class="st0" d="M7.2,23.5c.3-.2.8,0,.9.3.2.3,0,.7-.2.9h0s-2.8,1.4-2.8,1.4c-.3.2-.8,0-.9-.3-.2-.3,0-.7.2-.9h0s2.8-1.4,2.8-1.4Z"/>
                <path id="Stroke-15" class="st9" d="M27.9,15.2c.2-.1.5,0,.6.2,0,.2,0,.4-.1.6h0s-2.8,1.4-2.8,1.4c-.2.1-.5,0-.6-.2,0-.2,0-.4.1-.6h0s2.8-1.4,2.8-1.4Z"/>
                <path id="Stroke-17" class="st0" d="M24.6,23.8c.2-.3.5-.5.8-.4h0s2.8,1.4,2.8,1.4c.3.2.5.6.3.9-.2.3-.5.5-.8.4h0s-2.8-1.4-2.8-1.4c-.3-.2-.5-.6-.3-.9Z"/>
                <g id="Group-22">
                  <path id="Fill-19" class="st6" d="M33.2,23.2c.4-8-11.6-7.8-11.4,0-.6-23.8,34.3-23.8,33.9,0,.4-7.8-11.4-7.8-11.1,0h0c.3-7.8-11.5-7.8-11.2,0"/>
                  <path id="Stroke-21" class="st4" d="M38.6,4.7c9.9,0,17.6,6.9,17.7,17.8h0c0,.1,0,.2,0,.2v.5c0,.9-1.4.9-1.4,0v-.3s0-.2,0-.2h0c-.2-2.8-2.1-4.5-4.7-4.6h-.2c-2.9,0-5,2-4.9,5.1,0,.4-.2.7-.6.7h0s0,0,0,0c-.4,0-.7-.3-.7-.7.1-3.1-2-5.1-4.9-5.1-2.9,0-5,2-4.9,5.1,0,.3-.1.5-.4.6h-.1c0,0-.2.1-.3.1h0c-.4,0-.7-.3-.7-.7.1-3.2-2-5.2-5-5.2-2.9,0-5.2,2-5.1,5.2,0,.9-1.3,1-1.4,0-.3-11.3,7.5-18.5,17.6-18.5ZM38.6,6c-7.7,0-13.9,4.5-15.7,12v.4c-.1,0,0,0,0,0,1.1-1.1,2.6-1.7,4.3-1.7h.2c2.5,0,4.6,1.2,5.7,3.2h0c0,0,0,0,0,0,1-2,3-3.1,5.4-3.2h.2c2.4,0,4.4,1.1,5.5,3v.2c.1,0,.2,0,.2,0,1-2,3-3.1,5.3-3.2h.2c1.7,0,3.2.5,4.3,1.5h.1c0,0,0-.2,0-.2-1.8-7.3-7.9-11.8-15.4-12h-.3Z"/>
                </g>
                <path id="Stroke-23" class="st4" d="M18.8,48.5c.3,0,.6.3.7.6h0v4.5c0,.4-.3.7-.7.7s-.6-.3-.7-.6h0v-4.5c0-.4.3-.7.7-.7Z"/>
                <path id="Stroke-25" class="st4" d="M21.9,48.5c.3,0,.6.3.7.6h0v4.5c0,.4-.3.7-.7.7s-.6-.3-.7-.6h0v-4.5c0-.4.3-.7.7-.7Z"/>
                <path id="Stroke-27" class="st4" d="M51.1,48.5c.3,0,.6.3.7.6h0v4.5c0,.4-.3.7-.7.7s-.6-.3-.7-.6h0v-4.5c0-.4.3-.7.7-.7Z"/>
                <path id="Stroke-29" class="st4" d="M55,48.5c.3,0,.6.3.7.6h0v4.5c0,.4-.3.7-.7.7s-.6-.3-.7-.6h0v-4.5c0-.4.3-.7.7-.7Z"/>
                <path id="Fill-31" class="st7" d="M21.7,36.5h18.9s-.3-4-3.1-4.1c-.2,0,0-4.1-4.7-4.1s-4.6,3.6-4.6,3.6c0,0-6.4-1.1-6.4,4.6"/>
                <path id="Fill-33" class="st7" d="M34.7,42.4s0-2.4,2.4-2.4,2.5.8,2.5.8c0,0,.2-1.9,1.9-1.9s1.8.8,1.8.8c0,0,.8-4.5,5.5-4.5s5,7.3,5,7.3h-19Z"/>
                <path id="Stroke-35" class="st4" d="M38.4,12.1c.3,0,.6.3.7.6h0c0,0,.2,41,.2,41,0,.4-.3.7-.7.7-.3,0-.6-.3-.7-.6h0c0,0-.2-41-.2-41,0-.4.3-.7.7-.7Z"/>
                <path id="Stroke-351" data-name="Stroke-35" class="st4" d="M38.4,2.1c.3,0,.6.3.7.6h0v2.8c0,.4-.3.7-.7.7s-.6-.3-.7-.6h0v-2.8c0-.4.3-.7.7-.7Z"/>
                <path id="Stroke-37" class="st4" d="M.9,36.7l-.6.5,14.2,12.6h44.2v-.8c0,0,0-.2,0-.2v-.3c0,0,0-.1,0-.2,0-.6-.2-1.1-.4-1.7v-.2c-.7-1.5-1.6-2.5-3.1-2.5H16.6s-9.3-8-9.3-8c-.1-.1-.4-.3-.7-.5-1.7-.8-3.7-.6-5.8,1.2ZM6,36.6c.2,0,.3.2.4.2l9.7,8.4h39c.8,0,1.4.6,1.8,1.8v.3c.2.2.2.5.3.7v.3c0,0-42.2,0-42.2,0l-12.6-11.2h.1c1.3-1,2.5-1,3.5-.5Z"/>
                <path id="Stroke-39" class="st4" d="M29.5,41c.4,0,.7.3.7.7s-.3.6-.6.7h0s-10.1,0-10.1,0c-.4,0-.7-.3-.7-.7s.3-.6.6-.7h0s10.1,0,10.1,0Z"/>
                <path id="Stroke-41" class="st4" d="M59.2,53c.4,0,.7.3.7.7s-.3.6-.6.7h0s-51.4,0-51.4,0c-.4,0-.7-.3-.7-.7s.3-.6.6-.7h0s51.4,0,51.4,0Z"/>
                <path id="Stroke-43" class="st8" d="M3,57.6c.2-.3.7-.3,1,0h.2c0,.1.2.3.2.3.3.2.7.4,1.1.6,1.1.6,2.3.9,3.5.9s2.4-.3,3.7-.9c.4-.2.8-.4,1.2-.6l.3-.2h.2c.2-.3.6-.3.8,0h.1c0,0,.2.2.2.2,0,0,0,0,.1,0,.3.2.7.4,1.1.6,1.2.6,2.4.9,3.6.9s2.4-.3,3.6-.9c.4-.2.8-.4,1.1-.6h.2c0-.1.2-.3.2-.3l.3-.2c.3-.2.6-.1.8,0h.2c0,.1.2.3.2.3.3.2.7.4,1.1.6,1.1.6,2.3.9,3.5.9s2.4-.3,3.7-.9c.4-.2.8-.4,1.2-.6l.3-.2h.2c.2-.3.6-.3.8,0h.1c0,0,.2.2.2.2,0,0,0,0,.1,0,.3.2.7.4,1.1.6,1.2.6,2.4.9,3.6.9s2.4-.3,3.6-.9c.4-.2.8-.4,1.1-.6h.2c0-.1.2-.3.2-.3.3-.2.7-.2,1,.2.2.3.2.7-.2,1h-.1c0,.1-.2.2-.2.2,0,0,0,0-.1,0-.4.2-.8.5-1.3.7-1.4.6-2.8,1-4.2,1s-2.8-.4-4.2-1c-.3-.2-.7-.3-1-.5l-.3-.2h0c0,0,0,0,0,0-.3.2-.6.4-1,.5l-.4.2c-1.4.6-2.8,1-4.2,1s-2.8-.4-4.1-1.1c-.5-.2-.9-.5-1.2-.7h-.1c0,0-.2,0-.2,0h-.1c-.4.3-.8.5-1.3.8-1.4.6-2.8,1-4.2,1s-2.8-.4-4.2-1c-.3-.2-.7-.3-1-.5l-.3-.2h0c0,0,0,0,0,0-.3.2-.6.4-1,.5l-.4.2c-1.4.6-2.8,1-4.2,1s-2.8-.4-4.1-1.1c-.8-.4-1.4-.8-1.7-1.1-.3-.2-.3-.7,0-1Z"/>
                <path id="Stroke-45" class="st8" d="M47.6,57.7c.2-.3.7-.4,1-.1h.2c0,.1.2.3.2.3.3.2.7.4,1.1.6,1.2.6,2.4.9,3.6.9s2.4-.3,3.6-.9c.4-.2.8-.4,1.1-.6l.3-.2h.1c.3-.3.7-.2,1,0,.2.3.2.7-.2,1h-.1c0,.1-.2.2-.2.2,0,0,0,0-.1,0-.4.2-.8.5-1.3.7-1.4.6-2.8,1-4.2,1s-2.8-.4-4.2-1c-.5-.2-.9-.5-1.3-.7l-.2-.2h-.2c0-.1,0-.2,0-.2-.3-.2-.4-.7-.1-1Z"/>
                <path id="Stroke-47" class="st8" d="M3,61.8c.2-.3.7-.3,1,0h.1c0,0,.2.2.2.2,0,0,0,0,.1,0,.3.2.7.4,1.1.6,1.1.6,2.3.9,3.5.9s2.4-.3,3.7-.9c.4-.2.8-.4,1.2-.6h.2c0-.1.2-.3.2-.3.2-.2.6-.2.8,0h.1c0,0,.2.2.2.2,0,0,0,0,.1,0,.3.2.7.4,1.1.6,1.2.6,2.4.9,3.6.9s2.4-.3,3.6-.9c.4-.2.8-.4,1.1-.6h.2c0-.1.2-.3.2-.3l.3-.2c.3-.2.6-.1.8,0h.1c0,0,.2.2.2.2,0,0,0,0,.1,0,.3.2.7.4,1.1.6,1.1.6,2.3.9,3.5.9s2.4-.3,3.7-.9c.4-.2.8-.4,1.2-.6h.2c0-.1.1-.2.1-.2h0c.2-.2.6-.2.8,0h.1c0,0,.2.2.2.2,0,0,0,0,.1,0,.3.2.7.4,1.1.6,1.2.6,2.4.9,3.6.9s2.4-.3,3.6-.9c.4-.2.8-.4,1.1-.6h.2c0-.1.1-.2.1-.2,0,0,0,0,0,0,.3-.2.7-.2,1,.2.2.3.2.7-.2,1h-.1c0,.1-.2.2-.2.2,0,0,0,0-.1,0-.4.2-.8.5-1.3.7-1.4.6-2.8,1-4.2,1s-2.8-.4-4.2-1c-.3-.2-.7-.3-1-.5l-.3-.2h0c0,0,0,0,0,0-.3.2-.6.4-1,.5l-.4.2c-1.4.6-2.8,1-4.2,1s-2.8-.4-4.1-1.1c-.5-.2-.9-.5-1.2-.7h-.1c0,0-.2,0-.2,0h-.1c-.4.3-.8.5-1.3.8-1.4.6-2.8,1-4.2,1s-2.8-.4-4.2-1c-.3-.2-.7-.3-1-.5l-.3-.2h0c0,0,0,0,0,0-.3.2-.6.4-1,.5l-.4.2c-1.4.6-2.8,1-4.2,1s-2.8-.4-4.1-1.1c-.8-.4-1.4-.8-1.7-1.1-.3-.2-.3-.7,0-1Z"/>
                <path id="Stroke-49" class="st8" d="M47.6,61.9c.2-.3.7-.4,1-.1h.1c0,0,.2.2.2.2,0,0,0,0,.1,0,.3.2.7.4,1.1.6,1.2.6,2.4.9,3.6.9s2.4-.3,3.6-.9c.4-.2.8-.4,1.1-.6h.2c0-.1.2-.3.2-.3.3-.2.7-.2,1,.2.2.3.2.7-.2,1h-.1c0,.1-.2.2-.2.2,0,0,0,0-.1,0-.4.2-.8.5-1.3.7-1.4.6-2.8,1-4.2,1s-2.8-.4-4.2-1c-.5-.2-.9-.5-1.3-.7l-.2-.2h-.2c0-.1,0-.2,0-.2-.3-.2-.4-.7-.1-1Z"/>
                <path id="Stroke-51" class="st4" d="M45.2,1.8h0c.6,0,1.5.2,2.8.7,2,.7,4.1,1.9,6.1,3.7.3.2.5.5.8.7,1.6,1.6,2.7,3.3,3.4,5,.5,1,.7,1.8.8,2.3,0,.4-.2.7-.6.8-.4,0-.7-.2-.8-.6h0c0-.1,0-.4,0-.4,0,0,0,0,0-.1-.1-.4-.3-.9-.6-1.5-.7-1.6-1.7-3.1-3.2-4.6-.2-.2-.5-.5-.7-.7-1.8-1.7-3.7-2.8-5.6-3.5-.7-.2-1.3-.4-1.8-.5h-.2s-.3,0-.3,0h-.1c-.4,0-.7-.4-.6-.7,0-.3.3-.6.6-.6Z"/>
                <path id="Stroke-53" class="st4" d="M58.9,16.1c.3,0,.7.1.8.5h0c0,0,.2,1,.2,1,0,.4-.2.7-.6.8-.3,0-.7-.1-.8-.5h0c0,0-.2-1-.2-1,0-.4.2-.7.6-.8Z"/>
                <path id="Fill-55" class="st1" d="M37.9,7.4s-2.6.6-4,5.2c-.7,2.3-.7,5.6-.7,10.3h0c0-2.7,2.2-4.9,4.9-4.9s4.9,2.2,4.9,4.9h0c0-4.8,0-8.1-.7-10.4-1.4-4.6-4-5.2-4-5.2h-.4Z"/>
                <path id="Stroke-57" class="st4" d="M39,4.5h-.6c-.8.2-2,.9-3.2,2.4-.8,1-1.4,2.3-1.9,4v.3c0,0-.2.3-.2.3,0,0,0,.1,0,.2v.3c0,0-.1.3-.1.3v.3c0,0-.1.4-.1.4v.4c0,0,0,.4,0,.4v.4s0,.4,0,.4v.5s0,.7,0,.7v.8s0,.9,0,.9v1.3s0,1.1,0,1.1v2s0,1,0,1c0,.1,0,.3.1.4h0c.4.7,1.3.4,1.3-.3,0-2.7,2.2-4.9,4.8-4.9s4.8,2.2,4.8,4.9,1.1,1,1.3.2h0c0-.2,0-.2,0-.3v-2.6s0-1.4,0-1.4v-1s0-.9,0-.9v-.6s0-.5,0-.5v-.7s0-.5,0-.5v-.4s0-.4,0-.4v-.4s0-.4,0-.4v-.4c0,0-.1-.3-.1-.3v-.3c0,0-.1-.3-.1-.3v-.5c-.1,0-.2-.3-.2-.3-.5-1.6-1.1-2.9-1.9-4-1.1-1.5-2.3-2.2-3.2-2.4h-.1ZM38.7,5.9h.4s.2.1.2.1c0,0,.2.1.3.2.6.3,1.2.9,1.7,1.6.7.9,1.2,2.1,1.7,3.5h0c0,.3,0,.4,0,.5v.4c0,0,.2.4.2.4,0,0,0,.1,0,.2v.4c0,0,.1.4.1.4v.4c0,0,.1.5.1.5v.5s0,.5,0,.5v.6s0,1,0,1v.7s0,1.2,0,1.2h0c-1.1-1.5-2.9-2.4-4.8-2.4h-.2c-1.8,0-3.5.9-4.6,2.3h0c0,.1,0-.8,0-.8v-1.1s0-.6,0-.6v-.6s0-.6,0-.6v-.5s0-.5,0-.5v-.5c0,0,0-.1,0-.2v-.4c0,0,.1-.4.1-.4v-.4c0-.1.1-.2.2-.4v-.3c0,0,.2-.3.2-.3.4-1.5,1-2.6,1.7-3.5.6-.7,1.1-1.3,1.7-1.6h.1c0-.1.1-.1.2-.2h.2c0,0,.1-.1.1-.1Z"/>
              </g>
              <g id="Group-62">
                <g class="st3">
                  <polygon id="Fill-60" class="st5" points="3.2 55.7 7 55.7 7 51.9 3.2 51.9 3.2 55.7"/>
                </g>
              </g>
              <g id="Group-65">
                <g class="st2">
                  <polygon id="Fill-63" class="st5" points="30.1 43.6 33.9 43.6 33.9 39.8 30.1 39.8 30.1 43.6"/>
                </g>
              </g>
            </g>
          </g>
        </g>
      </g>
    </g>
  </g>
</svg>