<?xml version="1.0" encoding="UTF-8"?>
<svg id="Layer_1" xmlns="http://www.w3.org/2000/svg" version="1.1" viewBox="0 0 62 67">
  <!-- Generator: Adobe Illustrator 29.0.1, SVG Export Plug-In . SVG Version: 2.1.0 Build 192)  -->
  <defs>
    <style>
      .st0 {
        fill: #d71923;
      }

      .st1 {
        fill: none;
        stroke: #383838;
        stroke-miterlimit: 10;
        stroke-width: 2px;
      }
    </style>
  </defs>
  <path class="st0" d="M55.8,6.6H6.7C3.2,6.6.4,9.4.4,12.8v38.8c0,3.4,2.8,6.2,6.2,6.2h49.1c3.4,0,6.2-2.8,6.2-6.2V12.8c0-3.4-2.8-6.2-6.2-6.2h0ZM20.9,20.5c1.7-1.7,4.5-1.7,6.2,0,1.6,1.7,1.8,4.4,0,6.2-1,.9-1.9,1.6-2.9,3.1l-3.2-3.2h0c-1.7-1.7-1.7-4.5,0-6.2h0ZM31.2,26.8c2.8-.9,5.7-.7,8.5.6l-4,4c-1.2-1.2-2.8-2.1-4.6-2.5-1.2-.2-2.3-.2-3.4,0,.1-.1.5-1.2,3.6-2.2h0ZM2.3,12.8c0-2.4,1.9-4.3,4.3-4.3h6.4v11.5H2.3v-7.2ZM13.1,55.9h-6.4c-2.4,0-4.3-1.9-4.3-4.3v-19.7h7.9c.3,1.7,1.2,3.4,2.9,4.4v19.6h0ZM13.3,34.1c-1.7-1.8-1.6-4.5,0-6.2,1.7-1.7,4.5-1.7,6.2,0l3.2,3.2c-1.5.9-2.1,1.7-3.2,2.9-1.7,1.7-4.5,1.7-6.2,0h0ZM20.1,46.8c-1.2-2.7-1.4-5.7-.5-8.5,1-3.1,2.1-3.4,2.2-3.6-.3,1.3-.2,2.5,0,3.4.3,1.8,1.2,3.4,2.4,4.6-.2.2-3.8,3.8-4,4h0ZM60.1,51.6c0,2.4-1.9,4.3-4.3,4.3h-30.8v-11.3l1.2-1.2c.4-.4.4-1.1-.1-1.5-1.3-.9-2.2-2.4-2.5-4.1-.2-1.4-.2-3.5,1.4-5.8,2.3-1.6,4.4-1.6,5.8-1.4,1.7.3,3.2,1.3,4.1,2.5.3.5,1,.6,1.5.1l1.5-1.5h22.3v19.7ZM60.1,20h-30.9c-1-1.5-2.5-2.4-4.2-2.7v-8.9h30.8c2.4,0,4.3,1.9,4.3,4.3v7.2Z"/>
  <path class="st0" d="M52.3,47.5h-17.1c-.5,0-1,.4-1,1s.4,1,1,1h17.1c.5,0,1-.4,1-1s-.4-1-1-1Z"/>
  <path class="st0" d="M25.6,25.2s-.7.9-.8,1c-.4.4-1,.5-1.4,0l-1-1c-.9-.9-.9-2.4,0-3.3.9-.9,2.3-.9,3.2,0,.9.9.9,2.4,0,3.3Z"/>
  <path class="st0" d="M19,31.9s-.9.7-1,.8c-.9.9-2.4.9-3.3,0-.9-.9-.9-2.3,0-3.2.9-.9,2.4-.9,3.3,0l1,1c.4.4.4,1.1,0,1.4h0Z"/>
  <rect class="st1" x="1.3" y="7.4" width="59.8" height="49.5" rx="5.6" ry="5.6"/>
</svg>