<?xml version="1.0" encoding="UTF-8"?>
<svg id="Layer_1" xmlns="http://www.w3.org/2000/svg" version="1.1" viewBox="0 0 63 67">
  <!-- Generator: Adobe Illustrator 29.0.1, SVG Export Plug-In . SVG Version: 2.1.0 Build 192)  -->
  <defs>
    <style>
      .st0, .st1 {
        fill: #383838;
      }

      .st2 {
        stroke-linejoin: round;
      }

      .st2, .st3, .st1, .st4 {
        fill-rule: evenodd;
      }

      .st2, .st3, .st4 {
        stroke: #383838;
        stroke-width: 1.5px;
      }

      .st2, .st4 {
        fill: #ecedf1;
      }

      .st3 {
        fill: #d71923;
      }
    </style>
  </defs>
  <g id="Page-1">
    <g id="_x5B_M00_x5D__x5B_02.07_x5D_---First-Entry---Web-Copy-2">
      <g id="organisms_x2F_sections_x2F_USP">
        <g id="WhatsIncluded_x2F_Desktop">
          <g id="Group-5">
            <g id="atoms_x2F_icons_x2F_usp-illustrations_x2F_vip-2">
              <g id="atoms_x2F_icons_x2F_usp-illustrations_x2F_vip">
                <path id="Stroke-1" class="st0" d="M29.6,32.7l-.2-.2h-.9c-4.1,0-7.6,2.9-8.5,6.9l-.2.9h28l-.2-.9c-.8-4-4.4-6.9-8.5-6.9h-.9l-.2.2c-1,.9-2.6,1.5-4.3,1.5s-3.3-.6-4.3-1.5ZM38.9,34h.3s.3,0,.3,0c3,.1,5.5,2,6.5,4.7h0c0,0-24.2,0-24.2,0h0c1-2.8,3.7-4.8,6.7-4.8h.3s.2.2.2.2c1.3,1,3,1.5,4.8,1.5s3.6-.5,4.8-1.5l.2-.2Z"/>
                <path id="Stroke-3" class="st0" d="M23.7,22.1c.4,0,.7.3.7.6h0v2.1c0,2.2,1.7,4,3.9,4.1h.2s2.6,0,2.6,0c.4,0,.7.3.7.8s-.3.7-.6.7h-.1s-2.6,0-2.6,0c-3,0-5.4-2.4-5.6-5.3v-.2s0-2,0-2c0-.4.3-.8.8-.8Z"/>
                <path id="Fill-5" class="st1" d="M32.8,29.1c0,.7-.7,1.2-1.5,1.2s-1.5-.5-1.5-1.2.7-1.2,1.5-1.2,1.5.5,1.5,1.2"/>
                <path id="Stroke-7" class="st0" d="M29.5,17.1h.2s.2,0,.2,0c0,0,0,0,0,0h.2s.2,0,.2,0c0,0,0,0,0,0h.2c0,0,.2.1.2.1h.3c0,0,.5.3.5.3l1.1.4c1.4.6,2.3.8,3.4.8s2.3-.2,3.4-.4c.3,0,.5-.1.8-.2l.5-.2h0c.4-.2.8,0,1,.4.2.4,0,.8-.4,1h-.2c0,0-.3.2-.3.2,0,0-.1,0-.2,0h-.4c-.1.1-.3.2-.4.2-1.2.3-2.4.5-3.7.5s-2.2-.2-3.6-.8l-1.3-.5-.4-.2h-.2c0,0-.2-.1-.2-.1h-.2c0,0,0,0,0,0h-.2s-.1,0-.1,0h-.1s-.2,0-.2,0c-.7,0-1.3.2-1.9.5-.4.2-.6.4-.7.5-.3.3-.8.2-1.1,0-.3-.3-.2-.8,0-1.1.2-.2.6-.4,1-.6.8-.4,1.7-.6,2.6-.6Z"/>
                <path id="Stroke-9" class="st0" d="M33.1,16c.2-.3.7-.4,1.1-.1h.1c0,0,.3.3.3.3.3.2.6.5.9.8v.2c.4.2.6.5.8.9.2.3.3.6.4.9v.3c.1,0,.2.1.2.1.1.4,0,.8-.5,1-.4.1-.8,0-1-.5v-.2c0,0-.1,0-.1-.1-.1-.2-.2-.5-.4-.7-.1-.2-.3-.5-.4-.6h-.1c-.2-.4-.5-.6-.8-.8l-.3-.3c-.3-.2-.4-.7-.1-1.1Z"/>
                <g id="Group-49">
                  <path id="Fill-11" class="st4" d="M18.4,58.1c-1,0-1.9-.8-1.9-1.9v-15.3c0-1,.8-1.9,1.9-1.9h31.1c1,0,1.9.8,1.9,1.9v15.3c0,1-.8,1.9-1.9,1.9h-31.1Z"/>
                  <path id="Stroke-15" class="st0" d="M18.1,33.4c.4,0,.8.3.8.8s-.3.7-.6.7h-.1s-.9,0-.9,0c-2.7,0-5,2.2-5.1,4.9v.2s0,6.2,0,6.2c0,.4-.3.8-.8.8s-.7-.3-.7-.6h0v-6.3c0-3.6,2.8-6.5,6.4-6.6h.2s.9,0,.9,0Z"/>
                  <path id="Stroke-17" class="st0" d="M11.4,47.2c.4,0,.7.3.7.6h0v.7c0,.4-.3.8-.8.8s-.7-.3-.7-.6h0v-.7c0-.4.3-.8.8-.8Z"/>
                  <path id="Stroke-19" class="st0" d="M56.1,42.1c.4,0,.7.3.7.6h0v.7c0,.4-.3.8-.8.8s-.7-.3-.7-.6h0v-.7c0-.4.3-.8.8-.8Z"/>
                  <path id="Stroke-21" class="st0" d="M48.2,15.7c.4,0,.7.3.7.6h0v.7c0,.4-.3.8-.8.8s-.7-.3-.7-.6h0v-.7c0-.4.3-.8.8-.8Z"/>
                  <path id="Fill-23" class="st2" d="M15.1,59.9c-1.3,0-2.4-1.2-2.4-2.6h42.5c0,1.5-1.1,2.6-2.4,2.6H15.1Z"/>
                  <path id="Stroke-27" class="st0" d="M34.4,9.9c4.2,0,7.5,3.3,7.7,7.4v.2s0,7.5,0,7.5c0,4.2-3.3,7.5-7.4,7.7h-.2s-1.3,0-1.3,0c-.4,0-.8,0-1.2,0-.4,0-.7-.4-.6-.9,0-.4.4-.7.9-.6.2,0,.4,0,.6,0h.3s1.3,0,1.3,0c3.3,0,6-2.6,6.2-5.9v-.2s0-7.5,0-7.5c0-3.3-2.6-6-5.9-6.2h-.2s-1.3,0-1.3,0c-3.3,0-6,2.6-6.2,5.9v.2s0,7.5,0,7.5c0,.7.1,1.3.3,1.9.1.4,0,.8-.5.9-.4.1-.8,0-.9-.5-.2-.7-.3-1.3-.4-2v-.3s0-7.5,0-7.5c0-4.2,3.3-7.5,7.4-7.7h.2s1.3,0,1.3,0Z"/>
                  <path id="Stroke-29" class="st0" d="M34.2,5.3c5.4,0,9.8,4.3,10,9.7v.3s0,8.4,0,8.4c0,.4-.3.8-.8.8s-.7-.3-.7-.6h0v-8.5c0-4.6-3.7-8.3-8.2-8.5h-.3s-1.4,0-1.4,0c-4.6,0-8.3,3.7-8.5,8.2v.3s0,8.4,0,8.4c0,.4-.3.8-.8.8s-.7-.3-.7-.6h0v-8.5c0-5.4,4.3-9.8,9.7-10h.3s1.4,0,1.4,0Z"/>
                  <path id="Fill-31" class="st3" d="M24.8,24.6c-1.7,0-3.1-1.4-3.1-3.1s1.4-3.1,3.1-3.1h1v6.1h-1Z"/>
                  <path id="Fill-35" class="st3" d="M41.8,24.6v-6.1h1c1.7,0,3.1,1.4,3.1,3.1s-1.4,3.1-3.1,3.1h-1Z"/>
                  <path id="Stroke-39" class="st0" d="M56.1,44.5c.4,0,.7.3.7.6h0v9.7c0,.4-.3.8-.8.8s-.7-.3-.7-.6h0v-9.7c0-.4.3-.8.8-.8Z"/>
                  <path id="Stroke-41" class="st0" d="M62.3,59.3c.4,0,.8.3.8.8s-.3.7-.6.7h-.1s-61.5,0-61.5,0c-.4,0-.8-.3-.8-.8s.3-.7.6-.7h.1s61.5,0,61.5,0Z"/>
                  <path id="Stroke-43" class="st0" d="M43,4.9c.2-.4.7-.5,1-.2,2.9,1.8,4.8,5,4.9,8.5v.3s0,1.1,0,1.1c0,.4-.3.8-.8.8s-.7-.3-.7-.6h0v-1.2c0-3.1-1.6-5.9-4.2-7.5-.4-.2-.5-.7-.2-1Z"/>
                  <path id="Stroke-45" class="st0" d="M32.5,22.1c.4,0,.8.3.8.8s-.3.7-.6.7h-.1s-2.7,0-2.7,0c-.4,0-.8-.3-.8-.8s.3-.7.6-.7h.1s2.7,0,2.7,0Z"/>
                  <path id="Stroke-47" class="st0" d="M38,22.1c.4,0,.8.3.8.8s-.3.7-.6.7h-.1s-2.7,0-2.7,0c-.4,0-.8-.3-.8-.8s.3-.7.6-.7h.1s2.7,0,2.7,0Z"/>
                </g>
                <g id="Group-54">
                  <path id="Fill-50" class="st0" d="M33.8,50.8c-1.1,0-2-1-2-2.2s1-2.2,2.2-2.2,2.2,1,2.2,2.2-.9,2.1-2,2.2h-.2s-.2,0-.2,0ZM33.9,47.9c-.4,0-.7.3-.7.7s.2.6.6.7h0s0,0,0,0c.3,0,.5-.3.6-.6h0c0-.5-.3-.8-.7-.8Z"/>
                </g>
              </g>
            </g>
          </g>
        </g>
      </g>
    </g>
  </g>
</svg>