<?xml version="1.0" encoding="UTF-8"?>
<svg id="Layer_1" xmlns="http://www.w3.org/2000/svg" version="1.1" xmlns:xlink="http://www.w3.org/1999/xlink" viewBox="0 0 63 67">
  <!-- Generator: Adobe Illustrator 29.0.1, SVG Export Plug-In . SVG Version: 2.1.0 Build 192)  -->
  <defs>
    <style>
      .st0 {
        stroke: #d71923;
        stroke-width: 1.3px;
      }

      .st0, .st1, .st2, .st3 {
        fill: none;
      }

      .st0, .st3 {
        stroke-linecap: round;
      }

      .st4 {
        mask: url(#mask-1);
      }

      .st5 {
        mask: url(#mask);
      }

      .st6 {
        fill: #fff;
      }

      .st6, .st7, .st8, .st9, .st10, .st11, .st12 {
        fill-rule: evenodd;
      }

      .st7 {
        fill: #c5c6cb;
      }

      .st1, .st2, .st3 {
        stroke-width: 1.5px;
      }

      .st1, .st3 {
        stroke: #1c1e23;
      }

      .st13 {
        mask: url(#mask-21);
      }

      .st8 {
        fill: #d1e3f4;
      }

      .st9 {
        fill: #d71923;
      }

      .st10 {
        fill: #ecedf1;
      }

      .st2 {
        stroke: #252d56;
      }

      .st11 {
        fill: #383838;
      }

      .st12 {
        fill: #1c1e23;
      }

      .st14 {
        mask: url(#mask-3);
      }

      .st15 {
        mask: url(#mask-41);
      }
    </style>
    <mask id="mask" x="8.8" y="8.6" width="11" height="8.9" maskUnits="userSpaceOnUse">
      <g id="mask-2">
        <path id="path-1" class="st6" d="M9.8,13c0,1.9,1.5,3.4,3.4,3.4h0c.4,0,.7,0,1.1-.2h0s0,0,0,0h0c0,0,0,0,0,0h0c.5.3,1.8.2,2.3.2h0c1.2,0,2.2-1,2.2-2.2h0c0-1.2-1-2.2-2.2-2.2h-.2s0,0,0,0c-.5-1.3-1.7-2.3-3.2-2.3h0c-1.9,0-3.4,1.5-3.4,3.4h0Z"/>
      </g>
    </mask>
    <mask id="mask-1" x="6.4" y="6.4" width="16" height="11.8" maskUnits="userSpaceOnUse">
      <g id="mask-4">
        <path id="path-3" class="st6" d="M11.5,7.7c-2.1.3-3.8,2.1-4,4.2h0c-.2,1.4.3,2.7,1.2,3.7h0c.9,1,2.2,1.6,3.6,1.6h2.2c.4,0,.7-.3.7-.7h0c0-.4-.3-.7-.7-.7h-2.2c-.9,0-1.9-.4-2.5-1.1h0c-.6-.7-.9-1.6-.8-2.6h0c.2-1.5,1.3-2.7,2.8-2.9h0c1.2-.2,2.4.3,3.1,1.2h0s0,0,0,0h0c-.8.7-1.3,1.6-1.4,2.7h0c0,.4.3.8.7.8h0c.4,0,.8-.3.8-.7h0c0-.6.4-1.3.9-1.7h0c.5-.4,1.2-.6,1.8-.5h0c1,.1,1.9,1,2,2h0c.2,1.3-.7,2.5-2,2.7h0c-.4,0-.7.4-.6.8h0c0,.4.4.6.7.6h0s0,0,.1,0h0c2.1-.3,3.5-2.3,3.2-4.4h0c-.2-1.7-1.6-3-3.3-3.2h0c-.6,0-1.1,0-1.6.1h0c-.9-1.2-2.3-2-3.9-2h0c-.3,0-.5,0-.8,0h0Z"/>
      </g>
    </mask>
    <mask id="mask-21" data-name="mask-2" x="34.6" y="37.1" width="28.6" height="20.3" maskUnits="userSpaceOnUse">
      <g id="mask-6">
        <path id="path-5" class="st6" d="M38.4,46.8c-1.8,1-2.9,2.8-2.9,4.8h0c0,1.7.7,3.2,2,4.3h0c.1.1.3.2.5.2h0c.2,0,.4,0,.6-.3h0c.3-.3.2-.8-.1-1h0c-1-.8-1.5-1.9-1.5-3.2h0c0-1.5.9-2.9,2.2-3.6h0c0,0,.1,0,.2-.1h0c.3-.1.5-.5.4-.9h0c0,0,0-.1,0-.2h0c0-4,3.3-7.3,7.3-7.3h0c3.5,0,6.5,2.5,7.2,6h0c0,.3.3.5.6.6h0c.1,0,.3,0,.4,0h0c1.5-.2,3,.3,4,1.4h0c.8.9,1.2,2.2,1.1,3.5h0c-.2,2-1.9,3.7-3.9,3.9h0c-.2,0-.4,0-.7,0h0c-.4,0-.7.3-.8.7h0c0,.4.3.7.7.8h0c0,0,.1,0,.2,0h0c.2,0,.5,0,.7,0h0c2.7-.3,4.9-2.5,5.2-5.2h0c0-.2,0-.4,0-.6h0c0-1.5-.5-2.9-1.5-4h0c-1.1-1.2-2.7-2-4.4-2h0c-.2,0-.3,0-.5,0h0c-1-3.9-4.4-6.6-8.5-6.6h0c-4.8,0-8.7,3.9-8.7,8.7h0Z"/>
      </g>
    </mask>
    <mask id="mask-3" x="45.5" y="23.7" width="4" height="4" maskUnits="userSpaceOnUse">
      <g id="mask-8">
        <path id="path-7" class="st6" d="M47,24.7c-.3,0-.5.2-.5.5h0v1c0,.3.2.5.5.5h1c.3,0,.5-.2.5-.5h0v-1c0-.3-.2-.5-.5-.5h-1Z"/>
      </g>
    </mask>
    <mask id="mask-41" data-name="mask-4" x="34.9" y="49.6" width="4" height="4" maskUnits="userSpaceOnUse">
      <g id="mask-10">
        <path id="path-9" class="st6" d="M36.4,50.6c-.3,0-.5.2-.5.5h0v1c0,.3.2.5.5.5h1c.3,0,.5-.2.5-.5h0v-1c0-.3-.2-.5-.5-.5h-1Z"/>
      </g>
    </mask>
  </defs>
  <g id="_x5B_M00_x5D__x5B_02.07_x5D_---First-Entry---Web-Copy-2">
    <g id="organisms_x2F_sections_x2F_USP">
      <g id="WhatsIncluded_x2F_Desktop">
        <g id="Group-2">
          <g id="atoms_x2F_icons_x2F_usp-illustrations_x2F_cancel">
            <g id="Group-3">
              <g class="st5">
                <polygon id="Fill-1" class="st8" points="8.8 17.4 19.8 17.4 19.8 8.6 8.8 8.6 8.8 17.4"/>
              </g>
            </g>
            <g id="Group-6">
              <g class="st4">
                <polygon id="Fill-4" class="st12" points="6.4 18.2 22.4 18.2 22.4 6.4 6.4 6.4 6.4 18.2"/>
              </g>
            </g>
            <path id="Fill-7" class="st8" d="M54.5,47.1c-.1,0-.3,0-.4,0-.5-3.2-3.3-5.6-6.7-5.6s-6.8,3-6.8,6.8v.2c-1.3.5-2.2,1.7-2.2,3.2s1.5,3.4,3.4,3.4.5,1.2,1.1.7c0,0,0,.2,0,.4h7.2s0,0,0,0h.4c1.3,0,3.2,0,4,0,2.6,0,4.7-2,4.7-4.5s-2.1-4.5-4.7-4.5"/>
            <g id="Group-11">
              <g class="st13">
                <polygon id="Fill-9" class="st12" points="34.6 57.5 63.1 57.5 63.1 37.1 34.6 37.1 34.6 57.5"/>
              </g>
            </g>
            <g id="Group-56">
              <path id="Fill-12" class="st9" d="M37.1,19.3c0,2.5,2,4.5,4.5,4.5s4.5-2,4.5-4.5-2-4.5-4.5-4.5-4.5,2-4.5,4.5"/>
              <line id="Stroke-14" class="st0" x1="35.7" y1="11.7" x2="36.8" y2="13.9"/>
              <line id="Stroke-16" class="st0" x1="42.4" y1="10.7" x2="42.1" y2="12.8"/>
              <line id="Stroke-18" class="st0" x1="48" y1="14.4" x2="46.6" y2="15.9"/>
              <line id="Stroke-20" class="st0" x1="49.3" y1="20.8" x2="47.5" y2="20.8"/>
              <path id="Fill-22" class="st6" d="M31.7,22.6l-4-12s-1.1-2.3.5-3.4c1.6-1.1,2.9,1.7,2.9,1.7l8,13.6h-7.5Z"/>
              <path id="Stroke-24" class="st1" d="M31.7,22.6l-4-12s-1.1-2.3.5-3.4c1.6-1.1,2.9,1.7,2.9,1.7l8,13.6h-7.5Z"/>
              <path id="Fill-26" class="st12" d="M28,13.6h-1.4c-.3,0-.6-.3-.6-.6v-1c0-.3.3-.5.6-.5h.8s.7,2.1.7,2.1Z"/>
              <path id="Fill-28" class="st12" d="M30.2,19.4h-2.1c-.5,0-.8-.4-.8-.8v-.9c0-.5.4-.9.9-.9h1.1s.9,2.7.9,2.7Z"/>
              <path id="Fill-30" class="st6" d="M31.7,28.8l-4,12s-1.1,2.3.5,3.4c1.6,1.1,2.9-1.7,2.9-1.7l8-13.6h-7.5Z"/>
              <path id="Stroke-32" class="st1" d="M31.7,28.8l-4,12s-1.1,2.3.5,3.4c1.6,1.1,2.9-1.7,2.9-1.7l8-13.6h-7.5Z"/>
              <path id="Fill-34" class="st6" d="M28.4,38.6h-1.7c-.4,0-.7.3-.7.7v1.1c0,.4.3.7.7.6h.9s.8-2.5.8-2.5Z"/>
              <path id="Stroke-36" class="st2" d="M28.4,38.6h-1.7c-.4,0-.7.3-.7.7v1.1c0,.4.3.7.7.6h.9s.8-2.5.8-2.5Z"/>
              <path id="Fill-38" class="st6" d="M13,25.4c0-.4-.8-2.1-1-3.6-.2-1.5.6-1.9,1.5-1.9s2.9,3.3,2.9,3.3c0,0,16.3-.7,19.3-.7,3,0,9.2-.7,12,.2,1.4.4,3.5.8,3.6,2.8v.2c0,2-2.2,2.4-3.6,2.8-2.8.9-9,.1-12,.2-3,0-19.3-.7-19.3-.7,0,0-2,3.3-2.9,3.3s-1.7-.4-1.5-1.9.9-3.3.9-3.7v-.3Z"/>
              <path id="Stroke-40" class="st1" d="M13,25.4c0-.4-.8-2.1-1-3.6-.2-1.5.6-1.9,1.5-1.9s2.9,3.3,2.9,3.3c0,0,16.3-.7,19.3-.7,3,0,9.2-.7,12,.2,1.4.4,3.5.8,3.6,2.8v.2c0,2-2.2,2.4-3.6,2.8-2.8.9-9,.1-12,.2-3,0-19.3-.7-19.3-.7,0,0-2,3.3-2.9,3.3s-1.7-.4-1.5-1.9.9-3.3.9-3.7v-.3Z"/>
              <path id="Fill-42" class="st10" d="M41.2,58.3H5.6c-1.7,0-3-1.3-3-3v-17.6c0-1.7,1.3-3,3-3h35.6c1.7,0,3,1.3,3,3v17.6c0,1.7-1.3,3-3,3"/>
              <path id="Stroke-44" class="st1" d="M41.2,58.3H5.6c-1.7,0-3-1.3-3-3v-17.6c0-1.7,1.3-3,3-3h35.6c1.7,0,3,1.3,3,3v17.6c0,1.7-1.3,3-3,3Z"/>
              <path id="Stroke-46" class="st1" d="M16.5,23.2s.5,1,.5,2.4-.5,2.4-.5,2.4"/>
              <line id="Stroke-48" class="st3" x1="13.1" y1="25.7" x2="19.4" y2="25.7"/>
              <line id="Stroke-50" class="st3" x1="5.8" y1="49.6" x2="15.6" y2="49.6"/>
              <line id="Stroke-52" class="st3" x1="5.8" y1="52.7" x2="19.2" y2="52.7"/>
              <polygon id="Fill-54" class="st7" points="3.3 45.4 43.4 45.4 43.4 39.1 3.3 39.1 3.3 45.4"/>
            </g>
            <g id="Group-59">
              <g class="st14">
                <polygon id="Fill-57" class="st11" points="45.5 27.7 49.5 27.7 49.5 23.7 45.5 23.7 45.5 27.7"/>
              </g>
            </g>
            <g id="Group-62">
              <g class="st15">
                <polygon id="Fill-60" class="st11" points="34.9 53.6 38.9 53.6 38.9 49.6 34.9 49.6 34.9 53.6"/>
              </g>
            </g>
            <path id="Stroke-63" class="st1" d="M38.7,54.4h-3.5c-.6,0-1-.4-1-1v-3.6c0-.6.4-1,1-1h3.5c.6,0,1,.4,1,1v3.6c0,.6-.4,1-1,1Z"/>
          </g>
        </g>
      </g>
    </g>
  </g>
</svg>