<?xml version="1.0" encoding="UTF-8"?>
<svg id="Layer_1" xmlns="http://www.w3.org/2000/svg" version="1.1" viewBox="0 0 78 67">
  <!-- Generator: Adobe Illustrator 29.0.1, SVG Export Plug-In . SVG Version: 2.1.0 Build 192)  -->
  <defs>
    <style>
      .st0 {
        fill: #d71923;
      }

      .st1 {
        fill: #1c1e23;
      }

      .st2 {
        fill: #fff;
      }
    </style>
  </defs>
  <path class="st1" d="M69.8,15.6c-1.1-1.9-3.9-1.6-8.5.9l-.7-.3c-2.5-2.6-5.4-4.7-8.6-6.1-3.4-1.5-7.1-2.3-10.9-2.3-12.8,0-23.6,9-26.3,21-.2,0-.3,0-.5.2-4.7,3.4-8.2,6.5-10.5,9-2.3,2.5-3.3,4.5-3.1,6.2,0,.8.5,1.9,2,2.6.9.4,2.1.6,3.5.6,2.6,0,6.1-.6,10.1-1.8,2,4.6,5.2,8.5,9.4,11.3,4.5,3.1,9.8,4.7,15.2,4.7,14.8,0,26.9-12.1,26.9-26.9s-1-8.5-2.9-12.2c4.2-2.7,5.8-4.9,4.8-6.8ZM38.4,9.8h-.2c-.5.4-.6.5-1,.6-.2,0-.4.1-.7.2-3,1-3.3,2.8-3.3,3.5,0,1.4,1,2.8,2.5,3.3,1.6.6,3.2,0,4.3-1.3,0,0,0,0,0-.1,1.9,1,1.9,1.4,1.6,2.4-.1.4-.2.6-.2.6,0,0-.2,0-.3,0-.3,0-.7.1-1.3.3-3,.9-5.5,2.9-7.8,6.1-1.4-.9-2.7-1.3-3.9-1.1-1.2.2-1.7.8-2,1.2-.6,1.1,0,2.6.4,3.6,0,.1.1.3.2.4-2.6-2.5-4.2-6-5-10.7,4.1-5,10-8.3,16.7-9.1ZM14.3,31.8c0,.9-.1,1.9-.1,2.8,0,2,.2,4,.7,5.9-4.1.8-5.1,0-5.3-.2-.2-.3-1.1-1.9,4.8-8.5ZM3.5,44.9c-.7-.3-.9-.7-.9-1,0-.7.3-3,6.2-8.2-.2.3-.4.7-.6,1-1.1,2.1-1.2,3.8-.2,4.9,1.2,1.4,3.9,1.6,8.4.6,3.3-.7,7.6-2.1,12.8-4.2,1.4-.5,2.8-1.1,4.1-1.7-4.2,2.2-8.4,4.1-12.6,5.6-7.9,2.9-14.6,4.1-17.2,2.9h0ZM31.1,39.6c1.9-1,3.9-2,5.8-3,.7.8,1.5,1.5,2.6,2.1,1.3.7,2,1.5,2.1,2.3.1,2.2-4.4,5.2-7.1,7-1.3.9-2.3,1.5-2.8,2.1-1,1-1.8,2-1.9,3.1-.1-1,.3-2.7,1.3-5,1.7-3.6,1.1-6.3.1-8.5ZM41.1,59.6c-9.9,0-18.7-5.7-22.8-14.7,1-.3,2.1-.7,3.1-1.1,2.6-1,5.3-2.1,8-3.3.8,1.7,1.3,3.8-.1,6.8,0,0,0,0,0,0-1.5,3.5-1.9,5.7-1.1,7.3.5,1,1.5,1.7,2.9,2,0,0,.1,0,.2,0,.3,0,.6-.1.8-.4.2-.3.2-.7,0-1.1-.8-1.4-.8-2,.9-3.7.4-.4,1.5-1.1,2.6-1.8,3.4-2.3,8.1-5.4,7.9-8.7,0-1.5-1.1-2.8-3.1-3.9-.7-.4-1.2-.9-1.8-1.4,3.5-2,6.8-4.2,10-6.6.4-.3.5-.9.2-1.3-.3-.4-.9-.5-1.3-.2-1.3.9-9.9,5.2-19,8.8-5.2,2.1-9,3.2-11.8,3.9-.4-1.8-.6-3.7-.6-5.5,0-5,1.5-9.7,4.1-13.7,1.4,6.6,4.8,11,10.1,13.1.1,0,.2,0,.4,0,.3,0,.6-.2.8-.4.3-.4.2-.9,0-1.2-1.5-1.6-2.5-3-3-4.2-.6-1.4-.5-1.8-.4-1.9,0-.1.3-.2.6-.2.9-.1,2,.3,3.3,1.3.2.2.5.2.8.2.3,0,.5-.2.7-.4,2.2-3.4,4.5-5.3,7.3-6.2.4-.1.7-.2,1-.2,1.1-.2,1.7-.5,2.1-2.1.6-2.5-.7-3.5-2.6-4.6h-.2c-.5-.4-1.4-.8-2.1.3,0,.1-.1.2-.3.4-.8,1-1.7.9-2.1.7-.7-.3-1.2-.9-1.2-1.5,0-.7.7-1.3,2-1.7.2,0,.4-.1.6-.2.5-.1.9-.2,1.6-.7l2.8-1.9c3.3.1,6.5.9,9.5,2.3,0,0-.2,0-.2,0-.3.1-.6.3-.7.7-.3.6-.1,1.2.4,1.7l5.1,5.3c-1.8,1.3-3.4,2.6-4.6,3.7l-2.7-1s0,0-.1,0h-.6c-.6-.3-1.2,0-1.5.4-.2.3-.3.8.1,1.5l2.4,3.3,1.7,3.7s0,0,0,.1c-1.1,1.1-2.3,3.2-1.7,7.1,0,.4.4.7.8.8,3.1.5,5.1,1.3,5.8,2.4.7,1.1.4,2.7,0,4.5-.6,2.4-1.3,5.4.8,8.2-4.3,3.4-9.7,5.4-15.5,5.4h0ZM58.1,52.9c-1.5-2-.9-4.2-.4-6.4.5-2.1,1-4.2-.2-6-1-1.5-3.1-2.5-6.4-3.1-.3-2.4.3-4.2,1.7-5,1.7-1.1,4.6-.7,7.2,1.1,1.6,1.1,3.7,1.8,6.1,2.3-.3,6.8-3.3,12.9-8,17.2ZM53.5,29.9l.4-2.4c1.5-.5,3.4-1.2,5.4-2.1l1.9,6.5c0,0-.2,0-.2-.1-2.6-1.7-5.3-2.3-7.5-1.8h0ZM66,33.8c-.8-.2-1.5-.4-2.2-.6.2-.2.2-.5.3-.8l.4-6.3c.9,2.4,1.4,5,1.5,7.6ZM63.4,21.1c-.3.2-.4.4-.5.8l-.5,7.1-1.5-5.3c0-.3-.3-.5-.5-.6-.1,0-.3,0-.4,0s-.3,0-.4,0c-2.5,1.2-5,2.2-6.7,2.7-.4,0-.6.4-.7.8l-.3,1.9-.9-2c0,0,0-.1,0-.2l-1.3-1.8,1.8.7c.4.1.8,0,1-.2,1.3-1.3,3.3-2.9,5.7-4.5.2-.2.4-.4.4-.7s0-.6-.3-.8l-3.8-3.9,6.4,3.2c.3.1.6.1.9,0,4.6-2.5,6.1-2.2,6.3-1.8.2.4-.2,1.9-4.8,4.6h0Z"/>
  <g>
    <path class="st0" d="M64.9,32.6c-6.5,1.8-9.2,9.5-5.4,14.9,8.1,11.5,7.6,10.9,7.9,10.9s-.2.6,7.9-10.9c5.1-7.3-1.6-17.3-10.4-14.9ZM67.4,47.3c-3,0-5.4-2.4-5.4-5.4s2.4-5.4,5.4-5.4,5.4,2.4,5.4,5.4-2.4,5.4-5.4,5.4Z"/>
    <ellipse class="st2" cx="67.3" cy="41.9" rx="5.4" ry="5.4"/>
  </g>
</svg>