<?xml version="1.0" encoding="UTF-8"?>
<svg id="Layer_1" xmlns="http://www.w3.org/2000/svg" version="1.1" viewBox="0 0 78 67">
  <!-- Generator: Adobe Illustrator 29.0.1, SVG Export Plug-In . SVG Version: 2.1.0 Build 192)  -->
  <defs>
    <style>
      .st0 {
        fill: #d71923;
      }

      .st0, .st1 {
        stroke: #383838;
        stroke-linecap: round;
        stroke-linejoin: round;
      }

      .st2 {
        fill: #383838;
      }

      .st1 {
        fill: #00af9c;
      }
    </style>
  </defs>
  <g id="Travel_Insurance">
    <path class="st2" d="M30.4,53.3c-2.5,0-4.5-2-4.5-4.5s2-4.5,4.5-4.5,4.5,2,4.5,4.5c0,2.5-2,4.5-4.5,4.5ZM30.4,46.7c-1.1,0-2.1.9-2.1,2.1,0,1.1.9,2.1,2.1,2.1s2.1-.9,2.1-2.1c0-1.1-.9-2.1-2.1-2.1h0Z"/>
    <path class="st2" d="M37,42.5c-.3,0-.6-.1-.8-.4l-4-4c-.5-.5-.5-1.2,0-1.7h0s11.2-11.2,11.2-11.2c.5-.5,1.2-.5,1.7,0,0,0,0,0,0,0l4,4c.5.5.5,1.2,0,1.7,0,0,0,0,0,0l-11.2,11.2c-.2.2-.5.4-.8.4h0ZM34.7,37.3l2.3,2.3,9.5-9.5-2.3-2.3-9.5,9.5Z"/>
    <path class="st2" d="M38,26.4h-11.3c-.7,0-1.2-.5-1.2-1.2v-6.8c0-.7.5-1.2,1.2-1.2h11.3c.7,0,1.2.5,1.2,1.2v6.8c0,.7-.5,1.2-1.2,1.2h0ZM28,24h8.9v-4.4h-8.9v4.4Z"/>
    <path class="st2" d="M72.2,39.8v-.8c0-.7-.5-1.4-1.2-1.6-.8-.3-1.6-.5-2.5-.7v-14.5c0-.2,0-.4,0-.5,0,0,0,0,0,0v-3.6c0-2.5-2.1-4.6-4.6-4.6h-11l-.3-1.8c-1.1-5-5.5-8.5-10.6-8.4h-10.3c-5.1-.1-9.6,3.4-10.6,8.4l-.3,1.8h-6.9c-.2,0-.4,0-.5,0,0,0,0,0,0,0h-3.5c-2.5,0-4.6,2.1-4.6,4.6v36.1c0,2.5,2.1,4.6,4.6,4.6h40c1.1,1.7,2.5,3.1,4.1,4.3,1.4,1,2.8,1.9,4.4,2.6.4.2.9.2,1.4,0,1.6-.7,3-1.5,4.4-2.6,8.3-6,8.2-17.9,8.1-23h0ZM66.2,23.1h0s0,12.9,0,12.9c-2.4-.5-4.7-.7-7.1-.7-.4,0-.8,0-1.2,0V15.7h1,0c0,4.1,3.3,7.4,7.4,7.4h0ZM66.2,17.9v2.8h0c-2.8,0-5-2.2-5-5h0s2.8,0,2.8,0c1.2,0,2.2,1,2.2,2.2h0ZM55.4,35.6c-1.1.1-2.2.3-3.2.5V15.7h3.2v19.8ZM31.8,5.5h10.3c3.9-.1,7.4,2.6,8.3,6.5l.3,1.4h-1.8l-.2-1.1c-.6-3.1-3.4-5.2-6.5-5.2h-10.3c-3.1,0-5.8,2.1-6.5,5.2l-.2,1.1h-1.8l.3-1.4c.8-3.9,4.3-6.6,8.3-6.5h0ZM46.3,13.3h-18.8v-.7c.6-1.9,2.3-3.3,4.3-3.2h10.3c2,0,3.7,1.3,4.1,3.2v.7ZM7.7,48.9v-25.8c4,0,7.2-3.4,7.3-7.4h0s1,0,1,0v40.5h-1c0-4-3.3-7.2-7.2-7.2ZM9.8,15.7h2.7c0,2.7-2.2,4.9-4.9,5v-2.8c0-1.2,1-2.2,2.2-2.2ZM7.7,54v-2.7c2.6,0,4.8,2.2,4.8,4.8h-2.7c-1.2,0-2.2-1-2.2-2.2h0ZM18.3,56.2V15.7h3.2v40.5h-3.2ZM23.9,56.2V15.7h25.8v20.9c-.9.2-1.8.5-2.7.8-.7.2-1.2.9-1.2,1.6v.8c0,3.6-.1,10.5,2.6,16.3h-24.5ZM62.7,60.9c-1.1.9-2.4,1.6-3.7,2.2-1.3-.6-2.5-1.3-3.7-2.2-7.3-5.2-7.2-16.3-7.1-21v-.4c7-2.3,14.6-2.3,21.6,0v.4c0,4.7.2,15.8-7.1,21h0Z"/>
    <path class="st2" d="M57.1,53.5c-.4,0-.9-.2-1.2-.5l-2.7-3.2c-.4-.5-.4-1.3.1-1.7s1.3-.4,1.7.1h0l2.1,2.4,5.9-7c.4-.5,1.2-.6,1.7-.1.5.4.6,1.2.1,1.7,0,0,0,0,0,0l-6.6,7.8c-.3.3-.7.5-1.2.5h0Z"/>
  </g>
  <g id="g19">
    <g id="g25">
      <path id="path27" class="st0" d="M59.5,33.4l13.7,4.3v11.5c0,8.1-5.7,15.1-13.7,16.6h0c-7.9-1.5-13.7-8.5-13.7-16.6v-11.5l13.7-4.3"/>
    </g>
    <g id="g29">
      <path id="path31" class="st0" d="M68,55.4c1-1.9,1.5-4,1.5-6.2v-8.8l-10-3.1-10,3.1v8.8c0,6.1,4.2,11.4,10,12.8,1.7-.4,3.3-1.2,4.6-2.2"/>
    </g>
    <g id="g33">
      <path id="path35" class="st0" d="M58.3,53.9l-4.4-4.4,2.2-2.2,2.2,2.2,4.6-4.6,2.2,2.2-6.8,6.8Z"/>
    </g>
    <g id="g37">
      <path id="path39" class="st1" d="M66.3,57.8h0"/>
    </g>
  </g>
</svg>