<?xml version="1.0" encoding="UTF-8"?>
<svg id="Layer_1" xmlns="http://www.w3.org/2000/svg" version="1.1" viewBox="0 0 73 71">
  <!-- Generator: Adobe Illustrator 29.0.1, SVG Export Plug-In . SVG Version: 2.1.0 Build 192)  -->
  <defs>
    <style>
      .st0 {
        fill: #383838;
      }

      .st1 {
        fill: #d71923;
        stroke: #383838;
        stroke-linecap: round;
        stroke-linejoin: round;
      }

      .st1, .st2 {
        fill-rule: evenodd;
      }

      .st2 {
        fill: #d1e3f4;
      }
    </style>
  </defs>
  <g id="Page-1">
    <g id="_x5B_M00_x5D__x5B_02.07_x5D_---First-Entry---Web-Copy-2">
      <g id="JoinOurNewsletter_x2F_Desktop-Copy">
        <g id="WhatsIncluded_x2F_Desktop">
          <g id="Group-3">
            <g id="Group">
              <polygon id="Fill-1" class="st1" points="27.8 31.8 30.4 26.3 32.9 28.9 37.3 31.2 41.6 31.7 42.4 31.7 42.7 28.2 44.6 30.1 46.5 31.5 49 31.5 51.1 30.7 51.3 25.6 51.1 23.9 50.3 22.5 48.9 20.5 47.1 18.7 44.4 16.8 42.2 15.6 41.9 12.6 40.1 14 38.8 15.2 36.3 14.9 34.9 14.3 34.3 16.2 31.8 17.5 28.8 19.4 26.7 22 25.5 25.5 25.5 28.3 26 30.5 27.8 31.8"/>
              <g id="Group-40">
                <path id="Fill-2" class="st2" d="M59.1,63.7v-1.1c0-7-5.5-12.7-12.5-13-1.5,2.1-4.4,3.5-7.8,3.5s-6.3-1.4-7.8-3.5c-6.9.3-12.5,6-12.5,13v1.1s40.9-.3,40.6,0"/>
                <path id="Stroke-4" class="st0" d="M46.7,48.9h-.4s-.2.3-.2.3c-1.4,2-4.2,3.2-7.3,3.2s-5.9-1.3-7.3-3.2l-.2-.3h-.4c-7.3.3-13.1,6.3-13.1,13.7v1.8h10.3c0,0,9.6,0,9.6,0h9.5s5.7,0,5.7,0h3.9s1.3,0,1.3,0h.3v1l1.2-1.2h0c.1-.2.1-.3.1-.5h0s0,0,0,0v-1.1c0-7.4-5.8-13.4-13.1-13.7ZM47,50.3h.2c6.3.6,11.2,5.9,11.2,12.3v.4h-1.6s-3.1,0-3.1,0h-3.8s-9,0-9,0h-12.9s-8.9,0-8.9,0v-.7c.1-6.3,5-11.4,11.2-12h.2s0,.1,0,.1c1.7,2.1,4.8,3.4,8.1,3.4s6.3-1.3,8.1-3.4h0Z"/>
                <path id="Stroke-6" class="st0" d="M25.6,59.5c.3,0,.6.3.7.6h0v3.4c0,.4-.3.7-.7.7s-.6-.3-.7-.6h0v-3.4c0-.4.3-.7.7-.7Z"/>
                <path id="Stroke-8" class="st0" d="M51.3,59.5c.3,0,.6.3.7.6h0v3.4c0,.4-.3.7-.7.7s-.6-.3-.7-.6h0v-3.4c0-.4.3-.7.7-.7Z"/>
                <path id="Stroke-10" class="st0" d="M29.5,25.8c.1-.6.9-.7,1.2-.3l.2.2.2.3.2.2c.5.6,1,1.1,1.6,1.7.9.9,1.8,1.6,2.6,1.9.2.1.4.2.6.3.5.2,1.2.3,1.8.4,1,.2,2.1.4,3.2.5h.5c0,0,.2,0,.2,0v-3.2c0-.7.9-.9,1.3-.4h0c0,0,0,.2,0,.2v.2c.1,0,.3.2.3.2.3.4.6.8,1,1.2.8.8,1.6,1.4,2.4,1.5.1,0,.2,0,.3,0,.8,0,1.6,0,2.5-.4h.3c0-.1.3-.2.3-.2h.2c0-.1.1-.2.2-.2.3-.2.7,0,.9.3s0,.7-.3.9h-.2c0,.1,0,.1-.1.2h-.3c-.2.2-.3.3-.5.3-1,.4-2.1.6-3.1.5-.2,0-.3,0-.4,0-1-.2-2-.8-2.9-1.7l-.2-.2-.2-.3v1.9c0,.4-.3.7-.7.7h0s-.4,0-.4,0h-.5c0,0-.6-.1-.6-.1-1.1-.1-2.2-.3-3.3-.5-.7-.1-1.4-.3-1.9-.5-.3,0-.6-.2-.8-.3-1-.5-2-1.2-3-2.2-.5-.5-.9-.9-1.4-1.4h0c0,0,0,0,0,0,0,.1-.1.3-.2.5l-.2.4c0,0,0,.1,0,.2l-.2.5-.3.7v.2c-.2.3-.4.7-.6,1.1l-.6,1.2c-.2.4-.7.5-1,.2h0c0,0-2.2-2.3-2.2-2.3-.3-.3-.3-.7,0-1,.2-.2.6-.3.9,0h0c0,0,1.5,1.6,1.5,1.6l.3-.6.5-1.1.3-.6.2-.4v-.3c.1,0,.3-.3.3-.3v-.2c.1,0,.1,0,.1-.1v-.2c0,0,0,0,0,0l.2-1Z"/>
                <path id="Stroke-12" class="st0" d="M31.9,12.4c0,.4-.3.7-.6.7h-.4s-.6,0-.6,0c-.2,0-.4,0-.6,0-1.2.1-2.4.4-3.5.6-.7.2-1.4.4-1.9.6-.2,0-.5.2-.7.3-1.2.5-2.3,1-3.4,1.5l-.5.3-.8.4-.5.3-.4-.5-.2-.2s0,0,0-.1c-.3-.3-.6-.6-.9-.9-.9-.8-1.7-1.2-2.5-1.2-.5,0-.9.2-1.3.6-.4.4-.6.8-.6,1.3,0,.7.4,1.6,1.2,2.5.3.3.6.6.9.9l.2.2.2.2.3.3v.7c-.1,0-.3.8-.3.8-.1.8-.3,1.7-.4,2.7-.3,2-.5,4-.6,5.8,0,.7,0,1.3,0,1.9s0,1.6,0,2.4c.1,1.7.4,3.6.7,5.5.1.8.3,1.6.4,2.3l.2.7.2.9v.4c0,0-.3.4-.3.4l-.3.3c-.3.3-.7.7-1,1.1-.5.7-.9,1.4-1.1,2-.3.7-.2,1.3.1,1.7,1.2,1.4,2.3,1.1,3.5-.3.3-.3.5-.6.7-.9v-.2c.1,0,.2-.2.2-.2l.3-.6,1.1.6.8.4.6.3.4.2.6.2h.3c0,.2.2.2.2.2.4.1.6.5.4.9-.1.4-.5.6-.9.4h-.1s-.3-.2-.3-.2h-.4c0-.1-.4-.3-.4-.3l-.7-.3-.4-.2-.8-.4v.2c-.3.2-.4.4-.5.5l-.2.3c-1.7,2-3.8,2.5-5.6.3-.7-.8-.8-1.9-.4-3.1.3-.8.7-1.6,1.4-2.4.3-.3.5-.6.8-.9l.4-.4h0c0,0-.2-.8-.2-.8-.2-.9-.4-1.8-.6-2.9-.3-1.9-.6-3.8-.7-5.6,0-.9,0-1.7,0-2.5s0-1.3,0-2c0-1.9.3-3.9.6-6,.1-.8.2-1.5.3-2.2v-.7c.1,0,.2-.5.2-.5h-.1c-.3-.4-.7-.8-1-1.2-1-1.1-1.5-2.2-1.5-3.4,0-.8.3-1.6,1-2.2.7-.7,1.4-1,2.2-1,1.1,0,2.3.6,3.4,1.6.3.2.5.5.8.8l.3.3.6-.3h.3c1.1-.7,2.2-1.2,3.4-1.7.3-.1.5-.2.8-.3.6-.3,1.3-.5,2.1-.7,1.2-.3,2.4-.5,3.7-.7h.3s.6-.1.6-.1h.5s.2,0,.2,0c.4,0,.7.3.7.6Z"/>
                <path id="Stroke-14" class="st0" d="M46.2,11.7h.5s.3,0,.3,0h.6c.1,0,.2,0,.3.1,1.3.2,2.5.4,3.7.7.8.2,1.5.4,2.1.7.3.1.5.2.8.3,1.2.5,2.4,1,3.4,1.6l.5.3.4.2h0c.2-.3.5-.6.8-.8l.3-.3c1.1-1,2.2-1.6,3.4-1.6.8,0,1.6.3,2.2,1,.6.6,1,1.4,1,2.2,0,1.1-.6,2.3-1.5,3.4-.2.3-.5.5-.7.8l-.3.3h0c0,0,.1.7.1.7.1.8.3,1.8.4,2.8.3,2.1.5,4.1.6,6,0,.7,0,1.3,0,2s0,1.6,0,2.5c-.1,1.8-.4,3.7-.7,5.6-.1.8-.3,1.6-.4,2.3l-.2.8v.5c-.1,0,0,.2,0,.2.4.4.7.8,1.1,1.2.6.8,1.1,1.6,1.4,2.4.4,1.2.3,2.2-.4,3.1-1.8,2.1-3.9,1.7-5.6-.3-.2-.3-.4-.5-.6-.8v-.2c-.1,0-1,.4-1,.4l-.6.3-.5.2-.4.2h-.4c0,.1-.3.3-.3.3,0,0,0,0-.1,0-.4.1-.7,0-.9-.4-.1-.4,0-.7.4-.9,0,0,.1,0,.2,0h.3c0-.1.6-.4.6-.4l.6-.3.8-.4.9-.5.6-.3.3.6v.2c0,0,.2.2.2.2.2.3.4.6.7.9,1.2,1.4,2.4,1.7,3.5.3.4-.4.4-1,.1-1.7-.2-.6-.6-1.3-1.1-2-.3-.4-.6-.8-1-1.1l-.3-.3h-.1c0,0-.3-.4-.3-.4l.2-.7v-.6c.1,0,.2-.2.2-.2.2-.9.4-1.8.6-2.8.3-1.9.6-3.8.7-5.5,0-.8,0-1.6,0-2.4s0-1.3,0-1.9c0-1.8-.3-3.8-.6-5.8-.1-.8-.2-1.5-.3-2.2l-.2-.9v-.6c-.1,0-.2-.4-.2-.4l.4-.3h.1c0-.1.2-.3.2-.3.3-.3.6-.6.9-.9.8-.9,1.2-1.8,1.2-2.5,0-.5-.2-.9-.6-1.3-.4-.4-.8-.6-1.3-.6-.7,0-1.6.5-2.5,1.2-.3.3-.6.6-.9.9l-.2.3h0c0,.1-.4.6-.4.6l-.8-.4-.6-.3-.5-.3c-1.1-.5-2.2-1.1-3.4-1.5-.2-.1-.5-.2-.7-.3-.6-.2-1.2-.4-1.9-.6-1.1-.3-2.3-.5-3.5-.6-.2,0-.4,0-.6,0h-.8c0,0-.2,0-.2,0-.4,0-.7-.3-.6-.7s.3-.7.7-.6Z"/>
                <path id="Stroke-16" class="st0" d="M67.4,20.4c.4-.1.7.1.9.5l.2.6v.4c.3.7.5,1.5.6,2.4.4,2,.7,4,.7,5.9.1,2.7,0,5.3-.2,7.8v.7c0,0-.1.6-.1.6v.9c-.2.4-.5.6-.9.6-.4,0-.6-.4-.6-.8v-.6c0,0,.1-.6.1-.6v-.6c0-.1,0-.2,0-.3.2-2.5.3-5.1.2-7.7,0-1.8-.3-3.8-.7-5.7-.1-.7-.3-1.3-.4-1.9l-.2-.7v-.5c-.1,0-.2,0-.2,0-.1-.4.1-.7.5-.9Z"/>
                <path id="Stroke-18" class="st0" d="M68.5,41.7c.3,0,.6.4.6.7h0c0,0-.3,1.8-.3,1.8,0,.4-.4.6-.8.6-.3,0-.6-.4-.6-.7h0c0,0,.3-1.8.3-1.8,0-.3.4-.6.7-.6h0Z"/>
                <path id="Stroke-20" class="st0" d="M21.5,6.7c.5-.3,1.1.1,1,.7h0c0,0-.7,2.7-.7,2.7l1.2-.6c.3-.2.7,0,.9.2h0c.2.4,0,.8-.2,1h0s-2.6,1.4-2.6,1.4c-.5.3-1.1-.2-1-.7h0c0,0,.6-2.6.6-2.6l-1.2.7c-.3.2-.7,0-.9-.2h0c-.2-.4,0-.8.2-1h0c0,0,2.6-1.5,2.6-1.5Z"/>
                <path id="Stroke-22" class="st0" d="M29.4,4.2c.6,0,.9.7.5,1.1h0c0,0-2.5,2.6-2.5,2.6h2.7c.3,0,.6.3.7.6h0c0,.4-.3.7-.6.8h0s-4.4,0-4.4,0c-.6,0-.9-.7-.5-1.1h0c0,0,2.5-2.6,2.5-2.6h-1.9c-.3,0-.6-.3-.7-.6h0c0-.4.3-.7.6-.8h0s3.6,0,3.6,0Z"/>
                <path id="Stroke-24" class="st0" d="M38,.7c.6,0,.9.7.5,1.1h0c0,0-4.7,4.8-4.7,4.8h4.8c.3,0,.6.3.7.6h0c0,.4-.3.7-.6.8h0s-6.5,0-6.5,0c-.6,0-.9-.7-.5-1.1h0c0,0,4.7-4.8,4.7-4.8h-4c-.3,0-.6-.3-.7-.6h0c0-.4.3-.7.6-.8h0s5.7,0,5.7,0Z"/>
                <path id="Stroke-26" class="st0" d="M66.9,62.9c1.8,0,3.3,1.4,3.4,3.2v.2s0,3.6,0,3.6c0,.4-.3.7-.7.7s-.6-.3-.7-.6h0v-3.7c0-1.1-.8-1.9-1.9-2h-.1s-56.8,0-56.8,0c-1.1,0-1.9.8-2,1.9h0v3.8c0,.4-.3.7-.7.7s-.6-.3-.7-.6h0v-3.7c0-1.8,1.4-3.3,3.2-3.4h.2s56.8,0,56.8,0Z"/>
                <path id="Stroke-28" class="st0" d="M51.6,68c.4,0,.7.3.7.7s-.3.6-.6.7h0s-38.1,0-38.1,0c-.4,0-.7-.3-.7-.7s.3-.6.6-.7h0s38.1,0,38.1,0Z"/>
                <path id="Stroke-30" class="st0" d="M55.3,67.8c.4,0,.7.3.7.7s-.3.6-.6.7h0s-1.3,0-1.3,0c-.4,0-.7-.3-.7-.7s.3-.6.6-.7h0s1.3,0,1.3,0Z"/>
                <path id="Stroke-32" class="st0" d="M41.4,11.6c.4-.4,1.1-.2,1.2.3h0c0,0,.1,3,.1,3h0c0,0,.2.1.3.2l.3.2.3.2.4.2.4.2c0,0,.1,0,.2.1l.5.3c0,0,.2.1.3.2l.2.2c2.6,1.7,4.6,4,5.7,6.3.4.8.5,2,.6,3.4,0,1,0,2.1-.1,3.2v.6c0,0,0,.2,0,.2h0c0,0,.1.2.2.2h.1c.4.7.7,1.4.7,2.3,0,1.8-.4,3-1.2,3.6-.2.2-.5.3-.7.4h-.1s0,.1,0,.1c0,.4-.2.8-.3,1.2v.3c-.6,1.6-1.3,3.1-2.1,4.6-2.4,4.2-5.7,6.8-10.1,6.8s-7.5-2.6-9.7-6.8c-.7-1.5-1.3-3-1.7-4.5-.1-.4-.2-.8-.3-1.2v-.4c0,0-.1,0-.1,0-.3,0-.7-.1-1-.4h-.1c-.8-.8-1.2-1.9-1.2-3.7s.2-1.6.7-2.2c0-.1.1-.2.2-.3h.1c0-.1,0-.6,0-.6v-.3c-.1-1.1-.2-2.2-.1-3.2,0-1.4.2-2.6.6-3.4.7-1.6,1.9-3.2,3.4-4.6,0,0,.1-.1.2-.1h0s0,0,0,0c.5-.4,1-.7,1.7-1.1h.3c.6-.5,1.3-.8,2-1l.5-.2h.1s.5-2.1.5-2.1c.1-.4.6-.6,1-.4h0s.2.2.2.2l.3.2.4.2h.2c0,.1.2.2.2.2h.2c0,.1,0,0,0,0,0,0,.1,0,.2,0h.2s.3,0,.3,0h.6s.6,0,.6,0l2.5-2.6ZM41.3,13.8l-1.5,1.7c-.1.1-.3.2-.4.2h0s-.6,0-.6,0h-.6s-.8,0-.8,0c-.3.1-.5,0-1-.1h-.3c0-.1-.4-.4-.4-.4h-.2c0,0-.4,1.4-.4,1.4,0,.2-.2.4-.4.4h0s-.4.2-.4.2l-.4.2c-.6.2-1.3.5-1.9.8-.9.4-1.5.9-2,1.3h-.1c0,.2-.2.3-.3.3h0s-.2.2-.2.2c-1,1-1.8,2.2-2.4,3.3v.3c-.4.6-.6,1.7-.6,2.9,0,1,0,2,.1,3.1v.5c0,0,.1.5.1.5,0,.2,0,.5-.3.6h0c0,0-.2.2-.3.4-.2.3-.4.8-.4,1.3,0,1.4.3,2.2.7,2.5.2.1.3.2.4.2h0s0,0,0,0c.2,0,.3,0,.4,0h0c.3,0,.6.2.7.5h0c0,0,0,.3,0,.3v.3c.1.4.3.9.4,1.4.4,1.5.9,2.9,1.6,4.3,1.9,3.8,4.7,6,8.5,6s6.7-2.3,8.9-6.1c.8-1.4,1.4-2.8,1.9-4.3.1-.4.3-.8.4-1.2v-.4c.1,0,.2-.4.2-.4,0,0,0,0,0,0,0-.3.3-.5.7-.5h0c.1,0,.3,0,.5-.2.4-.3.7-1.1.7-2.5s-.1-1-.4-1.3c-.1-.1-.2-.2-.3-.3h0c-.2-.2-.4-.4-.4-.7v-.3s0-.5,0-.5c0,0,0-.2,0-.3,0-1,.1-2.1.1-3.1,0-1.3-.2-2.3-.5-2.9-.9-2.1-2.8-4.2-5.2-5.7l-.3-.2-.5-.3c0,0-.2-.1-.2-.1l-.5-.3c0,0-.1,0-.2-.1l-.4-.2c0,0-.1,0-.2,0h-.2c0-.1-.2-.2-.2-.2h-.2c0,0-.1-.1-.1-.1h0c-.3,0-.4-.3-.5-.6h0c0,0,0-1.8,0-1.8Z"/>
                <path id="Stroke-34" class="st0" d="M35.3,35.3c.4,0,.7.3.7.7s-.3.6-.6.7h0s-2.6,0-2.6,0c-.4,0-.7-.3-.7-.7s.3-.6.6-.7h0s2.6,0,2.6,0Z"/>
                <path id="Stroke-36" class="st0" d="M44.1,35.3c.4,0,.7.3.7.7s-.3.6-.6.7h0s-2.6,0-2.6,0c-.4,0-.7-.3-.7-.7s.3-.6.6-.7h0s2.6,0,2.6,0Z"/>
                <path id="Stroke-38" class="st0" d="M41,42.9c.2-.3.6-.4.9-.2.3.2.4.6.2.9-.2.3-.5.7-1,1-.8.6-1.8,1-2.9,1s-2.1-.4-3-1c-.5-.4-.8-.7-1-1-.2-.3-.1-.7.2-1,.3-.2.7-.1,1,.2,0,.2.3.4.7.7.6.4,1.3.7,2.1.7s1.5-.3,2-.7c.3-.3.6-.5.6-.7Z"/>
              </g>
            </g>
          </g>
        </g>
      </g>
    </g>
  </g>
</svg>