<?xml version="1.0" encoding="UTF-8" standalone="no"?>
<svg xmlns:dc="http://purl.org/dc/elements/1.1/" xmlns:cc="http://creativecommons.org/ns#" xmlns:rdf="http://www.w3.org/1999/02/22-rdf-syntax-ns#" xmlns:svg="http://www.w3.org/2000/svg" xmlns="http://www.w3.org/2000/svg" viewBox="0 0 53.333332 53.333332" height="53.333332" width="53.333332" xml:space="preserve" id="svg2" version="1.1">
  <metadata id="metadata8">
    <rdf:RDF>
      <cc:Work rdf:about="">
        <dc:format>image/svg+xml</dc:format>
        <dc:type rdf:resource="http://purl.org/dc/dcmitype/StillImage" />
      </cc:Work>
    </rdf:RDF>
  </metadata>
  <defs id="defs6">
    <clipPath id="clipPath18" clipPathUnits="userSpaceOnUse">
      <path id="path16" d="M 0,40 H 40 V 0 H 0 Z" />
    </clipPath>
  </defs>
  <g transform="matrix(1.3333333,0,0,-1.3333333,0,53.333333)" id="g10">
    <g id="g12">
      <g clip-path="url(#clipPath18)" id="g14">
        <g transform="translate(39.2575,20)" id="g20">
          <path id="path22" style="fill:none;fill-opacity:0;fill-rule:nonzero;stroke:none" d="m 0,0 c 0,-10.636 -8.622,-19.257 -19.257,-19.257 -10.636,0 -19.258,8.621 -19.258,19.257 0,10.636 8.622,19.257 19.258,19.257 C -8.622,19.257 0,10.636 0,0" />
        </g>
        <g transform="translate(39.2575,20)" id="g24">
          <path id="path26" style="fill:none;stroke:none;stroke-width:1;stroke-linecap:butt;stroke-linejoin:miter;stroke-miterlimit:10;stroke-dasharray:none;stroke-opacity:1" d="m 0,0 c 0,-10.636 -8.622,-19.257 -19.257,-19.257 -10.636,0 -19.258,8.621 -19.258,19.257 0,10.636 8.622,19.257 19.258,19.257 C -8.622,19.257 0,10.636 0,0 Z" />
        </g>
        <g transform="translate(27.6488,23.2781)" id="g28">
          <path id="path30" style="fill:#bbb9ba;fill-opacity:1;fill-rule:nonzero;stroke:none" d="M 0,0 V 4.371 H -4.371 V 6.556 H 0 C 0.601,6.556 1.115,6.342 1.543,5.914 1.971,5.486 2.185,4.972 2.185,4.371 V 0 Z m -17.483,0 v 4.371 c 0,0.601 0.214,1.115 0.642,1.543 0.428,0.428 0.942,0.642 1.543,0.642 h 4.371 V 4.371 h -4.371 V 0 Z m 13.112,-13.112 v 2.185 H 0 v 4.371 h 2.185 v -4.371 c 0,-0.601 -0.214,-1.115 -0.642,-1.543 C 1.115,-12.898 0.601,-13.112 0,-13.112 Z m -10.927,0 c -0.601,0 -1.115,0.214 -1.543,0.642 -0.428,0.428 -0.642,0.942 -0.642,1.543 v 4.371 h 2.185 v -4.371 h 4.371 v -2.185 z" />
        </g>
        <g transform="translate(20,21.522)" id="g32">
          <path id="path34" style="fill:#bbb9ba;fill-opacity:1;fill-rule:nonzero;stroke:none" d="M 0,0 C 0.419,0 0.777,0.149 1.075,0.447 1.373,0.745 1.522,1.103 1.522,1.522 1.522,1.941 1.373,2.299 1.075,2.597 0.777,2.895 0.419,3.044 0,3.044 -0.419,3.044 -0.777,2.895 -1.075,2.597 -1.373,2.299 -1.522,1.941 -1.522,1.522 -1.522,1.103 -1.373,0.745 -1.075,0.447 -0.777,0.149 -0.419,0 0,0 m -4.566,-6.088 h 9.132 v 0.609 c 0,0.139 -0.035,0.266 -0.105,0.38 C 4.391,-4.984 4.3,-4.896 4.185,-4.832 3.501,-4.49 2.809,-4.233 2.112,-4.062 1.414,-3.891 0.71,-3.805 0,-3.805 c -0.71,0 -1.414,-0.086 -2.112,-0.257 -0.697,-0.171 -1.389,-0.428 -2.073,-0.77 -0.115,-0.064 -0.206,-0.152 -0.276,-0.267 -0.07,-0.114 -0.105,-0.241 -0.105,-0.38 z M -6.088,-7.61 v 2.131 c 0,0.431 0.111,0.828 0.333,1.189 0.222,0.361 0.517,0.637 0.885,0.828 0.786,0.393 1.585,0.688 2.397,0.884 0.812,0.197 1.636,0.295 2.473,0.295 0.837,0 1.661,-0.098 2.473,-0.295 C 3.285,-2.774 4.084,-3.069 4.87,-3.462 5.238,-3.653 5.533,-3.929 5.755,-4.29 5.977,-4.651 6.088,-5.048 6.088,-5.479 V -7.61 Z M 0,-1.522 c -0.837,0 -1.554,0.298 -2.15,0.894 -0.596,0.596 -0.894,1.313 -0.894,2.15 0,0.837 0.298,1.554 0.894,2.15 0.596,0.596 1.313,0.894 2.15,0.894 0.837,0 1.554,-0.298 2.15,-0.894 C 2.746,3.076 3.044,2.359 3.044,1.522 3.044,0.685 2.746,-0.032 2.15,-0.628 1.554,-1.224 0.837,-1.522 0,-1.522" />
        </g>
      </g>
    </g>
  </g>
</svg>
