<?xml version="1.0" encoding="UTF-8" standalone="no"?>
<svg xmlns:dc="http://purl.org/dc/elements/1.1/" xmlns:cc="http://creativecommons.org/ns#" xmlns:rdf="http://www.w3.org/1999/02/22-rdf-syntax-ns#" xmlns:svg="http://www.w3.org/2000/svg" xmlns="http://www.w3.org/2000/svg" viewBox="0 0 53.333332 53.333332" height="53.333332" width="53.333332" xml:space="preserve" id="svg2" version="1.1">
  <metadata id="metadata8">
    <rdf:RDF>
      <cc:Work rdf:about="">
        <dc:format>image/svg+xml</dc:format>
        <dc:type rdf:resource="http://purl.org/dc/dcmitype/StillImage" />
      </cc:Work>
    </rdf:RDF>
  </metadata>
  <defs id="defs6">
    <clipPath id="clipPath18" clipPathUnits="userSpaceOnUse">
      <path id="path16" d="M 0,40 H 40 V 0 H 0 Z" />
    </clipPath>
  </defs>
  <g transform="matrix(1.3333333,0,0,-1.3333333,0,53.333333)" id="g10">
    <g id="g12">
      <g clip-path="url(#clipPath18)" id="g14">
        <g transform="translate(39.2575,20)" id="g20">
          <path id="path22" style="fill:none;fill-opacity:1;fill-rule:nonzero;stroke:none" d="m 0,0 c 0,-10.636 -8.622,-19.257 -19.257,-19.257 -10.636,0 -19.258,8.621 -19.258,19.257 0,10.636 8.622,19.257 19.258,19.257 C -8.622,19.257 0,10.636 0,0" />
        </g>
        <g transform="translate(39.2575,20)" id="g24">
          <path id="path26" style="fill:none;stroke:none;stroke-width:1;stroke-linecap:butt;stroke-linejoin:miter;stroke-miterlimit:10;stroke-dasharray:none;stroke-opacity:1" d="m 0,0 c 0,-10.636 -8.622,-19.257 -19.257,-19.257 -10.636,0 -19.258,8.621 -19.258,19.257 0,10.636 8.622,19.257 19.258,19.257 C -8.622,19.257 0,10.636 0,0 Z" />
        </g>
        <g transform="translate(12.1126,30.971)" id="g28">
          <path id="path30" style="fill:#bbb9ba;fill-opacity:1;fill-rule:nonzero;stroke:none" d="m 0,0 c -0.897,0 -1.626,-0.729 -1.626,-1.626 v -18.69 c 0,-0.896 0.729,-1.626 1.626,-1.626 h 15.775 c 0.896,0 1.626,0.73 1.626,1.626 v 18.69 C 17.401,-0.729 16.671,0 15.775,0 Z M 15.775,-23.731 H 0 c -1.883,0 -3.416,1.532 -3.416,3.415 v 18.69 c 0,1.883 1.533,3.415 3.416,3.415 h 15.775 c 1.883,0 3.415,-1.532 3.415,-3.415 v -18.69 c 0,-1.883 -1.532,-3.415 -3.415,-3.415" />
        </g>
        <g transform="translate(25.9328,21.6154)" id="g32">
          <path id="path34" style="fill:#bbb9ba;fill-opacity:1;fill-rule:nonzero;stroke:none" d="m 0,0 c 0,3.277 -2.656,5.933 -5.933,5.933 -3.276,0 -5.933,-2.656 -5.933,-5.933 0,-3.277 2.657,-5.933 5.933,-5.933 C -2.656,-5.933 0,-3.277 0,0" />
        </g>
        <g transform="translate(18.0997,17.5922)" id="g36">
          <path id="path38" style="fill:#ffffff;fill-opacity:1;fill-rule:nonzero;stroke:none" d="m 0,0 c -1.293,0.612 -2.243,1.826 -2.489,3.282 h 1.812 C -0.603,1.873 -0.32,0.788 0,0" />
        </g>
        <g transform="translate(20.0139,17.1658)" id="g40">
          <path id="path42" style="fill:#ffffff;fill-opacity:1;fill-rule:nonzero;stroke:none" d="m 0,0 h -0.014 -0.014 c -0.111,0.162 -0.264,0.413 -0.422,0.765 -0.278,0.63 -0.574,1.59 -0.658,2.943 H 1.075 C 0.992,2.355 0.7,1.395 0.417,0.765 0.26,0.413 0.107,0.162 -0.005,0 Z" />
        </g>
        <g transform="translate(21.9003,17.5922)" id="g44">
          <path id="path46" style="fill:#ffffff;fill-opacity:1;fill-rule:nonzero;stroke:none" d="M 0,0 C 0.315,0.793 0.598,1.873 0.677,3.282 H 2.489 C 2.243,1.826 1.293,0.612 0,0" />
        </g>
        <g transform="translate(22.5771,22.357)" id="g48">
          <path id="path50" style="fill:#ffffff;fill-opacity:1;fill-rule:nonzero;stroke:none" d="M 0,0 C -0.074,1.409 -0.357,2.494 -0.677,3.282 0.616,2.67 1.567,1.455 1.812,0 Z" />
        </g>
        <g transform="translate(19.9861,26.065)" id="g52">
          <path id="path54" style="fill:#ffffff;fill-opacity:1;fill-rule:nonzero;stroke:none" d="m 0,0 h 0.014 0.014 c 0.111,-0.162 0.264,-0.413 0.422,-0.765 0.278,-0.63 0.574,-1.59 0.658,-2.943 h -2.183 c 0.083,1.353 0.375,2.313 0.658,2.943 0.157,0.352 0.31,0.603 0.422,0.765 z" />
        </g>
        <g transform="translate(18.0997,25.6385)" id="g56">
          <path id="path58" style="fill:#ffffff;fill-opacity:1;fill-rule:nonzero;stroke:none" d="M 0,0 C -0.315,-0.793 -0.598,-1.873 -0.677,-3.282 H -2.489 C -2.243,-1.826 -1.293,-0.612 0,0" />
        </g>
        <g transform="translate(25.1218,12.4518)" id="g60">
          <path id="path62" style="fill:#bbb9ba;fill-opacity:1;fill-rule:nonzero;stroke:none" d="m 0,0 h -10.244 c -0.366,0 -0.664,0.297 -0.664,0.664 v 0 c 0,0.367 0.298,0.664 0.664,0.664 H 0 c 0.367,0 0.664,-0.297 0.664,-0.664 v 0 C 0.664,0.297 0.367,0 0,0" />
        </g>
      </g>
    </g>
  </g>
</svg>
