<?xml version="1.0" encoding="UTF-8" standalone="no"?>
<svg xmlns:dc="http://purl.org/dc/elements/1.1/" xmlns:cc="http://creativecommons.org/ns#" xmlns:rdf="http://www.w3.org/1999/02/22-rdf-syntax-ns#" xmlns:svg="http://www.w3.org/2000/svg" xmlns="http://www.w3.org/2000/svg" viewBox="0 0 53.333332 53.333332" height="53.333332" width="53.333332" xml:space="preserve" id="svg2" version="1.1">
  <metadata id="metadata8">
    <rdf:RDF>
      <cc:Work rdf:about="">
        <dc:format>image/svg+xml</dc:format>
        <dc:type rdf:resource="http://purl.org/dc/dcmitype/StillImage" />
      </cc:Work>
    </rdf:RDF>
  </metadata>
  <defs id="defs6">
    <clipPath id="clipPath18" clipPathUnits="userSpaceOnUse">
      <path id="path16" d="M 0,40 H 40 V 0 H 0 Z" />
    </clipPath>
  </defs>
  <g transform="matrix(1.3333333,0,0,-1.3333333,0,53.333333)" id="g10">
    <g id="g12">
      <g clip-path="url(#clipPath18)" id="g14">
        <g transform="translate(39.2575,20)" id="g20">
          <path id="path22" style="fill:none;fill-opacity:1;fill-rule:nonzero;stroke:none" d="m 0,0 c 0,-10.636 -8.622,-19.257 -19.257,-19.257 -10.636,0 -19.258,8.621 -19.258,19.257 0,10.636 8.622,19.257 19.258,19.257 C -8.622,19.257 0,10.636 0,0" />
        </g>
        <g transform="translate(39.2575,20)" id="g24">
          <path id="path26" style="fill:none;stroke:none;stroke-width:1;stroke-linecap:butt;stroke-linejoin:miter;stroke-miterlimit:10;stroke-dasharray:none;stroke-opacity:1" d="m 0,0 c 0,-10.636 -8.622,-19.257 -19.257,-19.257 -10.636,0 -19.258,8.621 -19.258,19.257 0,10.636 8.622,19.257 19.258,19.257 C -8.622,19.257 0,10.636 0,0 Z" />
        </g>
        <g transform="translate(20.9296,23.2535)" id="g28">
          <path id="path30" style="fill:#bbb9ba;fill-opacity:1;fill-rule:nonzero;stroke:none" d="m 0,0 v -5.577 z m -5.577,-2.789 c 0.263,0 0.484,0.089 0.662,0.268 0.178,0.178 0.267,0.398 0.267,0.662 0,0.263 -0.089,0.484 -0.267,0.662 -0.178,0.178 -0.399,0.267 -0.662,0.267 -0.264,0 -0.485,-0.089 -0.663,-0.267 -0.178,-0.178 -0.267,-0.399 -0.267,-0.662 0,-0.264 0.089,-0.484 0.267,-0.662 0.178,-0.179 0.399,-0.268 0.663,-0.268 M 0,-5.577 h 7.437 v 3.718 c 0,0.511 -0.183,0.949 -0.547,1.313 C 6.526,-0.182 6.089,0 5.577,0 H 0 Z m -5.577,0.929 c -0.775,0 -1.433,0.271 -1.976,0.814 -0.542,0.542 -0.813,1.2 -0.813,1.975 0,0.775 0.271,1.433 0.813,1.975 0.543,0.542 1.201,0.814 1.976,0.814 0.774,0 1.433,-0.272 1.975,-0.814 0.542,-0.542 0.813,-1.2 0.813,-1.975 0,-0.775 -0.271,-1.433 -0.813,-1.975 -0.542,-0.543 -1.201,-0.814 -1.975,-0.814 m -5.578,-5.577 V 3.718 h 1.859 v -9.295 h 7.437 V 1.859 H 5.577 C 6.6,1.859 7.475,1.495 8.203,0.767 8.932,0.039 9.296,-0.837 9.296,-1.859 v -8.366 H 7.437 v 2.788 H -9.296 v -2.788 z" />
        </g>
      </g>
    </g>
  </g>
</svg>
