<?xml version="1.0" encoding="UTF-8"?>
<svg id="Layer_1" xmlns="http://www.w3.org/2000/svg" version="1.1" viewBox="0 0 23 23">
  <!-- Generator: Adobe Illustrator 29.0.1, SVG Export Plug-In . SVG Version: 2.1.0 Build 192)  -->
  <defs>
    <style>
      .st0 {
        fill: #fff;
        fill-rule: evenodd;
      }
    </style>
  </defs>
  <g id="Layer_x5F_1">
    <g id="_213740592">
      <path id="_213744384" class="st0" d="M5.8,16.4c-.1,0-.2-.1-.2-.2v-.5c0-.1.1-.2.2-.2.1,0,.2.1.2.2v.5c0,.1-.1.2-.2.2Z"/>
      <path id="_213744336" class="st0" d="M5.8,14.6c-.1,0-.2-.1-.2-.2v-.5c0-.1.1-.2.2-.2s.2.1.2.2v.5c0,.1-.1.2-.2.2h0Z"/>
      <path id="_213743856" class="st0" d="M5.8,12.8c-.1,0-.2-.1-.2-.2v-.5c0-.1.1-.2.2-.2s.2.1.2.2v.5c0,.1-.1.2-.2.2Z"/>
      <path id="_213743832" class="st0" d="M5.8,11c-.1,0-.2-.1-.2-.2v-.5c0-.1.1-.2.2-.2s.2.1.2.2v.5c0,.1-.1.2-.2.2Z"/>
      <path id="_213743496" class="st0" d="M5.8,9.2c-.1,0-.2-.1-.2-.2v-.5c0-.1.1-.2.2-.2.1,0,.2.1.2.2v.5c0,.1-.1.2-.2.2h0Z"/>
      <path id="_213743808" class="st0" d="M8.1,17.6c-.1,0-.2-.1-.2-.2v-9.1c0-.7-.6-1.3-1.3-1.3s-1.3.6-1.3,1.3v9c0,.1-.1.2-.2.2s-.2-.1-.2-.2v-9c0-1,.8-1.8,1.8-1.8,1,0,1.8.8,1.8,1.8v9.1c0,.1-.1.2-.2.2h0Z"/>
      <path id="_213743760" class="st0" d="M10.3,12.5h-2.3c-.1,0-.2-.1-.2-.2,0-.1.1-.2.2-.2h2.3c.4,0,.9-.1,1.2-.4.3-.2.5-.5.5-.8v-2.5c0-.2-.3-.4-.7-.4s-.7.2-.7.4v2.5c0,0,0,.1,0,.2,0,0,0,0,0,0,0,0,0,0-.1,0h-2.2c-.1,0-.2-.1-.2-.2,0-.1.1-.2.2-.2h2v-2.2c0-.5.5-.9,1.2-.9s1.2.4,1.2.9v2.5c0,.4-.2.9-.7,1.2-.4.3-.9.5-1.5.5h0Z"/>
      <path id="_213743712" class="st0" d="M7.2,15.7c-.1,0-.2-.1-.2-.2v-.6c0-.1.1-.2.2-.2s.2.1.2.2v.6c0,.1-.1.2-.2.2Z"/>
      <path id="_213743472" class="st0" d="M7.2,13.8c-.1,0-.2-.1-.2-.2v-.6c0-.1.1-.2.2-.2.1,0,.2.1.2.2v.6c0,.1-.1.2-.2.2Z"/>
      <path id="_213743664" class="st0" d="M7.2,11.9c-.1,0-.2-.1-.2-.2v-.6c0-.1.1-.2.2-.2s.2.1.2.2v.6c0,.1-.1.2-.2.2h0Z"/>
      <path id="_213743640" class="st0" d="M7.2,10c-.1,0-.2-.1-.2-.2v-.6c0-.1.1-.2.2-.2.1,0,.2.1.2.2v.6c0,.1-.1.2-.2.2Z"/>
      <path id="_213744096" class="st0" d="M1.7,12.6c-.1,0-.2-.1-.2-.2v-.5c0-.1.1-.2.2-.2s.2.1.2.2v.5c0,.1-.1.2-.2.2Z"/>
      <path id="_213743112" class="st0" d="M1.7,10.9c-.1,0-.2-.1-.2-.2v-.5c0-.1.1-.2.2-.2s.2.1.2.2v.5c0,.1-.1.2-.2.2Z"/>
      <path id="_213742992" class="st0" d="M1.7,9.3c-.1,0-.2-.1-.2-.2v-.5c0-.1.1-.2.2-.2.1,0,.2.1.2.2v.5c0,.1-.1.2-.2.2Z"/>
      <path id="_213743328" class="st0" d="M11.3,10.9c-.1,0-.2-.1-.2-.2v-.5c0-.1.1-.2.2-.2s.2.1.2.2v.5c0,.1-.1.2-.2.2Z"/>
      <path id="_213742800" class="st0" d="M11.3,9.3c-.1,0-.2-.1-.2-.2v-.5c0-.1.1-.2.2-.2.1,0,.2.1.2.2v.5c0,.1-.1.2-.2.2Z"/>
      <path id="_213742776" class="st0" d="M2.6,12.2h0,0ZM4.9,14.4h-2.3c-.6,0-1.1-.2-1.5-.7-.4-.4-.6-1-.6-1.6v-3.5c0-.7.5-1.2,1.2-1.2s1.2.6,1.2,1.2v3.3h2c.1,0,.2.1.2.2,0,.1-.1.2-.2.2h-2.3c0,0-.1,0-.2,0,0,0,0,0,0,0,0,0,0-.1,0-.2v-3.5c0-.4-.3-.7-.7-.7s-.7.3-.7.7v3.5c0,.5.2.9.5,1.2.3.3.7.5,1.2.5h2.3c.1,0,.2.1.2.2,0,.1-.1.2-.2.2h0Z"/>
      <path id="_213743184" class="st0" d="M18.9,2.7c-1.1,0-1.9.9-1.9,1.9s.9,1.9,1.9,1.9c1.1,0,1.9-.9,1.9-1.9,0-1.1-.9-1.9-1.9-1.9ZM18.9,7.1c-1.3,0-2.4-1.1-2.4-2.4,0-1.3,1.1-2.4,2.4-2.4s2.4,1.1,2.4,2.4c0,1.3-1.1,2.4-2.4,2.4h0Z"/>
      <path id="_213743376" class="st0" d="M18.9,2c-.1,0-.2-.1-.2-.2V.4c0-.1.1-.2.2-.2s.2.1.2.2v1.4c0,.1-.1.2-.2.2h0Z"/>
      <path id="_213743400" class="st0" d="M21.4,3.4c0,0-.2,0-.2-.1,0-.1,0-.3,0-.3l1.2-.7c.1,0,.3,0,.3,0,0,.1,0,.3,0,.3l-1.2.7s0,0-.1,0h0Z"/>
      <path id="_213743040" class="st0" d="M22.6,7s0,0-.1,0l-1.2-.7c-.1,0-.2-.2,0-.3,0-.1.2-.2.3,0l1.2.7c.1,0,.2.2,0,.3,0,0-.1.1-.2.1Z"/>
      <path id="_213743016" class="st0" d="M18.9,9.2c-.1,0-.2-.1-.2-.2v-1.4c0-.1.1-.2.2-.2s.2.1.2.2v1.4c0,.1-.1.2-.2.2h0Z"/>
      <path id="_213743160" class="st0" d="M15.2,7c0,0-.2,0-.2-.1,0-.1,0-.3,0-.3l1.2-.7c.1,0,.3,0,.3,0,0,.1,0,.3,0,.3l-1.2.7s0,0-.1,0h0Z"/>
      <path id="_213742176" class="st0" d="M16.4,3.4s0,0-.1,0l-1.2-.7c-.1,0-.2-.2,0-.3,0-.1.2-.2.3,0l1.2.7c.1,0,.2.2,0,.3,0,0-.1.1-.2.1h0Z"/>
      <path id="_213742128" class="st0" d="M20.4,2.4s0,0-.1,0c-.1,0-.2-.2,0-.3l.3-.6c0-.1.2-.2.3,0,.1,0,.2.2,0,.3l-.3.6c0,0-.1.1-.2.1h0Z"/>
      <path id="_213741936" class="st0" d="M22.5,4.9h-.7c-.1,0-.2-.1-.2-.2,0-.1.1-.2.2-.2h.7c.1,0,.2.1.2.2,0,.1-.1.2-.2.2Z"/>
      <path id="_213742200" class="st0" d="M20.7,8c0,0-.2,0-.2-.1l-.3-.6c0-.1,0-.3,0-.3.1,0,.3,0,.3,0l.3.6c0,.1,0,.3,0,.3,0,0,0,0-.1,0h0Z"/>
      <path id="_213742104" class="st0" d="M17.1,8s0,0-.1,0c-.1,0-.2-.2,0-.3l.3-.6c0-.1.2-.2.3,0,.1,0,.2.2,0,.3l-.3.6c0,0-.1.1-.2.1Z"/>
      <path id="_213742656" class="st0" d="M16,4.9h-.7c-.1,0-.2-.1-.2-.2,0-.1.1-.2.2-.2h.7c.1,0,.2.1.2.2,0,.1-.1.2-.2.2Z"/>
      <path id="_213742032" class="st0" d="M17.5,2.4c0,0-.2,0-.2-.1l-.3-.6c0-.1,0-.3,0-.3.1,0,.3,0,.3,0l.3.6c0,.1,0,.3,0,.3,0,0,0,0-.1,0h0Z"/>
      <path id="_213742008" class="st0" d="M22.6,22.9H.4c-.1,0-.2-.1-.2-.2v-4.2c0-.1.1-.2.2-.2s.2.1.2.2v4h21.8v-5.6c0-.1.1-.2.2-.2.1,0,.2.1.2.2v5.8c0,.1-.1.2-.2.2Z"/>
      <path id="_213742440" class="st0" d="M20.6,22.9h0c-.1,0-.2-.1-.2-.3,0-3.3-6.4-4.4-9.2-4.7-2.4-.3-5.1-.4-7.3-.2-2.7.2-3.3.6-3.3.8,0,.1-.1.2-.3.2-.1,0-.2-.1-.2-.3,0-.3.4-.6,1-.7.5-.2,1.2-.3,2.1-.4,1.8-.2,4.1-.2,6.3,0,2.1.2,5.2.6,7.7,1.5,2.5,1,3.7,2.3,3.7,3.9,0,.1-.1.2-.2.2h0Z"/>
      <path id="_213741744" class="st0" d="M11.9,18c0,0-.2,0-.2-.2,0-.1,0-.3.1-.3,3.2-1.3,6-1.5,7.8-1.4,1.9,0,3.1.5,3.2.5.1,0,.2.2.2.3,0,.1-.2.2-.3.2h0s-1.2-.4-3-.5c-1.7,0-4.4,0-7.5,1.4,0,0,0,0,0,0h0Z"/>
    </g>
  </g>
</svg>