<?xml version="1.0" encoding="UTF-8"?>
<svg id="Layer_1" xmlns="http://www.w3.org/2000/svg" version="1.1" viewBox="0 0 23 23">
  <!-- Generator: Adobe Illustrator 29.0.1, SVG Export Plug-In . SVG Version: 2.1.0 Build 192)  -->
  <defs>
    <style>
      .st0 {
        fill: #fff;
      }
    </style>
  </defs>
  <path class="st0" d="M22.4,18.5l-.8-.9c-1.5-1.6-2.8-3.4-4-5.3h2.6v-.8l-.8-.9c-2.5-2.7-4.5-5.9-5.9-9.3v-.2h-5.5v.2c-1.5,3.5-3.5,6.6-6,9.3l-.8.9v.8h6.9c-.5.9-1.1,1.8-1.7,2.7-.1-.3-.2-.5-.2-.9v-.5l-.5.2s-.8.3-1.2,1.2c-.3-.4-.7-.5-.7-.5l-.5-.2v.5c0,.5-.2.9-.4,1.2-.5-.5-1-.5-1-.5h-.4v.4c0,1.1-.2,1.7-.4,2.2-.2.5-.3.9-.3,1.6s0,.6.3.8c-.1,0-.3.2-.4.3-.2.2-.3.6-.2.9,0,.5.5.9,1.1.9h.9c.2.2.5.4.8.4h2.8c.3,0,.6-.1.8-.4h.9c.5,0,1-.4,1.1-.9,0-.3,0-.6-.2-.9,0-.1-.2-.2-.4-.3.2-.2.3-.5.3-.8s0-.2,0-.4h13.8v-.8ZM18.9,11.1l.5.5h-2.2c-.6-1.1-1.1-2.2-1.6-3.3v-.2h-2.4V2.3c1.4,3.2,3.3,6.2,5.7,8.8ZM2.5,11.1c2.5-2.7,4.6-5.9,6-9.3h3.5c-1.4,3.3-3.2,6.3-5.6,9l-.7.9h-3.6l.5-.5ZM6.6,11.6l.3-.4c2.3-2.7,4.2-5.7,5.6-8.9v5.8h-2.4v.2c-.5,1.1-1.1,2.2-1.7,3.3h-1.9ZM7.9,15.8v-.4h-.4s-.4,0-.8.3c0,0,0,0,0-.1,1.6-2.1,2.9-4.4,3.9-6.9h.2c1.4,3.5,3.4,6.6,5.8,9.5l.3.4h-1.9l-1.9-2.4c-1.4-1.7-2.1-3.9-2.1-6.1h-.7c0,2.2-.8,4.3-2.1,6.1l-.3.4c0-.2,0-.5,0-.8h0ZM1.8,18.3c.2-.5.4-1.1.4-2,.3.2.7.8.7,2.3h.7c0-.9-.1-1.5-.3-1.9,0,0,0-.1,0-.2.2-.3.4-.7.5-1.2.2.2.4.6.4,1.2v.4h.7v-1.1c0-.6.2-.9.4-1.2.1.5.3.8.5,1.2.1.2.2.3.3.5-.3.5-.5,1.2-.5,2.3h.7c0-1.5.4-2.1.7-2.3,0,.9.2,1.5.4,2,.2.4.3.8.3,1.4,0,.9-1.5,1-2,1,.1-.2.2-.4.2-.7s-.1-.6-.3-.8l-1.1-1.5-1.1,1.5c-.2.2-.3.5-.3.8s0,.5.2.7c-.3,0-.8,0-1.3-.3h0s0,0,0,0c-.4-.2-.6-.4-.6-.8,0-.6.1-1,.3-1.4h0ZM4,20c0-.2,0-.3.1-.4l.6-.8.6.8c0,.1.1.3.1.4,0,.4-.3.7-.7.7s-.7-.3-.7-.7ZM1.6,21.8c-.2,0-.4-.1-.4-.3,0-.1,0-.2,0-.3,0,0,.2-.1.3-.1.1,0,.3,0,.4,0,.1,0,.3,0,.4.1,0,.2-.1.3-.1.5h-.7ZM6.1,22.1h-2.8c-.2,0-.4-.2-.4-.4s.2-.4.4-.4h2.8c.2,0,.4.2.4.4s-.2.4-.4.4ZM7.9,21.8h-.7c0-.2,0-.4-.1-.5.1,0,.3,0,.4-.1.1,0,.3,0,.4,0s.2,0,.3.1c0,0,0,.2,0,.3,0,.2-.2.3-.4.3h0ZM8.3,18c0-.2-.1-.4-.2-.5l.7-.8c.9-1.1,1.6-2.4,1.9-3.8.4,1.4,1,2.7,1.9,3.8l1.6,2h-5.7c0-.2-.1-.4-.2-.6h0ZM17.9,18.6l-.7-.9c-2.3-2.7-4.2-5.7-5.6-9h3.5c1.4,3.5,3.4,6.6,6,9.3l.5.5h-3.6Z"/>
</svg>