<?xml version="1.0" encoding="UTF-8"?>
<svg id="Layer_1" xmlns="http://www.w3.org/2000/svg" version="1.1" viewBox="0 0 23 23">
  <!-- Generator: Adobe Illustrator 29.0.1, SVG Export Plug-In . SVG Version: 2.1.0 Build 192)  -->
  <defs>
    <style>
      .st0 {
        fill: #fff;
      }
    </style>
  </defs>
  <path class="st0" d="M21.9,16.5L13.7,1.6s0,0,0,0c0,0-.1,0-.2,0s-.2,0-.2,0t0,0l-6.5,11.6c-.5-.8-1.1-1.5-1.2-1.6s-.3-.1-.4,0c0,0-.3.4-.6.8v-4.9l2.9,2.6c.1.1.3,0,.4,0s0-.3,0-.4l-3.3-3v-1.2l2.9,2.7c0,0,.1,0,.2,0s.1,0,.2,0c.1-.1,0-.3,0-.4l-3.3-3v-1.2l2.9,2.7c0,0,.1,0,.2,0s.1,0,.2,0c.1-.1,0-.3,0-.4l-3.3-3v-1.2l2.9,2.7c0,0,.1,0,.2,0s.1,0,.2,0c.1-.1,0-.3,0-.4L4.5,1c-.1,0-.3,0-.3,0L.8,4c-.1.1-.1.3,0,.4s.3.1.4,0l2.9-2.7v1.2L.8,6c-.1.1-.1.3,0,.4.1.1.3.1.4,0l2.9-2.7v1.2L.8,7.9c-.1.1-.1.3,0,.4s.3.1.4,0l2.9-2.7v1.2l-3.3,3c-.1.1-.1.3,0,.4,0,0,.1,0,.2,0s.1,0,.2,0l2.9-2.6v5.6s0,0,0,0c-.6.8-1.1,1.8-1.1,2.5,0,1.4,1.1,2.5,2.5,2.5h0c.9,0,1.7-.5,2.1-1.3h14.1s0,0,0,0c0,0,0,0,0,0,0,0,0,0,0,0h0c0,0,0,0,0-.1h0c0-.1,0-.2,0-.2ZM5.5,17.6h0c-.5,0-.9-.4-.9-.9s.5-1,.9-1.6c.4.5.9,1.3.9,1.6,0,.5-.4.9-.9.9ZM6.9,17c0,0,0-.2,0-.2,0-.7-1-1.9-1.2-2.2-.1-.1-.3-.1-.4,0-.2.2-1.2,1.5-1.2,2.2s0,.2,0,.3c-.4-.3-.6-.9-.6-1.4,0-.9,1.2-2.6,1.9-3.5.7.9,1.9,2.6,1.9,3.5,0,.5-.2,1-.5,1.3ZM13.2,16.3h-5.4c0-.2,0-.4,0-.6,2.5-1.5,4.3-4.3,5.2-8.1,0-.2,0-.3.1-.5v9.1ZM7.9,15.2c-.1-.4-.4-.9-.7-1.4L13.2,2.8c0,1.7-.5,9.2-5.4,12.4ZM13.8,16.4V7.1c.7,3.3,2.4,7.5,6.3,9.2h-6.3ZM13.8,2.8l7.4,13.3c-6.7-2.3-7.3-11.4-7.4-13.3Z"/>
  <path class="st0" d="M21.7,18.5h-9.7c-.2,0-.3.1-.3.3s.1.3.3.3h9.7c.2,0,.3-.1.3-.3,0-.2-.1-.3-.3-.3Z"/>
  <path class="st0" d="M15.6,21h-4.2c-.2,0-.3.1-.3.3s.1.3.3.3h4.1c.2,0,.3-.1.3-.3s-.1-.3-.2-.3Z"/>
  <path class="st0" d="M20.7,19.8h-4.1c-.2,0-.3.1-.3.3s.1.3.3.3h4.1c.2,0,.3-.1.3-.3s-.1-.3-.3-.3Z"/>
  <path class="st0" d="M18.3,21h-1.1c-.2,0-.3.1-.3.3s.1.3.3.3h1.1c.2,0,.3-.1.3-.3s-.1-.3-.3-.3Z"/>
  <path class="st0" d="M9.9,20.1l-1.3-.3,1.3-.4c0,0,.1,0,.2-.1,0,0,0-.1,0-.2l-.5-1.4c0-.1-.2-.2-.3-.2l-3.8,1.3-4-1.2c-.1,0-.3,0-.3.2l-.4,1.4c0,0,0,.1,0,.2s0,.1.2.1l1.3.4-1.4.5c-.1,0-.2.2-.2.3l.5,1.3c0,0,0,.1.1.2,0,0,0,0,.1,0s0,0,0,0l4-1.3,4,1.2h0c.1,0,.2,0,.3-.2l.4-1.4c0,0,0-.1,0-.2,0,0,0-.1-.2-.1ZM1.3,19l.2-.9,3,.9-1.5.5-1.7-.5ZM1.5,21.6l-.3-.8,8-2.7.3.8-8,2.7ZM9.3,21.4l-3-.9,1.5-.5,1.7.5-.2.9Z"/>
  <path class="st0" d="M22.3,4.3c0,0-.2-.1-.3,0-.3.2-.7.2-1,.2-1.3,0-2.3-1-2.3-2.3s0-.7.2-1c0-.1,0-.2,0-.3,0,0-.2-.1-.3,0-1,.5-1.6,1.5-1.6,2.5,0,1.6,1.3,2.8,2.8,2.8s2-.6,2.5-1.6c0,0,0-.2,0-.3ZM19.8,5.6c-1.3,0-2.3-1-2.3-2.3s.2-1.2.6-1.6c0,.1,0,.3,0,.4,0,1.6,1.3,2.8,2.8,2.8s.3,0,.4,0c-.4.4-1,.6-1.6.6Z"/>
</svg>