<?xml version="1.0" encoding="UTF-8"?>
<svg id="Layer_1" xmlns="http://www.w3.org/2000/svg" version="1.1" viewBox="0 0 23 23">
  <!-- Generator: Adobe Illustrator 29.0.1, SVG Export Plug-In . SVG Version: 2.1.0 Build 192)  -->
  <defs>
    <style>
      .st0 {
        fill: #fff;
      }
    </style>
  </defs>
  <path class="st0" d="M21.7,7.5h0c0-.3,0-.6-.2-.9.7-.2,1.3-.9,1.3-1.7s-.2-.9-.5-1.2c0-.2.1-.4.1-.6,0-1-.8-1.8-1.8-1.8s-.4,0-.6.1c-.4-.7-1.1-1.2-2-1.2s-1,.2-1.3.5c-.3-.3-.8-.5-1.2-.5-.8,0-1.4.5-1.7,1.2-.2,0-.3,0-.5,0-1,0-1.8.8-1.8,1.8s0,.4.1.6c-.2.2-.4.5-.4.8h-6.1L.2,15.4v.8h12.7c-.2.3-.3.7-.3,1.1s.2,1.1.5,1.5l-3.3,3.3.5.5,3.3-3.3c.2.1.4.3.6.4l-1.6,2.5.6.4,1.6-2.6c.3,0,.6.1,1,.2v2.6s.7,0,.7,0v-2.6c.4,0,.8,0,1.1-.2l1.9,2.6.6-.4-1.8-2.4c.2,0,.4-.2.5-.3l3.2,3.2.5-.5-3.3-3.3c.3-.4.5-1,.5-1.6s0-.7-.2-1.1h3.1v-.8l-2.8-6.1c.9-.1,1.7-.9,1.7-1.8h0ZM13,3.8v-.7c-.3,0-.5,0-.7.1,0,0,0,0,0-.1,0-.6.5-1.1,1.1-1.1s1.1.5,1.1,1.1h.7c0-.6-.3-1.1-.7-1.4.1-.5.6-.8,1-.8s.7.2.9.5l.3.4.3-.3c.3-.3.7-.5,1.1-.5.8,0,1.5.7,1.5,1.5s-.7,1.5-1.5,1.5v.7c1.2,0,2.2-1,2.2-2.2s0-.2,0-.3c.1,0,.3,0,.4,0,.6,0,1.1.5,1.1,1.1s0,.4-.1.5v.3c-.1,0,0,.2,0,.2.3.2.4.5.4.8,0,.6-.5,1.1-1.1,1.1h0c-.1-.1-.3-.2-.5-.3l-.2.7c.4.2.7.6.7,1,0,.6-.5,1.1-1.2,1.1h0l-1.8-4h-6c.2-.4.6-.7,1-.7h0ZM8.4,14.6c-1.8-2.1-2.7-4.8-2.7-7.5v-.4l3.8,8.8h-.4l-.7-.9ZM8.2,15.5H2.4l.3-.4c1.2-1.5,2.1-3.2,2.5-5,.4,1.8,1.3,3.5,2.5,5l.3.4ZM4.9,6.6v.5c0,2.7-1,5.4-2.7,7.5l-.7.9h-.5l4-8.9ZM13.3,17.4c0-.7.4-1.2.7-1.7.3-.3.5-.7.6-1.1.2.1.5.3.5.6v.4h.7v-.4c0-.3,0-.5-.2-.7.3-.7,1-1.1,1.4-1.4.2.5.5.9.9,1.5.6.9,1.2,1.8,1.2,2.8s-.6,1.6-1.2,1.9c0-.2.1-.4.1-.7,0-.4-.1-.8-.4-1.1l-1.4-1.8-1.4,1.8c-.2.3-.4.7-.4,1.1s0,.4.1.6c-.7-.4-1.2-1-1.2-1.8ZM16.2,19.5s0,0-.1,0c-.5,0-.9-.5-.9-1s0-.4.2-.6l.9-1.1.9,1.1c.1.2.2.4.2.6,0,.5-.4,1-1,1,0,0-.1,0-.2,0h0ZM19.4,15.5c-.2-.5-.5-.9-.8-1.3-.4-.6-.8-1.2-.8-1.6v-.5l-.5.2c0,0-1.5.5-2.1,1.7-.3-.2-.5-.2-.5-.3l-.5-.2v.5c0,.4-.3.8-.6,1.2,0,0-.1.2-.2.3h-3L5.9,5.3h11.6l4.6,10.2h-2.7Z"/>
</svg>