<?xml version="1.0" encoding="UTF-8"?>
<svg id="Layer_1" xmlns="http://www.w3.org/2000/svg" version="1.1" viewBox="0 0 23 23">
  <!-- Generator: Adobe Illustrator 29.0.1, SVG Export Plug-In . SVG Version: 2.1.0 Build 192)  -->
  <defs>
    <style>
      .st0 {
        fill: none;
        stroke: #fff;
        stroke-linecap: round;
        stroke-linejoin: round;
        stroke-width: .6px;
      }
    </style>
  </defs>
  <path class="st0" d="M.8,16.1v4c0,.1,0,.2.2.2h2.3c.1,0,.2,0,.2-.2v-1.9c0-4,3.2-7.2,7.2-7.2h1.4c4,0,7.2,3.2,7.2,7.2v1.9c0,.1,0,.2.2.2h2.3c.1,0,.2,0,.2-.2v-11.7H.8v6.2"/>
  <line class="st0" x1="20.4" y1="5.9" x2="19.2" y2="5.9"/>
  <line class="st0" x1="17.7" y1="5.9" x2="12.4" y2="5.9"/>
  <line class="st0" x1="10.6" y1="5.9" x2="2.6" y2="5.9"/>
  <path class="st0" d="M2,4.4c.3-.1.6-.4.6-.8s-.4-.9-.9-.9-.9.4-.9.9.2.7.6.8"/>
  <path class="st0" d="M11.8,4.4c.3-.1.6-.4.6-.8s-.4-.9-.9-.9-.9.4-.9.9.2.7.6.8"/>
  <path class="st0" d="M21.6,4.4c.3-.1.6-.4.6-.8s-.4-.9-.9-.9-.9.4-.9.9.2.7.6.8"/>
  <path class="st0" d="M2.6,8.3v-3.4c0-.2-.2-.4-.4-.4h-.9c-.2,0-.4.2-.4.4v3.4"/>
  <path class="st0" d="M22.2,8.3v-3.4c0-.2-.2-.4-.4-.4h-.9c-.2,0-.4.2-.4.4v3.4"/>
  <path class="st0" d="M12.4,8.3v-3.4c0-.2-.2-.4-.4-.4h-.9c-.2,0-.4.2-.4.4v3.4"/>
  <path class="st0" d="M11.5,14l-3.3,5.9c0,.1,0,.3.2.3h6.2c.2,0,.3-.2.2-.3l-3.3-5.9Z"/>
  <polygon class="st0" points="11.5 17.9 10 20.2 13 20.2 11.5 17.9"/>
  <line class="st0" x1="11.5" y1="17.9" x2="11.5" y2="13.4"/>
</svg>