<?xml version="1.0" encoding="UTF-8"?>
<svg id="Layer_1" xmlns="http://www.w3.org/2000/svg" version="1.1" viewBox="0 0 23 23">
  <!-- Generator: Adobe Illustrator 29.0.1, SVG Export Plug-In . SVG Version: 2.1.0 Build 192)  -->
  <defs>
    <style>
      .st0 {
        fill: #fff;
      }
    </style>
  </defs>
  <g id="Luxury_Car">
    <path class="st0" d="M20.2,9.8l-1.6-2.7c-.7-1.1-1.9-1.8-3.1-1.8h-8c-1.3,0-2.5.7-3.1,1.8l-1.6,2.7c-.5.2-2.3,1-2.6,3.4v3.7c0,.9.7,1.7,1.6,1.8,6.3.7,12.9.7,19.5,0,.9,0,1.6-.9,1.6-1.8,0-4.2,0-3.7,0-3.7-.2-2.4-2.1-3.2-2.6-3.4ZM4.8,7.4c.6-.9,1.6-1.5,2.7-1.5h8c1.1,0,2.1.6,2.7,1.5l1.4,2.4c-.6.1-1.7.5-3.1,2.2-.5-.7-1.2-1-2-1h-6.3c-.7,0-1.4.3-1.9.9-1.3-1.6-2.4-2-3-2.1l1.4-2.4ZM8.8,11.5v3.9h-1v-3.8c.3,0,.5,0,1,0ZM10.3,11.5v3.9h-1v-3.9h1ZM11.8,11.5v3.9h-1v-3.9h1ZM13.3,11.5v3.9h-1v-3.9h1ZM14.9,11.5v3.8h-1v-3.9c.6,0,.7,0,1,0ZM16.4,13.5l-.2,1.8h-.8v-3.7c.7.4,1.1,1.1,1,1.8ZM7.3,15.4h-.8l-.2-1.8c0-.8.3-1.5,1-1.8v3.6ZM16.1,15.9v.7c0,.2-.3.4-.5.4H7.1c-.2,0-.4-.2-.4-.4v-.6c0,0,9.5,0,9.5,0ZM22.3,16.9c0,.6-.5,1.2-1.1,1.2-6.6.7-13.1.7-19.3,0-.6,0-1.1-.6-1.1-1.3v-3.7c.2-2.4,2.2-2.9,2.3-3h0s1.2-.2,3.1,2c-.2.4-.3.8-.2,1.3l.3,3c0,.5.4.9.9.9h8.6c.5,0,.9-.4.9-.9l.3-3c0-.4,0-.8-.2-1.1,1.8-2.1,3-2.2,3.2-2.2,1.2.4,2.1,1.4,2.3,3v3.7Z"/>
    <path class="st0" d="M5.6,10h4.6c.1,0,.3-.1.3-.3s-.1-.3-.3-.3h-4.6c-.2,0-.3-.2-.2-.3l.7-.9c.6-.7,1.5-1.2,2.6-1.2h5.7c1,0,2,.4,2.6,1.2l.7.9c.1.1,0,.3-.2.3h-4c-.1,0-.3.1-.3.3s.1.3.3.3h4c.6,0,1-.7.6-1.2l-.7-.9c-.7-.9-1.8-1.4-3-1.4h-5.7c-1.2,0-2.3.5-3,1.4l-.7.9c-.4.5,0,1.2.6,1.2Z"/>
    <path class="st0" d="M23,8c0-.3-.3-.6-.6-.6h-1.1c-.3,0-.6.3-.6.6v1.4c-.1.1,0,.3,0,.3.1,0,.3,0,.3-.1h0c0,0,.9,0,.9,0,.5,0,.9-.4.9-.9v-.5ZM22.4,8.5c0,.2-.2.4-.4.4h-.8v-.9s0,0,0,0h1.1s0,0,0,0v.5Z"/>
    <path class="st0" d="M0,8.5c0,.5.4.9.9.9h.9c0,.2.2.3.3.2.1,0,.2-.2.1-.3v-.2c0,0,0-1.1,0-1.1,0-.3-.3-.6-.6-.6H.7c-.3,0-.6.3-.6.6v.5ZM.6,8s0,0,0,0h1.1s0,0,0,0v.9h-.8c-.2,0-.4-.2-.4-.4v-.5Z"/>
    <path class="st0" d="M.5,18.9c-.1,0-.3.1-.3.3v1.1c0,.9.8,1.7,1.7,1.7h1.3c.9,0,1.7-.8,1.7-1.7v-.4c0-.1-.1-.3-.3-.3s-.3.1-.3.3v.4c0,.6-.5,1.2-1.2,1.2h-1.3c-.6,0-1.2-.5-1.2-1.2v-1.1c0-.1-.1-.3-.3-.3Z"/>
    <path class="st0" d="M18.4,19.6c-.1,0-.3.1-.3.3v.4c0,.9.8,1.7,1.7,1.7h1.3c.9,0,1.7-.8,1.7-1.7v-1.1c0-.1-.1-.3-.3-.3s-.3.1-.3.3v1.1c0,.6-.5,1.2-1.2,1.2h-1.3c-.6,0-1.2-.5-1.2-1.2v-.4c0-.1-.1-.3-.3-.3Z"/>
    <path class="st0" d="M5.1,12.1H1.7c-.1,0-.3.1-.3.3v.6c0,.5.4,1,.9,1,0,0,2.9.1,2.7.1.1,0,.3-.1.3-.3v-1.5c0-.1-.1-.3-.3-.3ZM2.5,13.5c-.3,0-.5-.2-.5-.5s.2-.5.5-.5.5.2.5.5-.2.5-.5.5Z"/>
    <path class="st0" d="M17.9,12.3v1.5c0,.2.1.3.3.3.4,0,2.9-.1,2.7-.1.5,0,.9-.5.9-1v-.6c0-.1-.1-.3-.3-.3h-3.4c-.1,0-.3.1-.3.3ZM20.7,12.4c.3,0,.5.2.5.5s-.2.5-.5.5-.5-.2-.5-.5.2-.5.5-.5Z"/>
    <path class="st0" d="M4.6,3.1l.8-.2c.1,0,.2-.2.2-.3s-.2-.2-.3-.2l-.8.2c-.1,0-.2.2-.2.3,0,.1.2.2.3.2Z"/>
    <path class="st0" d="M3.1,3.1c0-.1-.2-.2-.3-.2l-.8.2c-.1,0-.2.2-.2.3,0,.1.1.2.3.2s0,0,.9-.2c.1,0,.2-.2.2-.3Z"/>
    <path class="st0" d="M3.6,3.9l.2.8c0,.1.1.2.3.2s.3-.2.3-.3l-.2-.8c0-.1-.2-.2-.3-.2-.1,0-.2.2-.2.3Z"/>
    <path class="st0" d="M3.6,1.3c0-.1-.2-.2-.3-.2-.1,0-.2.2-.2.3l.2.8c0,.1.2.2.3.2.1,0,.2-.2.2-.3l-.2-.8Z"/>
    <path class="st0" d="M18.9,5.2h.6c.1,0,.3-.2.2-.3,0-.1-.1-.3-.3-.2h-.6c-.1,0-.3.2-.2.3,0,.1.1.3.3.2Z"/>
    <path class="st0" d="M21.2,5.1c.1,0,.3-.1.2-.3,0-.1-.1-.3-.3-.2h-.6c-.1,0-.3.2-.2.3,0,.1.1.2.3.2s.6,0,.6,0Z"/>
    <path class="st0" d="M19.8,5.5v.6c0,.1.2.3.3.2.1,0,.3-.1.2-.3v-.6c0-.1-.2-.3-.3-.2-.1,0-.3.1-.2.3Z"/>
    <path class="st0" d="M20,3.4c-.1,0-.3.1-.2.3v.6c0,.1.2.3.3.2.1,0,.3-.1.2-.3v-.6c0-.1-.2-.3-.3-.2Z"/>
    <path class="st0" d="M11.7,8.6c-.3,0-.6.3-.6.6s.1.5.4.6v.5c-.3.1-.2.5.1.5h.3c.3,0,.4-.4.1-.5v-.5c.2,0,.4-.3.4-.6s-.3-.6-.6-.6Z"/>
  </g>
</svg>