<?xml version="1.0" encoding="UTF-8"?>
<svg id="Layer_1" xmlns="http://www.w3.org/2000/svg" version="1.1" viewBox="0 0 23 23">
  <!-- Generator: Adobe Illustrator 29.0.1, SVG Export Plug-In . SVG Version: 2.1.0 Build 192)  -->
  <defs>
    <style>
      .st0 {
        fill: none;
        stroke: #fff;
        stroke-linecap: round;
        stroke-linejoin: round;
        stroke-width: .5px;
      }
    </style>
  </defs>
  <path class="st0" d="M19,7h1.6c.4,0,.8.3.8.8h0c0,.7-.6,1.2-1.2,1.2h-.7"/>
  <path class="st0" d="M4,7h-1.6c-.4,0-.8.3-.8.8h0c0,.7.6,1.2,1.2,1.2h.7"/>
  <path class="st0" d="M8.5,11.5"/>
  <path class="st0" d="M14.5,11.5"/>
  <line class="st0" x1="7" y1="11.3" x2="8.7" y2="11.5"/>
  <path class="st0" d="M3.5,9.8l1-5.2c.2-.9.9-1.5,1.8-1.5h4.2"/>
  <path class="st0" d="M12,3.1h4.6c.9,0,1.7.6,1.8,1.5l1,5.2"/>
  <line class="st0" x1="14.4" y1="11.5" x2="16.1" y2="11.3"/>
  <path class="st0" d="M17.5,7.1l.2.9c0,.5-.3,1-.8,1H6.1c-.5,0-.9-.5-.8-1l.6-2.9c0-.3.3-.5.6-.5h10c.3,0,.6.2.6.5v.6"/>
  <path class="st0" d="M1.8,14.1v-1.3c-.3-1.6,1-3.1,2.7-3.1s2.8,1.3,2.8,2.8,0,.2,0,.3l-.4,4.6"/>
  <line class="st0" x1="2.1" y1="17.4" x2="1.9" y2="15.6"/>
  <circle class="st0" cx="4.5" cy="12.6" r="1.4"/>
  <circle class="st0" cx="4.5" cy="15.7" r=".6"/>
  <path class="st0" d="M20.9,17.4l.4-4.6c.2-1.6-1.1-3.1-2.8-3.1h0c-1.6,0-2.9,1.4-2.8,3.1l.4,4.6"/>
  <circle class="st0" cx="18.5" cy="12.6" r="1.4"/>
  <circle class="st0" cx="18.5" cy="15.7" r=".6"/>
  <path class="st0" d="M14.3,17.5h7c.3,0,.5.2.5.5v1c0,.3-.2.5-.5.5H1.7c-.3,0-.5-.2-.5-.5v-1c0-.3.2-.5.5-.5h11.1"/>
  <path class="st0" d="M6.3,19.6v1.2c0,.3-.3.6-.6.6h-2.5c-.3,0-.6-.3-.6-.6v-1.2"/>
  <path class="st0" d="M20.4,19.6v1.2c0,.3-.3.6-.6.6h-2.5c-.3,0-.6-.3-.6-.6v-1.2"/>
  <path class="st0" d="M13.6,3l-.3-.9c0-.3-.3-.4-.6-.4h-2.5c-.3,0-.5.2-.6.4l-.3.9"/>
  <path class="st0" d="M8.5,15.4v-3.1c0-.5.3-.9.7-1.1l1.2-.6c.4-.2.8-.3,1.2-.3h0c.4,0,.8,0,1.2.3l1.2.6c.4.2.7.6.7,1.1v3.1c0,.5-.4.8-.8.8h-4.4c-.5,0-.8-.4-.8-.8Z"/>
  <path class="st0" d="M13.3,4.6v1c0,.2-.1.3-.3.3h-2.9c-.2,0-.3-.1-.3-.3v-1"/>
  <line class="st0" x1="11.5" y1="16.2" x2="11.5" y2="10.3"/>
  <line class="st0" x1="13" y1="16.2" x2="13" y2="10.8"/>
  <line class="st0" x1="10" y1="16.2" x2="10" y2="10.8"/>
</svg>